<svg xmlns="http://www.w3.org/2000/svg" width="512" height="512"><g fill="#585858"><path d="M354.3 207.1c-7.5-5.7-17.3-8.8-28.5-8.8 2-1.2 4-2.4 5.8-3.8 7.4-5.6 12.9-13.2 15.6-21.3 1.9-5.8.4-9.2-1.2-11.1-1.6-1.9-3.9-2.8-6.6-2.8-3.2 0-6.3 1.5-7.9 2.4-12.9 7.4-22.8 19.9-27 34.2-7.5-9.6-18-17.2-29.7-22.8 4.8-.1 9-.4 12.9-1.2 14.8-2.7 26.3-11.1 30.7-22.3 2.6-6.6 2.6-11.8.1-15.6-1.6-2.3-4.9-5.1-12-5.1-4.7 0-10.6 1.2-16.7 3.5-5.4 2-10.4 4.6-13.4 6.9-5.4 4.2-10.3 9.1-14.6 13.4-.6.6-1.6 1.7-2.8 3.1-1.2 1.4-3.6 4.2-5.6 6.2-3.6-16.7-9-37.6-24.3-50.6-7.5-6.4-16.6-8.5-23.2-5.2-7 3.5-9.8 11.8-9.4 18.5.7 11.2 8.5 22 21.6 29.8 4.4 2.6 9 4.8 13.5 6.9l1.8.9c-2.2-.1-4.4-.2-6.5-.2-19.2 0-36.3 5.4-48 15.1-18.2 15.1-22.5 39.1-26.7 62.2-.6 3.4-1.2 6.9-1.9 10.2-5.3 26.6-14 47.5-26.7 63.9-11.4 14.6-26.4 25.4-42.4 30.4-3.7 1.2-6.3 4.4-6.5 8.3-.2 3.9 1.9 7.5 5.6 9.1 5.7 2.5 11.5 4.9 17.3 7.2 21 8.4 40.9 15.6 60.2 21.7 3.5 15.4 15.9 28.2 31.2 32 1.6.4 3.2.7 4.8.9 1.7.2 3.3.3 5 .3 4.8 0 9.5-.8 14-2.3 1.5-.5 2.9-1.1 4.3-1.7.4-.2.7-.4 1.1-.6 1-.5 2.1-1 3.1-1.6.5-.3 1-.7 1.5-1 .8-.5 1.6-1.1 2.4-1.7l1.8-1.5 1.8-1.5c.7-.7 1.4-1.5 2.1-2.2 18.7 3.6 37.2 6.3 54.9 7.7 6 .5 11.5.7 18.2.7 2.9 0 5.9 0 9.2-.1h2.4c1.9 0 4-.3 6.3-.5 3.8-.5 6.9-3.1 7.9-6.8 1-3.7-.3-7.6-3.4-10-8.8-6.7-15.2-13.6-20.3-21.6 9.2-2.2 18-4.5 26.4-7 5.7 5.1 13.2 7.8 20.7 7.8 3.5 0 7-.6 10.3-1.8 10.3-3.8 17.9-13.3 19.6-24 12-5.1 23.4-10.7 34-16.6 6.7-3.8 11.2-6.9 17.3-11.2 1-.6 2-1.5 3.1-2.5l.4-.4c2.4-2.1 3.3-5.3 2.3-8.3-1-3-3.7-5.1-6.9-5.2-11.1-.6-19.5-3.4-28.1-9.1-2.6-1.8-5.1-3.9-7.3-6.4-8.9-9.9-13.1-23.8-17.6-38.5-5.2-18.2-10.9-36.8-26-48.4zm18.7 50.5c1.7 5.5 3.4 11 5.3 16.4-24.5 11.8-50 21.6-76 29.3.2-.7.4-1.4.6-2 .5-1.8 1.1-3.6 1.6-5.4.1-.2.1-.4.2-.6.5-1.5.9-3.1 1.4-4.6 7.9-25.7 16.1-52.4 7.5-77.9-.2-.5-.4-.9-.6-1.4-.4-1.2-.9-2.4-1.4-3.6 4.7-1.1 9.4-1.6 13.9-1.6 9.5 0 17.7 2.5 23.9 7.2 13.2 10 18.3 26.6 23.6 44.2zm-83.6 65.9c-.3 1.8-.6 3.7-.9 5.5-.1.8-.2 1.5-.3 2.2-.1 1.2-.3 2.3-.4 3.5 0 .3-.1.6-.1.9-.1.7-.1 1.4-.1 2 0 .6-.1 1.1-.1 1.7v4.8c0 1.3.1 2.6.2 3.9-51-4.2-104.9-17.3-152.8-36.9 4.9-7.4 9.2-15.6 12.8-24.7 46 16.3 93.7 28 142 35-.1.8-.2 1.5-.3 2.1zm10.5-11.2c27.8-8 55.2-18.4 81.4-30.9 2.2 5 4.8 9.7 7.9 13.9-28.3 15.7-60.9 28.2-93 35.6.7-5.6 1.9-11.7 3.7-18.6zm35.5-143.8c1.5-.8 2.9-1.3 4-1.3.2 0 .5 0 .7.2.1.2.4 1.2-.3 3.4-2.2 6.6-6.8 12.9-12.9 17.5-4.1 3.1-8.8 5.6-14.1 7.4 4-11.4 12.1-21.3 22.6-27.2zM265 161c1-1.2 1.8-2.2 2.3-2.7 4.2-4.2 8.9-8.9 13.9-12.8 2.3-1.8 6.6-4 11.2-5.7 9.2-3.4 17.8-3.8 19.5-1.3.9 1.4.6 4.4-.9 8.2-4 10.2-15.4 15.7-24.8 17.4-4 .7-8.3 1.1-13.5 1.1-3.7 0-7.5-.2-11.2-.4 1.1-1.1 2.2-2.4 3.5-3.8zm-43-13.3c-5.1-3-17-11.4-17.7-23.5-.2-4 1.2-9.1 5-11 1.1-.5 2.2-.8 3.5-.8 3.3 0 7.5 1.9 11.1 5 11.5 9.8 16.7 24.5 20.7 41.6-3.2-1.7-6.5-3.3-9.8-4.8-4.4-2.1-8.7-4.1-12.8-6.5zm-64 103.4c.7-3.4 1.3-6.9 1.9-10.3 3.9-21.8 8-44.3 24-57.6 10.3-8.6 25.5-13.3 42.9-13.3 6.4 0 13.1.7 19.8 2l.1.1c-2.6 2.8-6.2 4.8-9.2 6-2.3.9-4.6 1.7-7.1 2.5-3.8 1.2-7.6 2.5-11.3 4.4-7.9 4.1-13 10.7-13.6 17.7-.3 2.8.2 5.4.6 7.9.5 3 .9 5.6 0 7.6-1 2.3-3.6 4-6.4 5.8l-1.6 1.1 4.4 6.5 1.5-1c3.5-2.3 7.5-4.8 9.4-9.4 1.7-4.1 1-8.2.4-11.9-.3-2.1-.7-4.2-.5-6 .4-4.3 3.9-8.6 9.4-11.4 3.1-1.6 6.6-2.7 10.2-3.9 2.5-.8 5.1-1.7 7.6-2.7 3.9-1.6 7.2-3.6 9.9-5.9.5 2.6.4 5.2-.4 7.6-.8 2.3-2.2 4.5-3.7 6.9-2.4 3.8-5.1 8.1-5.4 13.4-.2 4.5 1.4 8.5 2.8 12 .7 1.7 1.4 3.4 1.8 5 1.1 4.1.8 8.4-.8 12.3l7.3 2.9c2.2-5.5 2.6-11.6 1.1-17.3-.6-2.1-1.3-4-2.1-5.9-1.2-3.1-2.4-6-2.2-8.7.2-3.2 2.1-6.3 4.2-9.6 1.7-2.6 3.4-5.3 4.5-8.4 1.7-4.9 1.5-10.3-.2-15.2 17.9 5.4 34.6 15.5 43.9 30l1 1.8v.2h.2c.3.5.5.9.8 1.4.5.9 1 1.8 1.4 2.8.5 1.1 1 2.3 1.4 3.5.1.4.3.7.4 1.1 7.7 23.1.3 47.4-7.6 73.1-1.2 3.8-2.3 7.7-3.5 11.6-.6 2-1.2 4-1.7 6-.2.7-.4 1.5-.6 2.2l-.1.4c-.1.5-.2.9-.3 1.4-.3 1.3-.7 2.6-1 3.8-47.9-6.9-95.3-18.6-140.9-34.7 2.8-8.4 5.3-17.7 7.3-27.8zm49.5 153.1l13.8 3.4c-.5.4-.9.8-1.4 1.1-.5.3-.9.7-1.4 1-.8.5-1.5.9-2.3 1.3-1.6.9-3.3 1.6-5 2.3-.1 0-.2.1-.3.1-1 .4-2 .6-3.1.9l-1.2.3c-1 .2-1.9.4-2.9.5-.5.1-1 .1-1.6.2-.9.1-1.7.1-2.6.2h-2.2c-.7 0-1.4 0-2-.1-1.4-.2-2.9-.4-4.3-.7-1.4-.4-2.9-.8-4.2-1.4-.4-.2-.9-.4-1.3-.6-.9-.4-1.8-.9-2.7-1.4-.5-.3-1-.6-1.4-.9-.8-.5-1.6-1.1-2.4-1.7-.4-.3-.9-.7-1.3-1-.8-.7-1.6-1.4-2.3-2.1-.3-.3-.7-.6-1-1-1-1.1-2-2.2-2.9-3.4-.1-.2-.2-.3-.3-.5-.8-1.1-1.5-2.2-2.1-3.3-.2-.4-.4-.9-.7-1.3-.3-.6-.5-1.2-.8-1.8l32 7.9c2.5.7 5.2 1.4 7.9 2zm114.2 2.2c.7.6.7 1.3.6 1.6-.1.4-.4 1-1.3 1.1-2 .2-4 .5-5.5.5h-2.4c-3.3 0-6.2.1-9.1.1-6.5 0-11.7-.2-17.6-.7-20.7-1.7-42.4-4.9-64.4-9.6-4.3-.9-8.5-1.9-12.8-2.9l-7.7-1.9c-31.6-7.9-64.8-18.9-101-33.3-5.8-2.3-11.5-4.7-17.2-7.2-.7-.3-.8-1-.8-1.4 0-.4.2-1.1 1-1.3 17.5-5.4 33.9-17.2 46.2-33.1.2-.2.3-.4.5-.6 49.5 20.6 105.6 34.1 158.5 38.3.1.7.3 1.4.4 2.1.1.5.2 1 .4 1.6.3 1.1.5 2.1.8 3.1.1.5.3 1 .4 1.5.4 1.3.9 2.6 1.4 3.9.1.2.1.3.2.5.2.6.5 1.2.8 1.7.5 1.1.9 2.2 1.4 3.2.5 1 1 2 1.5 2.9.2.4.4.9.6 1.3l.8 1.6c.1.1.1.2.2.3l.4.8h.1c5.8 9.8 13.2 18 23.6 25.9zm39.2-36.2c-6 2.2-13.1 1.5-18.8-1.5 11.2-3.5 21.8-7.2 31.9-11.3-2.4 5.8-7.2 10.7-13.1 12.8zm40.2-63.4c9.8 6.6 19.4 9.8 32 10.2l-.4.4c-.8.7-1.6 1.4-2.5 2-6.2 4.3-10.3 7.2-16.7 10.8-12.4 7-26.1 13.5-40.5 19.3-21.1 8.5-44.3 15.7-70.6 22-.2-.5-.5-1-.7-1.5-.6-1.2-1.1-2.4-1.6-3.7-.1-.1-.1-.3-.2-.4-.8-2-1.5-4.1-2-6.2l-.3-1.2c-.5-2.2-1-4.3-1.3-6.6-.6-4-.7-8.3-.5-12.8 34.1-7.6 69-20.9 99-37.7 1.8 1.9 3.9 3.8 6.3 5.4z"/><path d="M451.1 298c-4.4-2.3-9.3-3.1-13.6-3.8l-1.2 7.8c3.9.6 7.9 1.2 11.2 3 2.4 1.3 5.1 3.7 5.4 6.8.3 2.4-.9 5.3-3.7 9-4 5.4-8.9 10.1-14.4 14l4.5 6.4c6.2-4.4 11.6-9.6 16.2-15.7 2.5-3.4 5.8-8.6 5.2-14.5-.5-5.3-4.1-10.1-9.6-13zm12.4-7.3l.4 7.9c2.3-.1 4.8 1.7 5.9 4.3 1.1 2.6 1 6-.2 9.5s-3.4 6.9-5.5 10.2l6.6 4.3c2.3-3.5 4.8-7.5 6.4-11.9 1.8-5.4 1.8-10.7 0-15.1-2.4-5.8-7.9-9.6-13.6-9.2zM66 339.8c2.5-2.4 6.3-3.5 9.9-4.7l22.1-6.9-2.4-7.5-22.1 6.9c-4.1 1.3-9.1 2.8-12.9 6.4-4.9 4.5-6.4 10.9-6.8 15.4-1.1 11.7 3.8 23.6 12.8 31.1l5-6c-6.9-5.8-10.9-15.3-10-24.3.5-4.4 2-8.1 4.4-10.4zm-8.5-18.1c5.7-2.4 12-3.8 18.2-5l-1.6-7.7c-6.5 1.4-13.3 2.8-19.7 5.5-7.5 3.2-13.3 7.9-16.9 13.6-4.5 7.1-5.3 15.7-2.1 22.5l7.1-3.3c-2-4.4-1.4-10.2 1.6-15 3.5-5.5 9.2-8.8 13.4-10.6z"/></g></svg>