<svg xmlns="http://www.w3.org/2000/svg" width="512" height="512"><g fill="#585858"><path d="M118.9 197.7c-4.7 4.8-6.3 10.5-4.4 15.9 7.4 21 25 42.6 42 63.5 11.9 14.6 24 29.5 32.5 44.1-2.6 1-5.3 2.2-7.6 4.1-2.9 2.3-5.2 5.9-6 9.8-2.2 1-4.3 2.6-5.9 4.7-3 4-4.2 9.4-3.2 14.2 1.6 7.5 7.9 14.3 16.4 17.7 5.2 2.1 10.8 2.9 16.1 3.3-2.5 5-4.5 8.4-6.6 12-2.7 4.6-5.4 9.4-9.5 17.8-1.7 3.6-4.6 9.7.4 15.8 2.3 2.8 5.8 4.7 9.9 5.3 8.4 1.4 14.7-1.8 20.3-4.6 5.5-2.8 9.8-4.9 15.6-3 3.2 1.1 6.1 3.4 9.1 5.9 1 .8 2 1.6 2.9 2.3 5.1 3.9 9.9 5.8 14.4 5.8 1.2 0 2.4-.1 3.6-.4 5.2-1.3 8.8-5.2 11.9-8.6 2.6-2.8 5-5.4 7.8-6.2 3.8-1.1 8.2 1.1 11.2 3.2 4.1 2.7 12.5 5.8 18.1 7.8l2.5.9c4.6 1.6 9.4.4 12.8-3.2 3.4-3.7 4.2-9 2.2-13.5l-17.3-37.8c3.7-.7 7.3-1.5 10.9-2.6 4.8-1.4 10.4-3.3 14.8-7.1 5.2-4.4 7.8-10.8 6.9-16.8-.9-5.6-5.2-10.2-10.2-11.7.6-2.3.8-4.7.3-7.2-.7-3.6-3.1-6.7-6.8-8.7-1.6-.9-3.3-1.4-5-1.7 12.4-18.5 26.6-35.1 40.4-51.2 12.7-14.8 25.8-30.1 37.1-46.5l1.6-2.3-1.6-2.2c-9.9-14-21.1-27-36.4-26.3-13.9.6-23.9 12.4-32.8 22.8l-1.7 2c-6.4 7.4-18.7 19.1-29.5 14.6-5.4-2.2-9.3-8-13.4-14-5.2-7.5-10.5-15.3-19.6-17.4-8.1-1.8-17 1.8-26.3 10.8l-3.6 3.6c-5 5-9.7 9.7-15.4 11.7-11.2 3.9-23.5-4-31.8-11.4-2.2-1.9-4.3-3.9-6.4-5.9-1.1-1-2.2-2.1-3.3-3.1l-.3-.6-.2.1c-6.9-6.4-14.2-12.4-23.1-15.3-9.7-3.1-25.8 1.4-33.8 9.6zm199.4 217.9c.9 2 .2 3.9-.8 4.9-.6.6-2.1 1.9-4.4 1.1l-2.3-.8c-3.6-1.3-9.1-3.3-13-5.1-2.3-1.4-4-3.5-6.2-6.2-2.9-3.7-5.3-6.8-7.6-10.1-.8-1.1-1.5-2.2-2.2-3.3-1.6-2.5-3.3-5.1-5.4-7.4l-5.8 5.4c1.7 1.8 3.1 4 4.6 6.3l2.4 3.6c1.2 1.7 2.5 3.4 3.8 5.2-1.6-.1-3.3.1-4.8.6-5 1.4-8.4 5.2-11.5 8.5-2.6 2.8-5.1 5.5-8 6.2-3.1.8-6.9-.6-11.3-4-.9-.7-1.8-1.5-2.8-2.2-3.4-2.8-7-5.7-11.6-7.2-2.4-.8-4.6-1.1-6.7-1.1l11-18.5-6.8-4-14.8 25.1c-1.5.6-2.9 1.4-4.3 2-4.9 2.5-9.6 4.8-15.5 3.8-2.2-.4-4-1.3-5.1-2.6-1.6-1.9-1.3-3.5.6-7.4 3.9-8.2 6.4-12.6 9.1-17.2 2.4-4.1 4.9-8.4 8.3-15.5 15.6.8 31.6 1.6 47.4 2 4.3.1 8.8.2 13.5.2 10.3 0 21.1-.4 32-1.9l18.2 39.6zm8.6-71.9c2.6-.4 5.7 2.4 6.1 5.5.6 3.9-1.8 7.5-4.2 9.6-3.3 2.8-7.9 4.4-11.9 5.5-20.5 5.9-42.8 5.9-62 5.4-16.6-.4-33.5-1.3-49.8-2.1-6.6-.3-13.4-.7-19.5-3.1-4.8-1.9-10.4-6.1-11.6-12.1-.6-2.6.1-5.6 1.8-7.9.2-.3.5-.6.9-1 3.6 6.4 13.6 10.6 19.9 11.3 19.8 2 37.7 3 54.8 3 17.6 0 34.2-1.1 50.9-3.2 6.1-.8 13.2-1.9 19.2-5.8 2-1.3 3.8-3 5.4-5.1zM220.5 231.8c7.4-2.6 13-8.2 18.4-13.6 1.2-1.2 2.3-2.3 3.5-3.4 7.3-7 13.8-10 19.2-8.8 6.1 1.3 10.3 7.5 14.8 14.1 4.6 6.7 9.4 13.7 16.9 16.8 7.7 3.2 16.4 1.6 25.3-4.5-12.3 21.5-25.8 42.4-40.4 62.2l6.3 4.7c20-27.2 38.1-56.3 53.6-86.4 6.9-7.7 14.1-14.4 22.6-14.8 10.8-.4 19.8 9.4 28 20.7-10.7 15.2-22.5 29-35.1 43.6-18.5 21.5-37.6 43.7-52.5 70.6l6.9 3.8c2-3.6 4-7 6.1-10.4 2-.4 4.3-.1 6.2.9.9.5 2.5 1.6 2.8 3.3.9 4.6-2.5 9.2-6 11.5-4.6 3-10.6 3.9-15.9 4.6-32.1 4.1-64.2 4.2-103.9.2-4.9-.5-12.5-4.2-14.1-7.6-1.2-2.6.6-6.1 3-8 1.8-1.5 4.1-2.4 6.5-3.2 1.7 3.4 3.2 6.8 4.4 10.1l7.4-2.6c-7.4-21-25-42.6-42-63.5-16.6-20.4-33.7-41.5-40.7-61.2-.9-2.5 0-5.1 2.6-7.8 6-6.1 18.8-9.9 25.8-7.6 7.2 2.4 13.4 7.4 19.6 13.1l33.3 70.6 7.1-3.4-25.2-53.5c12.7 9.9 24.9 13.2 35.5 9.5z"/><path d="M165.2 163.4c-.3.3-.7.8-1.3 1.4-1.6 1.7-3.9 4.4-5.5 6.4l-2.9 3.6 4 2.3c4 2.2 8.1 4 12.4 5.3 8.9 6.2 23 11.3 37.6 11.3 5 0 10.1-.6 15.1-2 12.5-3.5 21.8-11.7 25.5-22.6l.9-2.7-2.2-1.7c-11.5-8.8-22.1-16.3-35.2-18.8-17.7-3.2-36.2 3.5-48.4 17.5zm4.6 6.8c.6-.7 1.1-1.2 1.4-1.6 10.4-11.9 26-17.6 40.9-14.8 10.5 2 19.7 8.1 29.5 15.5-3.4 7.1-10.2 12.5-19.1 15-7.9 2.2-16.4 2.1-24.4.5 10.5-1.2 20.8-4.9 29.9-11l4.8-3.3-4.8-3.3c-13.8-9.4-32.1-9.7-46.7-.9l4.1 6.7c10-6.1 22.2-6.9 32.5-2.4-15.8 8.2-34.5 9-50.2 1.9.7-.9 1.5-1.7 2.1-2.3zm86.3-2.3l3.3 2.1c6.3 12.6 17.5 21.4 31.7 25.1 4.5 1.2 9.2 1.7 13.8 1.7 11.1 0 22-3.3 30.8-9.7 1.2-.8 2.2-1.6 3.2-2.3 5.6-3.9 9.3-6.5 16.2-17.3l2-3.2-3-2.2c-33.6-24-68-23.2-94.3 2.2l-3.7 3.6zm90.2-1.4c-4.7 6.8-7.3 8.7-12 11.9-1 .7-2.1 1.5-3.3 2.3-10.3 7.5-24.9 10-38 6.7-6.7-1.7-12.6-4.8-17.5-9.1 16.9 6.2 34 4.3 55.7-5.4l6.3-2.8-5.6-4c-17.6-12.5-30.9-10.3-49.3-1.9l3.3 7.2c14-6.4 23.6-8.6 35.2-2.7-20.2 7.8-35.6 7.2-52-2 22-18.7 49.2-18.8 77.2-.2zm-140.7-45.6l3.5 2c3.1 4.2 19.1 23.2 52.9 23.2 3.2 0 6.5-.2 10-.5l-.8-7.8c-15 1.6-26.6-.8-35.3-4.5 6.5 1.4 13.2 2.2 19.9 2.2 11.3 0 22.6-2 33.1-6.2l7.3-2.9-6.6-4.1c-11.9-7.4-35.4-18.4-58.6-7.8l3.2 7.2c15.8-7.2 32.2-2.5 43.5 3.1-19.5 5.3-41.2 3.2-59.4-5.7 11.1-10.1 25.6-15.7 40.6-15.5 17.3.3 33.3 8.1 45.1 21.8l6-5.1c-13.3-15.5-31.4-24.2-50.9-24.6-18.8-.4-37.2 7.5-50.1 21.6l-3.4 3.6z"/></g></svg>