<svg xmlns="http://www.w3.org/2000/svg" width="512" height="512"><g fill="#585858"><path d="M455.3 417.9c.1-11.8.5-25 .9-39 1.1-38.2 2.5-81.4-2.8-109.4-1.6-8.3-7.2-15.4-15.1-19-6.4-2.9-12.9-6.2-19.2-9.4-9.7-4.8-19.8-9.9-29.5-13.7-4.8-2.4-5.9-6.7-4.2-16.5l-.3-4.6c-1.7-5.4-8-8-11.7-9.5l-1.4-.6c-.9-.4-1.9-.6-2.8-1 .2-.6.4-1.1.6-1.7.4.1.9.2 1.4.3.3 0 .7.1 1 .1 3.6 0 7.1-1.8 9.7-5 2.2-2.8 3.3-5.9 4.3-8.7l3.6-10c.6-1.8 1.4-3.9 1.6-6.2.2-3.1-.7-6-2.6-8-.7-.8-1.7-1.4-2.7-1.9 2.9-1.7 5.1-4.3 6.5-7.5 5.2-12-2.1-29.8-3.6-33.2-5.9-13.4-16.8-24.5-30.2-30.4-8.7-3.8-18.8-5.7-30.2-5.7-1.8 0-3.6 0-5.4.1-11.9.6-21.5 3.5-29.1 8.9-3.5 2.4-6.9 3.8-10.2 5.2-6.1 2.4-12.4 5-17.7 13.7-7.7 12.6-9.4 28.6-4.4 41.9 1.2 3.3 2.6 5.9 4 7.9-3.1.4-5.8 2-7.2 4.6-.9 1.6-1 3.3-1.1 4.7-.1 1.7-.1 3.8.7 6 .7 2 2 3.7 3 5l7.7 10c1.9 2.5 5.2 6.7 10.2 7.5.6.1 1.1.1 1.6.1.9 0 1.8-.2 2.6-.4.4 1 .9 2 1.3 3.1-2.2.9-4.3 2-6.2 3.5-.5.4-1.1.7-1.6 1.1-1.7 1-4.2 2.5-5.4 5.4l-1.5 4.8c-.3 4.2-.3 10.3-.4 14.4-3 1.7-6.2 3.1-9.4 4.5-1.1-24.1-2.4-48.7-5.7-64.8-6.8-33-19.6-56.8-37.8-70.5C202 82.8 182.3 76.8 160 76.8c-3.6 0-7.2.2-10.8.5-24.4 2-44.6 11.6-57 26.8-11.5 14.2-19.3 33-23.1 55.8-3.6 21.5-7.1 60.7-6.9 94.7-4 4.8-7.2 10.4-9.6 17.2-7.4 20.5-4.6 42.4-2 63.6.5 4 1 8 1.4 11.8 3 28.2 4.3 50.3 4.3 70.7H17.9v7.9h476.2v-7.9h-38.8zm-84.9-213.8c2 .8 3.5 1.5 4.7 2.2h-10.5l.6 4.4c.6 4.8.9 9.6.9 14.4h-8.8c.1-2.1 0-4.3-.2-6.5-.1-.9-.4-1.7-.8-2.4 1.9-2 3.7-4 5.3-6.3 1.7-2.5 3.1-5 4.4-7.5.9.3 1.9.6 2.8 1l1.6.7zm12-36.4l-3.6 10c-.8 2.3-1.7 4.7-3.1 6.4-1.1 1.4-2.5 2.2-3.7 2.1 1.9-7.8 2.6-15.4 3-22.1 1.2-.9 2.5-1.7 3.9-2.2 1.8-.7 3.7-.7 4.3-.1.3.3.5 1.1.4 1.9-.1 1.1-.7 2.5-1.2 4zm-101.9 17.4c-1.8-.3-3.6-2.4-5.2-4.6l-7.7-10c-.7-.9-1.5-1.9-1.8-2.8-.2-.7-.3-1.6-.2-3 0-.9.1-1.2.2-1.4 0-.1.5-.4 1.1-.4.9-.1 1.9.2 3.2.9 2.7 1.4 5 3.4 6.7 5.9.7 4.8 1.9 9.9 3.7 15.4zm-6.1-32.7c-.2 0-2.4-.4-5.2-7.9-4.1-11.1-2.7-24.5 3.7-35.1 4-6.5 8.3-8.2 13.9-10.5 3.5-1.4 7.6-3 11.8-6 6.4-4.5 14.5-6.9 25-7.5 1.7-.1 3.3-.1 5-.1 10.2 0 19.3 1.7 27 5.1 11.6 5.1 21.1 14.7 26.2 26.3 3.8 8.7 6.4 20.4 3.5 27-1 2.3-2.6 3.7-4.9 4.6-2 .7-4.6 1.1-7.6 1.1-12.9 0-30.9-6.8-37.6-9.4-11.4-4.4-27.2-12.8-37.5-28.2l-6.6-9.9-.6 11.9c-.6 14.8-11.4 38.6-16.1 38.6zm8.8 3.1c6.7-7.4 11.4-21.7 13.7-31.9 11 12.5 25 19.8 35.6 23.8 10.4 4 23.4 8.4 34.9 9.6v.6c-.5 10.7-1 23.2-5.8 35.6l-3.4 7.3c-.9 1.7-2 3.5-3.1 5.2-2 2.9-4.4 5.4-7 7.6-4.4 1.4-8.6 3.4-12.7 5.3-2.1 1-4.2 2-6.3 2.9-.6.1-1.1.1-1.7.1-2.2-.9-4.3-1.9-6.5-3-4.2-2-8.5-4.1-13.1-5.5-1-.3-2-.4-3-.2-1.5-1.6-3-3.3-4.3-5.2-1.5-2.3-2.9-4.6-4.2-6.9l-3.8-7.3c-1.4-2.9-2.6-5.7-3.6-8.5-.1-1.1-.4-2.2-1-3.1-3.5-10.3-4.6-19.2-4.7-26.4zm65.9 81.3l-2.6 1.9-12.5-7.4c-.1 0-.2-.1-.2-.2.3-.8.4-1.7.4-2.6 5.4-1.2 10.6-3.3 15.2-6.5.1 2.2 0 4.4-.2 6.8-.1 2.7-.2 5.4-.1 8zm-42.1-7.9c-.1-1.5-.2-3-.2-4.4 4.6 2.7 9.7 4.3 15.2 4.8 0 .5.2 1 .3 1.5l-12.7 7.8-2.5-1.9c.2-2.5.1-5.2-.1-7.8zM281 207c.9-.5 1.8-1.1 2.5-1.7 1.4-1.1 3.1-2 4.8-2.6 1.7 3.1 3.5 6.2 5.6 9.3 1.6 2.4 3.4 4.6 5.4 6.5 0 .1 0 .2-.1.2-.1.9-.2 1.9-.2 2.9h-4.5c-1.1.1-2.6.1-4.2.2-.4 0-.8 0-1.2.1 0-2.2.1-4.5.3-6.7 0-5.3-5-7-9.2-7.8.2-.1.5-.2.8-.4zM76.9 161.2c3.6-21.5 10.8-39 21.5-52.1 11.1-13.6 29.4-22.1 51.6-24 3.4-.3 6.8-.4 10.2-.4 14.3 0 35 2.7 52 15.6 16.6 12.6 28.3 34.7 34.8 65.9 3.3 15.9 4.6 42.2 5.7 65.5v.7c-2.6 1-5.2 1.9-7.8 2.8-1.7.6-3.4 1.2-5 1.8-4.5-1.7-9.4-2.9-14.6-3.6-1.1-.7-2.3-1.2-3.6-1.5-.9-.2-1.8-.3-2.6-.4-1-.2-1.9-.1-2.8-.1 1.9-3.9 3.7-7.9 5.7-11.7 7.4-15 15-30.5 16.2-47.7 1.8-24.5-10.8-49.4-31.3-61.9-15.4-9.4-34.8-13.2-60.5-11.7-13.1.7-23.7 4.1-31.6 9.7-9.7 7-17 17.9-20 29.9-.4 1.8-.9 3.6-1.4 5.5-4 15.5-9 34.8-1.9 49 1.6 3.2 3.9 6.8 6.3 10.6 5.4 8.5 12.2 19.1 12.3 27.7 0 1.9.7 3.5 1.9 4.8-1.4-.1-2.8.2-3.9.4-.6.1-1.2.3-1.8.3h-.9c-1 0-2.4 0-3.9.5-13 1-23.3 4.4-31.5 10.3.3-31.5 3.6-66.2 6.9-85.9zm125 36.9c1.4-11.7-1.9-32.3-11.7-40.7-7.7-6.5-15.3-7.9-24.8-9.6-3.2-.6-6.6-1.2-10.5-2.1-10-2.3-15.8-9.3-20.6-16.5l-3.5-5.3-3.2 5.5c-6.7 11.8-10.3 21.6-11.8 33.1-.3 2.6.1 5.8 1 9.6.9 5.8 2.6 11.6 4.8 17.3 0 .1.1.2.1.4 2.9 10.7 1.1 26.7-4.1 38.4-1.1-10-7.6-20-13.3-29.1-2.3-3.7-4.5-7.1-5.9-9.9-5.8-11.6-1.2-29.3 2.5-43.5.5-1.9 1-3.8 1.4-5.6 2.5-10.1 8.9-19.6 17-25.5 6.7-4.8 15.9-7.6 27.4-8.2 24.1-1.4 42.1 2 56 10.5 18.1 11.1 29.1 33 27.6 54.7-1.1 15.6-8.1 29.8-15.4 44.8-2.4 5-4.9 10.1-7.2 15.2l-3 7.3c-.1.4-.3.7-.4 1.1-.5 1.3-.9 2.5-1.3 3.8-.3-1.8-.6-3.7-.9-5.7l-1.1-9.3v-.3c-1.2-11.1-.1-22.1.9-30.4zm-8.1 1.5c-.6 5.1-1.1 11-1.2 17.3-1.1-3-1.9-6.5-2.7-10.5 1.5-2.4 2.8-4.6 3.9-6.8zm-6.3-5.1c-1.2 3.3-6 9.9-6 9.9-5.6 6.9-14.2 11.3-22.8 11.3h-.2c-8.3 0-15.6-4.1-20.4-11.5-.6-.9-1.2-1.9-1.8-2.8l-4.5-8.2c-1-2.1-1.9-4.2-2.8-6.3-.6-2.3-1.3-4.6-1.9-6.7-1-3.5-2-6.8-2.6-9.6-.4-2.5-.7-5-.8-7.4 1.1-8.4 3.5-16 7.8-24.4 5 6.4 11.6 12.3 21.6 14.6 4 .9 7.6 1.6 10.8 2.2 9.1 1.7 15.1 2.8 21.2 7.9 3.3 2.8 5.7 7.9 7.2 13.5h-.2c-.6 5.3-1.7 11.1-4.6 17.5zm26.1 48.5c0-.7 0-1.6.2-2.3 0-.2.1-.4.2-.5 0-.1.1-.2.2-.2l.2-.2.1-.1c.7-.3 1.9-.5 3.3-.3.7.1 1.4.2 2.1.4.6.1 1.1.4 1.5.8.2.2.4.4.5.7 0 .1.1.3.2.4.1.4.2.7.2 1.1v.2c0 .6-.1 1.1-.1 1.7-3.1 1.7-5.9 3.6-8.6 5.7h-.1l.1-7.4zM111 244.9v42c-2.6-.1-5.2.2-7.5.5.2-5.8.3-11.1.4-16.3 0-3.9.1-7.6.2-11.5l.3-7.9c.1-1.8.2-3.6.4-5.5l.1-1.6v-.2h1.7c.9 0 2-.2 3-.4.4-.1 1-.2 1.4-.3v1.2zM95.1 417.8l-30.9.1c0-20.7-1.4-43.1-4.4-71.6-.4-3.9-.9-7.9-1.4-11.9-2.5-20.3-5.2-41.3 1.6-60 2-5.7 4.8-10.4 8.1-14.4 0 0 6.1-6.5 9.2-8 5.4-3.3 11.8-5.6 19.6-6.7v.2l-.1 1.6c-.1 1.6-.2 3.1-.3 4.6l-.6 7.9c-.7 10.2-1.4 20.4-1.9 30.2-.1 0-.2.1-.3.2-.3.1-.6.2-.8.4-.4.2-.7.4-1.1.6l-1.2.6c-.4.2-.7.5-1.1.7-.3.2-.7.5-1 .7-.2.2-.5.3-.7.5-.5.4-1 .9-1.5 1.4-.2.2-.5.4-.7.7l-.2.2c-.7.8-1.5 1.7-2 2.7l-.3.6c-4.5 7.9-.3 20.3 3.5 31.3 1.2 3.5 2.3 6.7 2.8 9.1 0 .3.1.6.2.9 1.4 6.3 2.7 12.6 3.9 19 1.7 18.2 2.3 37.4 1.6 58.4zm7.8.1c.1-3.5.2-7 .3-10.4.9 3.5 1.8 6.9 2.8 10.4h-3.1zm11.1-.3c-4.8-16-7.9-32.9-10.9-49.2-.6-3.4-1.3-6.8-1.9-10.3v-.2c-1.4-7.5-2.6-13.7-3.9-19.2-.1-.3-.1-.6-.2-.9-.6-2.8-1.8-6.2-3.1-9.8-2.8-8.1-7-20.4-4-25.2.1-.2.2-.3.3-.4.4-.6.9-1.2 1.4-1.7.3-.3.7-.6 1.1-.9.4-.3.7-.6 1.1-.8l1.5-.9c.3-.2.6-.4.9-.5.9-.4 1.8-.7 2.8-1 .2-.1.3-.1.5-.2h.2c.6-.2 1.1-.3 1.7-.4.2 0 .3-.1.5-.1 2.6-.5 5.1-.6 7.1-.6s4 .2 6 .4c.4.1.8.1 1.2.2.7.1 1.4.3 2.1.4.4.1.7.1 1.1.2.9.2 1.9.4 2.8.7.6.2 1.1.3 1.7.5.4.1.7.2 1.1.4.6.2 1.1.4 1.7.6.4.2.7.3 1 .4l1.5.6c.4.2.7.4 1.1.6l1.2.6c.4.3.9.6 1.3.8.2.2.5.3.7.5.8.6 1.6 1.3 2.4 2 .9.8 1.8 1.7 2.8 2.7 1.5 1.5 3.1 3.1 4.8 4.5.2.2.5.3.7.5.7.5 1.3 1.1 2.1 1.5.4.3 1 .6 1.5.8.5.3 1 .6 1.6.9h.1c1 .4 2 .8 3.1 1.1.3 0 .5.1.8.2 3.1.8 6.5 1.3 10.2 1.3 7.2 0 14.8-1.6 20.3-4.2 2.2-1.1 4.3-2.4 6.3-3.9 3.5-2.5 6.8-5.3 10-8.1-1.3 22.9-.9 51.9-.2 84.3.2 11.5.5 22.4.6 31.9l-86.7-.1zm91.3-154.1c-2.2 6.8-3.7 15.7-4.7 26.3l-.1.1c-.2.1-.3.3-.5.4-.2.2-.5.4-.7.6-1.1 1-2.3 2-3.4 3-.3.2-.6.5-.8.7-2.8 2.5-5.5 4.8-8.2 6.9-2.2 1.7-4.5 3.3-6.9 4.4-1.1.5-2.2 1-3.5 1.4-.2.1-.4.1-.7.2l-3.3.9c-.2 0-.5.1-.8.2-1.2.2-2.4.4-3.7.6-.2 0-.4.1-.6.1-1.4.2-2.9.2-4.3.2-.9 0-1.7 0-2.5-.1h-1c-.7-.1-1.3-.2-2-.2l-1.5-.3c-.5-.1-1-.2-1.5-.4-1-.2-1.9-.6-2.8-.9l-1.2-.6c-.3-.2-.7-.4-1-.6-.5-.3-1-.7-1.5-1.1-.2-.2-.4-.3-.6-.4-1.3-1.1-2.6-2.4-3.9-3.7-.9-.9-1.9-1.9-2.9-2.8-1-.9-2-1.8-3.2-2.7-.2-.2-.5-.3-.7-.5-.6-.4-1.1-.7-1.8-1.1-.3-.2-.6-.3-.8-.4l-.1-.1c-.2-.1-.5-.3-.7-.4-.5-.2-1-.5-1.5-.7l-.6-.3c-.6-.3-1.3-.6-1.9-.8-.3-.1-.6-.2-.8-.3-.2-.1-.3-.1-.4-.2h-.1c-1.3-.5-2.7-.9-4.1-1.3h-.1c-1.6-.5-3.2-.8-4.9-1.1-.2 0-.3-.1-.5-.1v-43.2c0-.6 0-1.5-.1-2.4 13.9-4.8 15.6-16.9 16.5-29.1 6.1 6.6 14.1 10.2 23.1 10.2h.2c9.1 0 17.9-3.6 24.8-9.7 1.9 7.6 4.7 14.2 9.9 19 .7 6.8 1.7 12.8 2.9 17.8 0 0 2 7.6 7 7.8h2.2c.4 1.3.4 3.1.3 4.7zM316 417.9h-50.9l-7.9-1.1-15.2.4c-.6-21.2-.6-65.7 0-95.5l.7-22.6-3.9.4-4-.2-.6 118-4.4.1-7.8.2v.2h-6l-7.8-1.3c0-9.4-.3-20.2-.5-31.5-.6-27.9-1.4-64.2.7-91.2 1.3-15.5 3.3-24.4 5-29.4v-.1c.2-.4.3-.8.5-1.2.1-.3.2-.6.3-.8.2-.5.4-.9.6-1.3 0-.1.1-.2.2-.3.5-.9 1.1-1.7 1.6-2.4l.1-.1.1-.1c2.7-3.1 13.1-8.6 13.1-8.6 3.1-1.5 6.4-2.8 9.8-4.1l21.3-7.9c5.1-2.1 10.2-4.4 15-7.3l1.9-1.1v-2.2c0-2.6 0-7.1.1-11.3.6-.1 1.1-.3 1.6-.5.8.2 1.7.4 2.2.6-.6 10-.2 19.5 1 29v7.4l3.8 13c2.7 11.3 6.2 22.5 9.9 33.8l18.3 62.6c.8 4 1.5 8.1 2.1 12.2l-.9 44.2zm15.7 0h-7.9l.7-49.9-2.4-8.1c-3.7-18.7-9.6-36.5-15.4-53.8-1-3.1-2-6.2-3.1-9.3l-9.6-33.1c-1.5-6.5-2.8-12.9-3.7-19.5v-14.4h.3c1.6-.1 3.2-.2 4.1-.2h3.9l.5 9-.3 1.9 10.2 7.6.2.2 2.2-1.3c5.8-2.8 11.4-6.2 16.6-10l.8.5c5 3.7 10.4 6.8 16 9.5l2.2 1.3 10-7.5.3-.2-.2-2 .1-5.4h7.8v10.7c-.6 5.4-1.5 10.8-2.6 16.2l-18.7 64.2c-2.9 9.1-5.7 18.2-8 27.5L331 368l.7 49.9zm116.7-39.2c-.4 14.1-.8 27.3-.9 39.2h-26.1c.8-27.5.5-95.7-.6-118.5l-7.9.4c1.1 22.8 1.4 91 .6 118.2h-73.9l-.7-43.9c1.2-6.8 2.7-13.6 4.4-20.4l7.9-27.1c1.3-4.2 2.7-8.3 4-12.4 5.5-16.8 11-34 14.6-51.5l2.9-9.8v-8.1c1.1-10 1.5-20.2.6-30.5h3.5c-.7 6.6-.1 15.6 9.4 20.4 9.7 3.9 19.6 8.8 29.2 13.6 6.4 3.2 13 6.5 19.5 9.5 5.6 2.6 9.5 7.5 10.6 13.3 5.3 27 4 69.8 2.9 107.6z"/><path d="M333.8 281.5c-1.7-.8-3.4-.9-4.5-.8-2.1 0-5.7 0-8.4 2.3-4 3.3-3.8 8.9-2.2 13 .3.7.6 1.5 1.3 2.3.8.9 2.2 2.1 4.8 2.4.4.1.9.1 1.3.1 5.7 0 10.8-4.5 11.7-10.2.7-3.9-1-7.6-4-9.1zm-7.7 11.4h-.1c-.6-1.8-.6-3.4 0-3.8.6-.5 2.4-.5 3.4-.5h.7v.8c-.3 1.8-2.2 3.5-4 3.5zm11.8 23.4c.6-3.9-1-7.5-4.1-9-1.6-.8-3.3-.8-4.4-.8-2.1 0-5.7 0-8.4 2.3-3.4 2.8-4.2 7.8-2.2 13 .3.7.6 1.5 1.3 2.3.8.9 2.2 2.1 4.8 2.4.4.1.9.1 1.3.1 5.6-.1 10.8-4.6 11.7-10.3zm-11.8 2.4h-.1c-.6-1.8-.5-3.4 0-3.8.6-.5 2.4-.5 3.4-.5h.7v.8c-.3 1.8-2.2 3.5-4 3.5zm-5.7-48.2c1.9 1.4 4.1 2.1 6.6 2.1 3.8 0 7.5-1.7 9.7-4.7 2.4-3.1 2.8-7.1.8-9.9-1.1-1.5-2.5-2.3-3.5-2.9-2.5-1.4-5.3-2.7-8.5-2.1-4.3.8-7.4 4.8-8.2 10.3-.1.7-.2 1.7 0 2.7.3 1.3 1 3 3.1 4.5zm6.8-9.6c.8 0 2.2.8 3.1 1.2l.6.3c-.1.2-.2.4-.4.7-.8 1-2.1 1.6-3.5 1.6-.5 0-1.1-.1-1.8-.5.3-1.8 1.2-3.2 2-3.3zm-110.8-2.4c-.5.6-1.1 1.4-1.6 2.4.7-1.4 1.2-2.1 1.6-2.4z"/></g></svg>