<svg xmlns="http://www.w3.org/2000/svg" width="512" height="512"><g fill="#585858"><path d="M401 236.1c-.7-3.5-1.5-6.9-2.3-10.4-8.1-33.7-20.5-60.3-37.8-81.4-23.3-28.4-61.9-44.7-106-44.7-17.2 0-35 2.5-51.2 7.4-20.1 5.9-47.8 18.7-65.6 46-16.6 25.4-23.9 58.3-26.8 75.6-4.3 25.7-11.5 77.9-11 139 .1 6.6 5.5 12.1 12.2 12.1 1.1 0 2.3-.2 3.4-.5 4.9-1.4 11.3-1.1 17.2.8 5.1 1.6 9.8 4 14.9 6.6 4.7 2.4 9.6 4.9 14.8 6.7 10.4 3.6 21.8 4.4 32.6 2.1 6.6-1.3 13-3.8 19.1-6.1 10.2-3.9 19.7-7.5 29.5-6.3 7.9 1 15.1 5 22.7 9.3 7.2 4.1 14.7 8.3 23.3 9.9 2.7.5 5.4.8 8.2.8 12.9 0 25.3-5.4 37.3-10.7 11.7-5.2 22.8-10 34.1-10 2.3 0 4.6.2 6.8.6 2.2.4 4.4 1.4 6.8 2.4 3.7 1.6 7.4 3.2 11.7 3.2.5 0 1 0 1.9-.1 9-1 15.6-9.2 15-18.5-.7-11.3-1.2-23.1-1.8-35-1.8-35.9-3.6-73-9-98.8zm-5.4 144.5c-3 .3-6.1-1.1-9.5-2.5-2.6-1.1-5.4-2.3-8.4-2.9-2.7-.5-5.4-.8-8.3-.8-12.9 0-25.3 5.4-37.3 10.7-11.7 5.1-22.8 10-34.1 10-2.3 0-4.6-.2-6.7-.6-7.3-1.4-13.9-5.1-20.9-9.1-7.9-4.5-16.1-9.1-25.6-10.3-1.6-.2-3.2-.3-4.8-.3-10 0-19.4 3.6-28.5 7.1-5.9 2.2-11.9 4.6-17.9 5.8-9.4 1.9-19.3 1.3-28.4-1.9-4.7-1.6-9.1-3.9-13.8-6.2-5.1-2.6-10.4-5.3-16.1-7.1-7.4-2.4-15.4-2.7-21.8-.9-2.7.8-5.5-1.3-5.5-4.1-.5-60.6 6.6-112.3 10.9-137.7 2.8-16.7 9.9-48.4 25.7-72.6 16.5-25.3 42.4-37.2 61.2-42.8 15.6-4.6 32.5-7 49-7 41.7 0 78.2 15.2 99.9 41.8 16.5 20.2 28.3 45.8 36.2 78.3.8 3.4 1.6 6.7 2.3 10.1 5.2 25.2 7 62 8.7 97.6.6 11.9 1.1 23.8 1.8 35.1.4 5.2-3.2 9.7-8.1 10.3z"/><path d="M326.1 151.2c-20.5-12.6-46.1-18.7-78.2-18.7-5.3 0-10.8.2-16.5.5-20.3 1.2-36.7 6.2-48.8 15-15 10.9-26.3 27.7-30.9 46.2-.7 2.8-1.5 5.7-2.2 8.7-6.3 24.2-14.1 54.3-3.2 76.2 2.5 5 6.1 10.6 9.9 16.7 9.2 14.5 19.7 30.9 19.9 45.2 0 5 4 8.9 9.1 8.9 3.4 0 6.4-1.8 8-4.9 7.3-14.2 11.4-32.5 11.6-49.2 1.6 2.8 3.3 5.5 5.1 8.3 9.6 14.6 24.1 22.7 40.9 22.8h.3c18.4 0 36.4-9.7 47.1-25.5 5.7-8.5 9.4-16.5 11.8-24 .1 3.7 0 7.1-.4 10.1-1.7 13.7-3.4 31.8-1.8 50.2 1.2 13.4 3 24.9 5.3 34.3.9 3.8 4.2 6.4 8.2 6.4 4.3 0 7.8-3.1 8.3-7.3.5-4.1 1.5-8.3 3.1-12.4 4.6-12.4 10.7-24.7 16.5-36.5 11.6-23.6 23.6-48 25.5-74.8 2.7-38.1-16.8-76.7-48.6-96.2zm-19.5 104.2c-1.5 12.3-4.3 25.8-14.9 41.5-9.3 13.7-24.9 22.1-40.8 22-14-.1-26.2-6.9-34.3-19.3-6-9.1-10.8-18.4-14.5-27.9-1-3.7-2.1-7.3-3.1-10.8-1.6-5.5-3.2-10.9-4.2-15.6-.7-4.1-1.2-8.2-1.4-12.2 2-14.8 6.3-28 14.3-42.9 7.9 10.9 18.5 21.4 35.2 25.2 6.3 1.5 12 2.5 17.1 3.4 14.8 2.7 24.5 4.5 34.6 13 5.7 4.8 9.8 13.7 12.3 23.5l-.3.1zm60.2-8.6c-1.8 25.3-12.9 47.9-24.7 71.9-5.9 12.1-12 24.5-16.8 37.3-1.8 4.7-2.9 9.5-3.5 14.2 0 .2 0 .4-.5.4-.4 0-.5-.2-.5-.4-2.2-9-4-20.1-5.1-33.1-1.5-17.7.1-35.2 1.7-48.6 2.2-18-2.8-49.8-17.8-62.5-11.7-9.9-23.5-12.1-38.3-14.7-5-.9-10.6-1.9-16.7-3.3-16.6-3.8-26.2-15.3-34-27.2l-3.5-5.3-3.2 5.5c-10.6 18.4-16.1 33.8-18.4 51.6-.5 3.9.2 8.7 1.5 14.5 1.5 9.1 4 18.2 7.5 27.2.1.2.1.4.2.6 5.1 18.6 1.4 47.2-8.5 66.5-.2.3-.4.6-1 .6-.1 0-1.2 0-1.2-1.1-.2-16.6-11.3-34-21.1-49.3-3.7-5.8-7.2-11.3-9.5-15.9-9.6-19.3-2.2-47.8 3.7-70.7.8-3 1.6-6 2.3-8.8 4.1-16.5 14.5-32.1 27.8-41.7 10.9-7.9 25.9-12.4 44.7-13.5 5.6-.3 11-.5 16.1-.5 30.5 0 54.8 5.7 74 17.5 29.4 17.9 47.4 53.6 44.8 88.8z"/></g></svg>