<svg xmlns="http://www.w3.org/2000/svg" width="512" height="512"><path fill="#585858" d="M168.3 422.1c19.2 0 37.6.1 55.8.1 71.8 0 138.9-.5 233.7-3.1l-.2-7.9c-17.5.5-34 .9-49.8 1.2-1.4-21.9-2.8-42.3-4.2-62.5-1.2-17.6-2.4-35.2-3.6-53.9-.6-9-8.1-16.1-17.2-16.2-6 0-11.9 0-17.8-.1-1.6-12.1-3.1-24.2-4.5-35.9-1.6-13.5-3.3-27.5-5.2-41.6-.4-3-1-7.2-3.5-10.5-4.4-5.7-12.2-6.2-16.5-6.5-28.1-1.9-56.3-2.9-84.6-3.1v-28.5c3.5-3 6.5-6.4 9.4-9.8 5.8-6.7 11.7-13.6 15.9-21.9 2.4-4.8 4-9.7 4.6-14.4 3.5-1.8 6.9-3.6 10.4-5.5.7 1.6 1.4 3.2 1.8 4.4l.6 1c1.1 1.4 2.8 2.3 4.7 2.3 1.4 0 2.8-.5 3.9-1.3 1.8-1.3 2.6-3.2 3.2-4.4l8.5-19.2-5.2-.7c-2.1-.3-5.7-.6-9.4-.8-3.5-.3-6.9-.5-8.9-.8h-.6l-2.4.1-1.2 1.8c-1.4 2.3-.7 4.8 1.9 10.4-2.3 1.3-4.6 2.7-7 3.9-.2-1.7-.4-3.3-.9-4.9-1.5-5.5-4.6-9.3-8.6-10.9-4.3-1.7-9.4-.7-14.7 2.8-4.5 3-7.3 6.7-9.3 10.2-.6-1.3-1.3-2.5-2.2-3.9-3-5-10.6-10.4-17-9.9-6.8.5-12.9 6.2-14.8 13.7-1.8 7 1.2 15.7 3.1 20.3 1.4 3.2 2.8 6.2 4.3 9.1-1.8.7-3.6 1.4-5.4 2.2l-1.5-.2c-1.4-.2-3-.9-4.6-1.7-2.4-1.2-5.2-2.5-8.6-2.5-3.2 0-5.9 1.3-8.1 2.3l-26 12.1 5.2 4c4.2 3.2 9 5.8 14.1 7.6-1.7 4.6-2.9 9.4-3.8 14.3l-1.8 10.6 8.2-6.8c6.1-5.1 12.9-9.4 20.2-12.7l1.6-.7 5.8-17.7c2.8-1.3 5.7-2.5 8.5-3.6 4.8 8 10.5 15.5 17.8 23.4l.5.5v26c-28.8-.1-57.7.7-86.3 2.4-7.9.5-14.4 6.8-15 14.8l-6.3 80.3c-4.5 0-9-.1-13.4-.1-9.5.1-17.1 7.2-17.4 16.6l-1 30.5-.5.1c.1.7.3 1.5.5 2.3l-2.9 85.1H64.1v7.9c38.6-.2 72.6-.1 104.2-.1zm14.1-283.3l13.6-6.3c1.6-.8 3.4-1.6 4.8-1.6 1.3 0 2.7.6 4.3 1.4-5.4 2.7-11.1 5.7-17 9-2-.7-3.9-1.5-5.7-2.5zm21.5 9.1c-4 1.9-7.8 4-11.5 6.4.7-2.1 1.5-4.2 2.3-6.3l.7-1.8c3.7-2 7.3-4 10.8-5.7l-2.3 7.4zm94.5-56.6c1.2.1 2.5.2 3.7.3l-3.6 8.1c-.6-1.5-1.4-3-2.1-4.5-.6-1.2-1.3-2.7-1.9-4.1 1.3 0 2.6.1 3.9.2zm-74.7 21.8c-2.6-6.1-3.6-11.8-2.8-15.2.9-3.6 3.9-7.5 8.1-7.8 2.8 0 7.5 3 9.3 6.1 1.6 2.6 2.5 4.4 3.3 7 .8 2.4 2.9 4 5.4 4 2.3 0 4.3-1.4 5.2-3.5 2.3-5.4 4.8-8.7 8.6-11.3 3-2 5.6-2.8 7.5-2.1 2.3.9 3.5 4.3 3.9 5.7.6 2.1.8 4.3.8 6.6-8.7 4.2-17.5 7.9-26.6 11.1l2.6 7.4c7.6-2.6 15.1-5.7 22.5-9.1-.7 2.1-1.5 4.3-2.6 6.5-3.7 7.4-9.4 13.9-14.8 20.3-2.7 3.1-5.4 6.2-8.4 8.9-9.9-11.2-16.4-21.4-22-34.6zM157 192.5c59-3.5 118.8-3.3 177.7.7 4.1.3 8.7.8 10.7 3.4 1.3 1.7 1.7 4.4 2 6.8 1.6 11.9 3.1 23.6 4.4 35.2-3.7-1-7.2-3.9-9.5-7.1-1.8-2.5-3.4-5.3-4.9-8.3-2-3.7-4.1-7.6-6.9-11-5.8-7-16.4-11.7-24.8-6.8-6.9 4-8.7 12.2-10.1 18.8l-.2 1.1c-.7 3.3-3 11.1-8 11.7-3.7.5-7.2-3.3-9-7-1-2.1-1.7-4.3-2.4-6.7-1-3.2-2-6.4-3.8-9.6-3.6-6.3-11.4-11.6-18.8-8.9-7.6 2.8-9 10.4-10.3 17.1-.5 2.8-1 5.4-1.9 7.5-2.1 5.4-7.9 9.2-13.6 9-5.8-.2-11.3-4.3-13-9.9-.6-1.7-.9-3.6-1.2-5.7-1-6-2.3-13.6-11.1-16.7-7.3-2.6-16.1 0-20.9 6.3-2.9 3.8-4.5 8-6 12.1-.6 1.7-1.3 3.5-2 5.1-1.2 2.6-4.5 8.8-9.7 9.5-4.2.5-8.2-2.9-10.2-6.3-3.1-5.4-4.9-10.1-5.5-14.5l1.5-18.6c.2-3.8 3.5-7 7.5-7.2zm-10.5 44.4c0 .1 0 .1.1.2 3.1 5.3 9.1 10.3 16.1 10.3.6 0 1.3 0 1.9-.1 8.8-1.1 13.7-9.3 15.9-14.1.8-1.8 1.5-3.7 2.2-5.6 1.4-3.7 2.7-7.3 4.9-10.1 2.7-3.6 7.9-5.1 12-3.7 4.3 1.5 5 4.7 6 10.6.4 2.2.8 4.5 1.5 6.7 2.7 8.6 11.3 15.1 20.3 15.4 9 .3 17.9-5.6 21.2-14 1.1-2.9 1.7-5.9 2.3-8.9 1.2-6.2 2.1-10 5.3-11.2 3.2-1.2 7.3 1.9 9.2 5.3 1.4 2.4 2.2 5.2 3.1 8.1.8 2.5 1.6 5.1 2.8 7.7 3 6.4 9.5 12.5 17.1 11.5 7.1-.9 12.3-7.3 14.7-17.8l.2-1.1c1.2-5.6 2.5-11.4 6.4-13.7 4.5-2.6 11 .5 14.7 5 2.4 2.8 4.1 6.2 6 9.7 1.7 3.1 3.4 6.3 5.5 9.2 3.9 5.4 10.2 10 16.9 10.6 1.3 10.8 2.6 21.9 4.1 33-28.7-.1-57.2 0-84.9 0-42.2.1-85.7.1-129-.2l3.5-42.8zm-24.9 50.5s.1 0 0 0c50.5.5 101.3.4 150.5.3 36-.1 73.3-.1 110.6 0 4.9 0 9 3.9 9.3 8.8.7 10.6 1.4 20.8 2.1 30.9l-10.7 25.7c-1.5 3.7-4.7 6.5-8.7 7.3-3.7.8-7.3-.2-9.9-2.6-.8-.8-1.5-1.6-2.1-2.4-2.9-4.1-4.6-9.1-6.5-14.3-1.2-3.5-2.5-7.1-4.1-10.6-4.6-9.6-14.8-18.7-26.1-16-13.6 3.3-16.9 19.9-18.7 28.8-1.8 9.2-6.7 19.7-14.7 19.3-8.2-.5-11.6-12.4-12.9-19.5-1.1-6.1-4.6-24.6-19-26.8-13.6-2-22.3 12-25.9 25.7-3.9 15-9 22.1-16 22.5-6.6.3-12.6-6.1-17.9-19.6-6.5-16.4-16.4-24.7-27.1-22.8-10.8 1.9-14.7 12.1-18.1 21.1-2.4 6.4-4.9 12.9-9.6 16.4-7.2 5.4-18.8 1.5-24.6-5.4-6-7.1-8.4-16.8-10.3-25.9l1.1-32c.1-4.9 4.2-8.9 9.3-8.9zm-6.2 72.1c8.3 9.7 24.4 14.7 35.3 6.6 6.5-4.8 9.4-12.5 12.2-19.9 3.6-9.3 6.2-15.1 12.2-16.1 9.5-1.7 16.1 12 18.5 18 2.4 6.1 9.8 24.5 24.7 24.5h1c14.3-.7 20.1-16.5 23.2-28.4 2.6-10 8.7-21.2 17.1-19.9 5.9.9 10 7.6 12.4 20.4 3 16.1 10.2 25.3 20.2 25.9 13 .8 20.3-12.7 22.9-25.6 2.1-10.7 5.2-20.9 12.8-22.7 6.8-1.6 13.8 4.7 17.2 11.8 1.5 3.1 2.6 6.3 3.8 9.7 1.9 5.5 3.9 11.2 7.5 16.3.9 1.3 2 2.5 3.2 3.6 4.6 4.3 10.8 6 17 4.6 6.5-1.4 11.9-6 14.3-12l4.6-11.1c.1 1.8.2 3.6.4 5.4 1.4 20.2 2.8 40.4 4.2 62.2-87.4 1.8-152.6 1.7-231.6 1.6-19 0-38.9-.1-60.1-.1l2.1-62.3c1.2 2.6 2.9 5.1 4.9 7.5z"/></svg>