<svg xmlns="http://www.w3.org/2000/svg" width="512" height="512"><g fill="#585858"><path d="M93 390.3c3.2 3.3 7.5 5.1 12.1 5.2 11.9.1 24.2.2 36.8.2 37 0 77.1-.4 115.9-.8 38.2-.4 77.7-.8 113.7-.8 11.8 0 23.3 0 34.6.1 4.6 0 8.9-1.8 12.1-5.1 3.2-3.3 5-7.7 4.9-12.3-.5-28.2-.1-57.8.3-86.3.4-29.3.9-59.5.3-88.4-.2-9.2-7.5-16.6-16.8-16.7-5.1-.1-10.3-.1-15.6-.2l.8-13.1-3.8-.4c-14.7-1.4-29.6-2.1-44.3-2.1h-3l-.9 2.6c-1.5 4.1-2.3 8.5-2.3 12.9-7.1 0-14.4.1-21.9.1l-2.5-27.8-17.9-19.1c-3.3-3.5-7.9-5.5-12.7-5.5h-27.2l-21.9-.4c-4.6 0-8.8 1.7-12 4.8-8.9 8.6-23.2 25.8-23.8 26.5l-.8.9-2.5 21.3h-5.7c0-1.6-.1-3-.1-4.3-.1-2.4-.1-4.7 0-8.6l.1-4.2-73.8 2.2-.3 3.5c-.3 3.6-.3 5.5-.4 7.5 0 1.1-.1 2.3-.2 3.7-1.9 0-3.7 0-5.4-.1-4.7 0-9.3 2-12.5 5.4-3.2 3.5-4.8 8-4.5 12.7.1 1.3.1 2.7.1 4.4l-3.8 169.8c0 4.8 1.7 9.1 4.9 12.4zm312.9-3.9c-11.1-.1-22.6-.1-34.5-.1-36 0-75.5.4-113.7.8-38.8.4-78.9.8-115.8.8-12.6 0-24.8 0-36.7-.2-2.5 0-4.8-1-6.5-2.8-1.7-1.8-2.6-4.1-2.6-6.6v-2.2l319 1c0 2.5-.9 4.8-2.6 6.6-1.8 1.7-4.1 2.7-6.6 2.7zM203.8 175.1c2.3-.2 4.8-.4 7.4-.6 3.7-.3 7.5-.6 10.3-.7l85.3-1.7 1.2 13.2 3.5 39.1h-.1c-1.5-1.2-3-2.3-4.6-3.4-.1-.1-.2-.2-.4-.3-5.2-3.5-10.9-6.3-17-8.5-2.2-.8-4.5-1.4-6.8-2-.5-.1-1.1-.3-1.6-.4-2.1-.5-4.2-.9-6.4-1.3-.3-.1-.6-.1-.9-.2-2.4-.4-4.8-.6-7.2-.8-.7-.1-1.5-.1-2.3-.2-1.9-.1-3.9-.2-5.9-.2-.5 0-.9-.1-1.4-.1h-.7c-1.5 0-2.9.1-4.4.1-.7 0-1.3 0-2 .1-2.3.1-4.6.3-6.9.5-1.4.1-3 .3-4.6.6-.3 0-.7.1-1 .1-1.2.2-2.4.4-3.7.6l-1.5.3c-1.4.3-2.9.6-4.4.9-.9.2-1.7.4-2.6.7l-2.4.6c-.9.3-1.8.5-2.7.8-1 .3-2 .7-3.1 1-.8.3-1.7.6-2.5.9-1.5.6-3.1 1.2-4.6 1.9l-1.2.6c-1.6.7-3.1 1.5-4.7 2.4-.1.1-.3.2-.4.2-1.8 1-3.6 2.1-5.4 3.3l4.3-36.9 1.4-10.6zm69.9 168.8h-.4c-6.2.8-12.8 1.2-19.6 1.2-6.7 0-13.5-.4-19.9-1.2-6.4-.8-12.6-1.9-18.2-3.4-11.6-3.1-21.6-13.2-27.9-28.5-4.6-11-6.9-23.5-7-35.3-.1-11.9 2.1-22.9 6.6-30.8 1.1-1.9 2.4-3.8 3.7-5.5.1-.2.3-.4.4-.6 1.4-1.7 2.9-3.4 4.5-4.9l.1-.1c5.1-4.9 10.9-8.5 17-11.3.3-.1.6-.3.9-.4 1.7-.8 3.5-1.5 5.3-2.1.6-.2 1.2-.4 1.9-.6l3.9-1.2c.8-.2 1.5-.4 2.2-.6 1.4-.4 2.8-.7 4.2-1 .6-.1 1.2-.3 1.8-.4 1.7-.3 3.3-.6 4.9-.9.2 0 .5-.1.7-.1 1.7-.3 3.5-.5 5.1-.6 1-.1 2-.2 3-.2 1.1-.1 2.2-.2 3.2-.2 1.2-.1 2.3-.1 3.5-.1.8 0 1.7-.1 2.5-.1h2.6c1.6 0 3.2.1 4.7.2.8 0 1.7.1 2.5.2 2.2.2 4.3.4 6.3.7.6.1 1.1.2 1.6.3 1.7.3 3.3.6 4.9 1 .7.2 1.4.3 2.1.5 1.8.5 3.6 1 5.4 1.6.2.1.4.1.6.2 2.4.8 4.6 1.8 6.9 2.9.5.2 1 .5 1.6.8 2 1 3.9 2.1 5.8 3.3.2.1.4.2.5.3 2 1.3 3.9 2.8 5.7 4.3.4.3.8.7 1.2 1 1.5 1.3 3 2.7 4.3 4.2l.9.9c.9 1 1.7 2 2.5 3 .3.4.7.8 1 1.2 1.1 1.5 2 3 2.9 4.5 10.2 17.7 11.6 42.1 3.6 62.3-6.3 16.1-17.9 27.4-32.5 31.8-5.2 1.6-10.9 2.8-17.1 3.6-.1.1-.3.1-.4.1zm-100.8-62.4c.6 11.3 3.1 23 7.5 33.6 7.3 17.6 19.1 29.4 33.2 33.1 2.9.8 6 1.5 9.3 2.1 9.6 1.8 20.3 2.8 30.9 2.8 6.7 0 13.1-.4 19.2-1.1 7.4-.9 14.4-2.3 20.5-4.1 17-5.2 30.3-18.2 37.6-36.5 6.4-16.3 7.3-35.1 2.9-51.7l81.9-1.5c-.1 10.8-.2 21.6-.4 32.3-.4 26-.7 52.9-.4 78.8l-318.7-1 2.5-112.9c12.1 1.2 25.1 1.9 38.2 1.9 13 0 26.1-.7 38.3-1.9-2.2 7.9-3 16.9-2.5 26.1zm173.8-103.9c12.3.1 24.7.7 36.9 1.7l-.3 5.9c-8 0-16.2-.1-24.8-.1h-12.8c0-2.5.3-5.1 1-7.5zm11.7 15.4c17.4 0 33.2.1 48.2.3 4.9.1 8.9 4.1 9 8.9.3 15.7.3 31.9.2 48l-84.5 1.5c-1.3-3.3-2.8-6.6-4.5-9.6-1-1.7-2-3.3-3.2-4.9-.4-.6-.9-1.2-1.4-1.8-.7-.9-1.4-1.9-2.2-2.8l-3.6-39.6h42zm-131.3-50c1.7-1.7 4.1-2.6 6.7-2.6l21.7.4h27.2c2.6 0 5.2 1.1 7 3l16.1 17.2.3 3.3-84.8 1.7c-3 .1-6.9.4-10.7.7-1.7.1-3.5.3-5.1.4 3.9-4.7 14.7-17.4 21.6-24.1zM181 182c0 1.3.1 2.6.1 4.1h-26.3c0-2.1-.1-3.8-.2-5.4-.1-.9-.1-1.8-.1-2.8l26.5-.8c-.1 1.9-.1 3.4 0 4.9zm-58.7.5c0-1.1.1-2.2.2-3.7l24.1-.7c0 1.1.1 2.1.2 3 .1 1.5.2 3.1.2 4.9-8.9 0-17.1-.1-24.7-.1-.1-1.3 0-2.4 0-3.4zm-20.2 14.1c1.8-1.9 4.1-2.9 6.8-2.9 14.8.2 33.1.3 54.2.3 10.2 0 20.5 0 30.5-.1l-4.2 36.3c-1.6 1.6-3.2 3.4-4.6 5.3-.2.2-.4.5-.5.7-1.4 1.9-2.7 3.8-3.9 5.9-.9 1.6-1.7 3.3-2.4 5.1-25 2.8-54 2.9-79 .3l.9-38.9c0-1.9 0-3.6-.1-5.1-.3-2.6.6-5.1 2.3-6.9z"/><path d="M312.4 302.2c4.3-10.2 6.1-20.2 5.4-29.7-.8-10.9-5-20.8-11.9-27.9-10.1-10.3-24.9-13.8-36.6-15.8-8.3-1.3-15.2-2-21.7-2-4.1 0-8.2.3-11.9.8-11.7 1.6-17.1 5.5-26.1 13.5-14 12.8-19.5 26.9-17.2 44.5 2.4 18.2 14.2 34.2 30.7 41.9 8.2 3.8 17.5 5.7 28.3 5.7 7.8 0 16.4-1 26.2-3 5.9-1.2 12.7-2.8 18.6-6.7 6.6-4.3 12.1-11.4 16.2-21.3zM291.8 317c-4.8 3.1-10.7 4.5-15.9 5.6-9.3 1.9-17.4 2.8-24.7 2.8-9.7 0-17.9-1.6-25-4.9-13.9-6.4-24.1-20.5-26.2-35.7-2-15 2.5-26.6 14.6-37.6 8.1-7.2 12.3-10.2 21.9-11.6 3.4-.5 7.1-.7 10.8-.7 6.1 0 12.6.6 20.4 1.9 10.6 1.7 23.8 4.8 32.3 13.5 5.6 5.7 9 13.9 9.7 22.9.6 8.1-1.1 17.2-4.8 26.1-3.3 8.2-7.7 14.2-13.1 17.7z"/><path d="M267.8 250.1c-5.1-.2-10.3 1.8-13.5 5.2-.1.1-.2.3-.4.4-2.9-2.8-6.5-4.2-8-4.8-5.6-2-11.2-.5-15.2 4.2-5 5.9-6.3 15-2.9 21.2 2.2 4.1 5.7 7.8 9.1 11.4 1.6 1.7 3.2 3.4 4.5 5 1.6 2 6 7.4 6.6 10.4.5 2.3 2.3 4 4.6 4.3h.7c2 0 3.8-1.1 4.8-3 2.3-4.6 6.1-8.8 9.8-12.9 1.1-1.3 2.3-2.5 3.4-3.8l.9-1.1c3.5-4 8.3-9.5 10.3-14.2 2.6-6.1-1-14-3.9-17.5-2.5-2.8-6.4-4.6-10.8-4.8zm7.4 19.5c-1.5 3.6-6 8.8-9 12.2l-.9 1.1c-1 1.2-2.1 2.4-3.2 3.6-2.9 3.2-5.9 6.5-8.4 10.2-1.6-2.9-3.9-5.8-6.2-8.7-1.4-1.8-3.1-3.6-4.8-5.4-3-3.2-6.2-6.6-7.9-9.8-1.8-3.3-.9-9 2-12.4 1.3-1.5 2.8-2.3 4.5-2.3.7 0 1.4.1 2.1.4 2.8 1 6.1 3 6.7 5.4-.2 1-.2 2.1-.1 3.1.4 5 4.2 9.3 9 10.1 3.8.6 7.8-1.2 9.9-4.6 2.2-3.5 1.9-7.9-.8-11.8l-6.4 4.6c.9 1.2 1.1 2.3.6 3-.5.7-1.4 1.1-1.9 1-1.2-.2-2.3-1.6-2.4-3-.1-1.7.7-3.7 2.3-5.4 1.6-1.8 4.7-2.8 7.5-2.8 1.3 0 3.6.4 5 2.1 1.7 2.5 3.4 7.1 2.4 9.4zm78.1-30l27.7 1.1h1.2c2.2 0 5.3-.3 7.5-2.8 2.1-2.4 2.2-5.4 2.2-7.2l.3-17.2c.1-2.9-1-5.6-3-7.7-2-2.1-4.7-3.3-7.6-3.3l-27.8-.4h-.6c-1.3 0-4.5 0-6.9 2.1-2.8 2.5-2.9 6.2-3 8.2l-.4 16c-.1 5.9 4.5 10.9 10.4 11.2zm-2.1-26.9c0-1.8.2-2.3.3-2.5.1 0 .4-.2 1.8-.2l28.3.4c.8 0 1.5.3 2.1.9.5.6.8 1.3.8 2.1l-.3 17.2c0 .4 0 1.8-.1 2 0 0-.4.2-1.7.2l-28.6-1.1c-1.6-.1-2.9-1.4-2.8-3.4l.2-15.6z"/></g></svg>