<svg xmlns="http://www.w3.org/2000/svg" width="512" height="512"><path d="M160.1 293c-.3 11.4-.7 23.2-1.2 35.1-1 26.6-2 54.1-1.6 81 .2 11.7 9.5 20.8 21.5 20.8 9.4-.1 18.9.2 28.2.5 7.9.3 16 .5 24.1.5 8.9 0 16.8-.3 23.9-1.1 2.8-.2 8.7-.8 11.7-5.4 1.7-2.6 1.8-5.6 1.9-7.7 1.2-31.1 2.3-63.9 3.2-97.5.8-29-2.4-53-9.9-73.2-1.1-3-2.4-6.1-3.9-9.2-2.1-4.6-4.4-9-6.7-13.3-7.3-14.1-14.2-27.4-13.7-44.1L239 133c1.1 0 2.3.1 3.5.1l4.2.2-.2-4.2c-.4-11.5-.3-18.8.1-29.8l.2-4.5-4.5.4c-2.4.2-4.8.3-7.3.3-5.5 0-10.5-.5-15.4-1-4.7-.5-9.7-1-14.8-1-5.5 0-10.8.6-16.1 1.8l-3.1.7 1 37.6 4-.2c1.8-.1 3.6-.2 5.2-.3l-.3 38c-.1 10.8-.1 23-3.7 33.9-2.9 8.9-8 16.8-13.3 25.1-5.1 8-10.5 16.3-13.7 25.5-3.7 11.7-4.4 23.9-4.7 37.4zm100 127.2c-.8 1.3-3.6 1.7-5.9 1.9-6.9.7-14.5 1-23.1 1-7.9 0-16-.3-23.8-.5-7.9-.3-16.1-.5-24.1-.5h-4.6c-7.3 0-13.2-5.8-13.3-13.1-.1-9.2-.1-18.4.1-27.7 32.1-.1 64.6 0 96.7.4-.4 11.8-.8 23.4-1.3 34.8-.1 1.2-.2 3-.7 3.7zm3.9-101.1c-.5 18.5-1.1 36.8-1.7 54.7-32.2-.3-64.7-.4-96.9-.4.3-15.1.8-30.2 1.4-45.1.4-11.9.9-23.7 1.2-35.2v-1.2c9.8.4 19.7 1.2 29.4 2 13 1.1 26.3 2.3 39.6 2.3 8.9 0 17.7-.6 26.5-1.9.5 7.9.7 16.1.5 24.8zm-69.5-193.8l-.6-23c8.1-1.5 16.5-.9 25.1 0 5.1.5 10.3 1.1 16.2 1.1 1.2 0 2.4 0 3.6-.1-.3 7.6-.3 13.8-.1 21.6l-3.3-.1c-4.2-.1-8.4-.1-12.6-.1h-6.5c-4.7 0-9.3.1-14.5.3h-1.9l-3.8.1v.1c-.5.1-1 .1-1.6.1zm-9 109.1c5.4-8.4 11-17.1 14.2-26.9 3.9-12.1 4-24.9 4.1-36.3l.3-38.4h.8c3.8-.1 7.6-.2 11.3-.2h1.6c4.2 0 8.4.1 13.4.2l-1.4 46.5c-.6 18.7 7.2 33.6 14.6 47.9 2.2 4.2 4.5 8.6 6.5 13 1.4 2.9 2.6 5.8 3.6 8.6 4.1 11.2 6.8 23.7 8.3 37.7-21.3 3.4-43.4 1.5-64.8-.3-9.8-.8-19.8-1.7-29.8-2 .5-9.3 1.5-17.9 4.3-25.9 3.1-8.4 7.9-15.9 13-23.9zm120.2-9.2c-.3 8-.1 20.8.1 33.2.2 12.3.4 25 .1 32.8-.2 4.1-.4 8.4.4 12.8.9 5.2 3 10 5.2 14.5 5 10.2 9.1 17.1 14.7 24.9 0 7.7-.4 14.1-.9 21.3-.5 7.6-1.1 16.1-1.1 27.4-3.9 4-7.2 7.7-10.6 11.6-2.1 2.4-4.3 4.9-6.6 7.4-1.9 2.1-5.5 6-5.1 11 .4 5 6.6 5 9 5 3.4 0 7.4-.4 9.7-.7.7-.1 1.2-.1 1.4-.1 3.1-.1 6.1.1 9.1.3l2.2.1c.5 0 1.3.1 2.1.2 1.8.2 4.1.4 6.2.4 3.2 0 5.4-.5 7-1.7 1.2-.9 2-2.2 2.2-3.6.3-2.7-1.4-4.8-2.7-6.4-.2-.3-.4-.5-.6-.8-.5-.7-1.1-1.4-1.7-2.1-.6-.7-1.2-1.5-1.8-2.3-1.8-2.4-3.2-5-4.8-7.6-2-3.5-4.2-7.2-7.1-10.6 0-11.1.6-19.2 1.1-27.1.5-7.1.9-13.8.9-21.9 1.9-4 4-7.6 6.3-11.4 2.4-4 4.9-8.1 7-12.8 3.5-7.9 4-15.9 4.5-23.7.2-2.7.3-5.4.6-8.2 1.4-12.7 3.2-48.1 2.1-60.7l-.2-2-1.7-1c-1.1-.7-4.2-1.8-12.3-1.8-1.2 0-2.4 0-4.1.1-1 0-3.5-.1-6.5-.1-4.9-.1-11.3-.3-15.6-.3-4.7-.1-8.3-.1-8.5 3.9zm8.2 50.1l.2-.1c.2.7 0 1.2-.2 1.5v-1.4zm23.6 139.8l2.1 2.7c.5.5.9 1.1 1.3 1.7-1.6 0-3.4-.2-4.8-.4-1-.1-1.8-.2-2.4-.2l-2.2-.1c-2.6-.2-5.2-.3-7.8-.3h-2.1c-.3 0-1 .1-2 .2-2.2.2-5.9.6-8.9.6h-.3c.6-.9 1.4-1.9 2.3-2.8 2.4-2.6 4.6-5.1 6.7-7.5 2.8-3.2 5.4-6.2 8.4-9.3 1.6 2.3 3 4.7 4.5 7.2 1.5 2.6 3.2 5.4 5.2 8.2zm6.4-120.3c-.5 7.4-.9 14.4-3.8 20.9-1.9 4.3-4.2 8-6.5 12-1.3 2.2-2.6 4.4-3.9 6.8-3.9-5.8-7.2-11.7-11.1-19.5-2.2-4.5-3.8-8.3-4.5-12.3-.6-3.5-.4-7.4-.3-11.1.2-3.9.2-9 .2-14.6.1-.1.6-.4 1.3-.6 2.3-.7 5.1-1.4 6.8-.5.7.4 1.4 1.1 2.2 1.9 1.7 1.7 3.8 3.7 7.1 4.1.3 0 .6.1 1 .1 2.6 0 5.2-1.2 7.7-3.5.5-.4.9-.9 1.3-1.3.9-.9 1.7-1.7 2.5-2.2.5-.3 1.1-.4 1.8-.6-.3 4.9-.7 9.1-1 12-.5 2.7-.7 5.6-.8 8.4zM313.4 229h.7c4.2 0 10.5.2 15.4.3 3.1.1 5.6.1 6.7.1h.5c5.1-.2 8.3.1 10 .3.4 8.5-.1 23.5-.8 36.5-1.9.2-4 .6-6 1.7-1.8 1-3.1 2.3-4.3 3.5l-1.1 1.1c-1.2 1.1-2 1.4-2.4 1.4-.6-.1-1.6-1-2.5-1.9-1.1-1.1-2.3-2.3-3.9-3.1-3.9-2.2-8.4-1.5-12-.4 0-3.3-.1-6.8-.2-10.2 0-10.6-.2-21.5-.1-29.3z" fill="#585858"/></svg>