<svg xmlns="http://www.w3.org/2000/svg" width="512" height="512"><g fill="#585858"><path d="M106.5 431.9c14.1.3 25.4.3 36.5.3 13.1 0 26.6 0 45.1.5l4.1.1c7.5.2 15.3.2 23.8.2 17.6 0 35.4-.4 52.6-.7 17.7-.4 35.9-.7 54.3-.7h1v1.1c18.5-.5 32-.5 45.1-.5 11.8 0 24 0 39.5-.4 7.7-.2 14-6.6 14-14.3l-.5-129.9-19.5-18.8-1-.9c-8.3-6.7-14.8-8.7-22.4-11.1l-2.4-.8c-3.7-1.2-7.5-1.3-10.8-1.4-9.9-.3-14.9-.6-19.8-.8-4.4-.2-9-.5-17.2-.7-.2-28.2-.9-44.2-2-48.8-8.7-36-39.1-81.2-63.1-112.8l-2.9-3.9-3.2 3.7c-20.5 23.6-39.8 48.7-57.4 74.6-6.2 9.1-12 18-15.3 28.4-3.1 9.8-3.8 38.2-3.7 58.9-6.9.2-11.2.5-15.3.7-4.9.3-10 .5-19.8.8-3.3.1-7.1.2-10.8 1.4-8.9 2.8-13.1 5-24.3 11.5l-21 20-.5 126.9c-.1 9.4 7.5 17.2 16.9 17.4zm301.8-7.9c-15.4.4-27.5.4-39.3.4-12.4 0-25.2 0-42.2.5-.1-29.4.5-53.6 1.1-76.9.5-18.8.9-38.2 1.1-60.5l23 1.5.1.1.1-.1 46.1 3c3.8.2 7.8.5 11.8.5 1.4 0 2.7-.1 4.1-.2l.5 125.3c-.1 3.4-2.9 6.3-6.4 6.4zM329 267.8v-6.7c5.5 7.4 10.6 13.5 15.6 19.4l-15.6-1v-11.7zm47.8-3.4c7.4 2.3 12.7 4 19.6 9.5l11.1 10.6c-2.9-.1-5.7-.3-8.6-.4l-10.2-.7c-7.7-6.5-15.1-13.4-22-20.8 2.7.1 5.3.2 7.7 1l2.4.8zm-21.3-2.1l4.8 5.1c4.9 5.3 10.1 10.3 15.4 15.2l-20.1-1.3c-6.5-7.3-11.6-13.3-16.7-19.9 2.4.1 4.5.2 6.6.3 3 .2 6 .4 10 .6zM106.7 424.1c-5.1-.1-9.3-4.4-9.3-9.5l.4-119.3 84.1-5.7c.6 20.7.7 41.8.9 62.3.2 24 .4 48.7 1.2 72.9-16.5-.4-29-.4-41.1-.4-10.9 0-22.2 0-36.2-.3zm74.8-149c.1 2.2.1 4.4.2 6.7l-16.7 1.1c5.3-6.1 10.5-12.3 16.2-19.8.1 5.6.2 9.9.3 12zm65.2 113c-.2-3.3-.3-6.8 1.3-8.2.6-.5 1.6-.8 2.6-1.1 3.5-1.1 7.1-1.6 10.8-1.7 2.6-.1 3.6.4 4 .8.7.7.8 2.8.8 3.9l.2 5.7c.5 11.8.9 21.4.1 37.1-6.7.1-13.5.3-20.3.4 1.2-12.2 1.3-24.6.5-36.9zm-54.3-191.3c3-9.4 8.5-17.8 14.3-26.4 16.5-24.3 34.6-47.9 53.7-70.2 23 30.7 50.8 72.8 58.8 106 .8 3.1 1.7 16 1.8 59.6v2c.2 30.8-.5 55.7-1.1 79.9-.6 23.1-1.2 47-1.1 76.1-15.1 0-30 .3-44.6.6.8-15.9.4-25.9-.1-37.3l-.2-5.7c-.1-2.1-.2-6.1-2.9-9-2.9-3.1-7-3.4-9.9-3.3-4.4.1-8.7.8-12.9 2-1.7.5-3.7 1.2-5.3 2.6-4.9 4.1-4.4 11.1-4.1 14.8.9 12.1.7 24.3-.5 36.4-7.5.1-14.9.2-22.3.2-8.5 0-16.3-.1-23.9-.2L190 253h-.9c-.1-21.2.7-48 3.3-56.2zm-26 65c2-.1 3.9-.2 6.2-.3-5.6 7.2-11.1 13.8-18.7 22.2l-19.3 1.3c4.7-4.6 9.4-9.6 13.7-14.2l7.9-8.5c4.1-.2 7.2-.4 10.2-.5zm-51.1 12.4c10.4-6.1 14.2-8 22.3-10.6 2.2-.7 4.8-.9 7.4-1l-2.6 2.7c-5.6 6-11.9 12.7-17.9 18.2l-.1-.1c-.6.4-1.2 1-2.2 2l-.3.3-20.1 1.4 13.5-12.9z"/><path d="M252.3 185.4c.3 16.3.3 33.4-.1 48.1l7.9.2c.4-14.8.4-32 .1-48.5 6.7-.2 13.1-.5 18.6-.9l-.5-7.9c-5.4.4-11.6.7-18.2.9-.2-7.8-.5-15.4-.8-22.3l-7.9.4c.3 6.8.6 14.4.8 22.1-6.2.1-12.4.2-18.2.1l-.1 7.9h4.7c4.4 0 9.1 0 13.7-.1zM263 289.3c-1.6-.7-3.6-1.6-5.7-2-3.9-.8-8-.3-11.4 1.5-4.7 2.5-8.1 7.6-8.9 13.2-.6 4.9.7 10.2 3.6 14.8 1.2 1.9 2.6 3.4 4 4.4 3.4 2.5 7.6 2.9 11.5 3h1.1c3 0 6.7-.3 9.9-2.6 4-3 5.2-8 5.7-11.4 1.2-7.8-.3-13.6-4.3-17.4-1.6-1.7-3.7-2.7-5.5-3.5zm2.1 19.7c-.5 3.3-1.3 5.3-2.6 6.3s-3.5 1.1-5.2 1.1h-.9c-2.7-.1-5.3-.3-7-1.5-.7-.5-1.4-1.3-2.1-2.4-1.9-3-2.8-6.5-2.4-9.5.4-3.1 2.3-6 4.7-7.3 1.2-.6 2.6-1 4-1 .7 0 1.4.1 2 .2 1.4.3 2.8.9 4.1 1.5 1.2.5 2.6 1.2 3.5 2 2.5 2.5 2.4 7.1 1.9 10.6zm30.8 50.6h1.2c.9 0 1.6-.1 2.4-.3 1.5-.4 3-1.3 4.3-2.6 2.6-2.7 4.1-6.4 4-10.1-.1-3.7-1.7-7.3-4.3-9.9-1-.9-2-1.7-3.1-2.2-3.5-1.7-8-1.1-11.3 1.3-2.6 1.9-4.5 5-5.4 8.6-1 4.2-.3 8.2 2 10.9 2.8 3.5 7.2 4.1 10.2 4.3zm-4.6-13.2c.4-1.8 1.3-3.3 2.5-4.2.6-.5 1.4-.7 2.2-.7.4 0 .7.1 1 .2.3.1.6.4 1 .7 1.2 1.2 1.9 2.8 2 4.5 0 1.6-.6 3.3-1.7 4.4-.4.4-.7.5-.7.5h-1c-2.5-.2-4.1-.6-4.8-1.4-.8-.8-.9-2.4-.5-4zm-75.9 13.2h1.2c.9 0 1.6-.1 2.4-.3 1.5-.4 3-1.3 4.3-2.6 2.6-2.7 4.1-6.4 4-10.1-.1-3.7-1.7-7.3-4.3-9.9-1-.9-2-1.7-3.1-2.2-3.5-1.7-8-1.1-11.3 1.3-2.6 1.9-4.5 5-5.4 8.6-1 4.2-.3 8.2 2 10.9 2.8 3.5 7.2 4.1 10.2 4.3zm-4.6-13.2c.4-1.8 1.3-3.3 2.5-4.2.6-.5 1.4-.7 2.2-.7.4 0 .7.1 1 .2.3.1.6.4 1 .7 1.2 1.2 1.9 2.8 2 4.5 0 1.6-.6 3.3-1.7 4.4-.4.4-.7.5-.7.5h-1c-2.5-.2-4.1-.6-4.8-1.4-.8-.8-.9-2.4-.5-4zm-51-15.4l-37 1.1-.4 3.4c-1.2 10.6-1 21.4.5 32l.4 2.6 2.5.7c3.1.8 6.4 1.2 9.6 1.2 2.3 0 4.6-.2 6.9-.6l3-.6c3.1-.7 6-1.3 8.1-.6l4.5 1.4.5-4.7c1.2-10.5 1.7-21.3 1.4-31.9v-4zm-8.7 30.9c-2.6 0-5.1.6-7.6 1.1l-2.7.6c-3.4.6-7 .7-10.5.1-.9-8-1.1-16-.4-24l22.2-.7c.1 7.7-.3 15.3-1 22.9zm238.7-27.8l-.3-3.2-3.1-.4c-6.4-.8-11.4-1.1-16.5-1.1-4.1 0-8.3.2-14.7.7l-3.6.3v3.6c0 10 .3 20.2.8 30.3 0 .9.2 3 1.9 4.5 1.3 1.2 2.9 1.5 3.7 1.6 5.7.8 10.2 1.1 14.7 1.1 5.1 0 10-.4 15.8-1.1l3.6-.4-.1-3.6c-.4-10.7-1.1-21.6-2.2-32.3zm-29.6 28.7c-.4-8.3-.7-16.7-.8-25.1 4.2-.3 7.4-.4 10.5-.4 3.9 0 7.8.2 12.4.7.8 8.3 1.3 16.7 1.6 25-8.1.9-14.1 1-23.7-.2z"/></g></svg>