<svg xmlns="http://www.w3.org/2000/svg" width="512" height="512"><g fill="#585858"><path d="M248 340.8c5.8 0 11.5-.6 17-1.8 15.2-3.2 28.1-11 37.3-22.5 12.9-16.1 16.8-37.3 10.5-58.2-4.7-15.9-14.4-28.2-27.1-34.6-10.7-5.4-24.2-8.4-37.9-8.4-25.9 0-47 10.3-56.5 27.6-10.5 18.9-13.2 39.6-7.6 56.6 8.4 25.1 33.6 41.3 64.3 41.3zm-49.8-94.1c8.1-14.7 26.7-23.5 49.6-23.5 12.5 0 24.7 2.7 34.4 7.6 10.8 5.4 19 16 23.1 29.8 5.5 18.4 2.2 37-9.1 51-8.1 10.1-19.5 16.9-32.8 19.8-5 1.1-10.1 1.6-15.3 1.6-20.7 0-48-9.4-56.8-36-5.1-14.9-2.5-33.3 6.9-50.3z"/><path d="M171.7 366.6c20.9 16.7 48 25.9 76.4 25.9 29.4 0 57.3-9.8 78.7-27.5 24.4-20.2 40.3-52.3 42.5-85.7.7-10.7 0-21.1-2.1-31.1-12.1-56.6-70.7-87.2-119.7-87.2-12.1 0-23.8 1.7-34.8 5.1-39.2 12.2-68.8 47.5-77.2 92.2-8.2 43.1 5.4 83.5 36.2 108.3zm-28.5-106.8c7.9-41.8 35.4-74.8 71.8-86.1 10.2-3.2 21.2-4.8 32.5-4.8 45.9 0 100.8 28.4 112 81 2 9.2 2.6 19 1.9 28.9-2.1 31.3-17 61.3-39.7 80.2-19.9 16.5-46.1 25.6-73.6 25.6-26.6 0-52-8.6-71.5-24.2-28.5-22.9-41-60.5-33.4-100.6zm-56.7-21c.3 1.7.5 3.3.8 5 1.8 10.3 2.7 20.8 2.7 31.3 0 18-1.9 66.9-2.9 86.5-.2 3.1-.3 6.7.4 10.2 2 9.1 7.6 10.1 9.9 10.1 6 0 12.2-6.2 13.8-13.8 1.5-6.9 1.2-14.2.9-21.2-.1-1.7-.1-3.3-.2-4.9-.1-5.5-.4-12.1-.7-19.6-1.3-30.2-3-71.7 2.3-92.7 1.2-4.7 3-9.1 4.9-13.8 2.1-5.1 4.3-10.5 5.6-16.1 1-4.2 1.5-8.6 1.6-13.1.1-6.5-.8-13-2.6-19.2-2.3-7.8-9.2-25.8-23.1-25.8-1.4 0-2.9.2-4.4.6-1.6.5-3.2 1-4.6 1.7-9.3 4.3-15.7 13.3-19 26.6-4.3 17.3-1.6 32.6 8.4 48 4 6 5 12.9 6.2 20.2zm-6.9-66.4c2.7-10.9 7.6-18.1 14.7-21.3 1.1-.5 2.2-.9 3.5-1.3.8-.2 1.5-.3 2.2-.3 7 0 12.8 10.9 15.5 20.2 1.6 5.4 2.4 11.1 2.3 16.9-.1 3.9-.5 7.7-1.4 11.4-1.2 5-3.1 9.8-5.2 14.9-1.9 4.7-3.9 9.6-5.2 14.8-5.6 22.2-3.9 64.3-2.6 95 .3 7.4.6 14 .7 19.4 0 1.7.1 3.4.2 5.1.3 6.5.5 13.2-.8 19.2-.9 4.3-4.4 7.6-6.2 7.6-.8 0-1.7-1.6-2.2-3.9-.5-2.5-.4-5.3-.3-8.1.8-17.1 2.9-67.3 2.9-86.8 0-10.9-.9-21.9-2.8-32.6-.3-1.6-.5-3.3-.8-4.9-1.2-7.8-2.4-15.9-7.3-23.3-8.7-13.8-11-26.7-7.2-42zm310.1 58.8c.9 3.4 1.8 6.8 2.7 10.3 2.9 10.6 5.9 21.6 6.6 32.4.9 13.1.2 27-.5 40.5-.2 3.2-.3 6.4-.5 9.6-.2 4.7-.5 9-.8 13.1-.7 9.6-1.3 18.7-.5 30.2.2 2.9.5 6 1.8 8.8 3.1 6.9 8 7.9 10.7 7.9 7 0 12.9-6.4 14.4-12.2 2.3-8.8 1.7-18.5 1.2-27.9-.2-2.8-.3-5.6-.4-8.2l-1.2-43.2c-.5-15.7-1-31.9 2.7-47 1.3-5.4 3.4-10.2 5.5-15.3 1.5-3.4 3-7 4.3-10.8 7.7-22.6 6.7-52.2 5.9-63.9-.2-3.4-.5-8-3-11.6-1.7-2.4-4.4-3.9-7.2-3.9-2.9 0-5.3 1.5-6.6 4.1-1.1 2.2-1.1 4.5-1.1 6.1l-.9 36.1c0 .7-.2 1.3-.4 1.6-.2-.4-.4-1-.3-1.8 1.5-10.7.3-26.5-2.7-36.8-1.3-4.6-3.9-10.1-8.6-10.1-1.1 0-2.8.3-4.4 2-2.3 2.4-2.5 5.6-2.6 8.5l-.9 29.9c0 1.9-.1 4.4-.9 5.8-.1.1-.2.3-.4.4 0-.4 0-.7-.1-.9l-1.3-29.6c-.1-3-.3-7-2.3-10.4-1.6-2.6-4.3-4.3-7.2-4.3-2.2 0-4.3 1-5.6 2.9-1.7 2.3-1.8 5-1.9 7.5l-.5 44.1c-.1 9.9 2.4 18.8 4.8 27.4.6 3 1.4 5.8 2.2 8.7zm1.2-79.8c0-.4 0-1.3.1-2 .9 1.6 1 4.3 1.1 6.5l1.3 29.6c.1 1.8.2 4.5 1.9 6.6 1.2 1.5 2.9 2.3 4.9 2.3 3.2 0 6.8-2.1 8.4-4.9 1.8-3.1 1.9-6.8 2-9.5l.8-29.1c.1.2.2.5.2.8 2.7 9.2 3.7 23.9 2.4 33.5-.4 3 .4 6 2.2 8.1 1.4 1.7 3.3 2.7 5.5 2.8h.5c2 0 3.9-.8 5.4-2.3 1.8-1.9 2.9-4.5 2.9-7.3l.9-36.1c0-.7 0-1.7.1-2.3.1.1.3.2.4.4 1.2 1.8 1.5 5.1 1.6 7.6.8 11.2 1.7 39.6-5.5 60.9-1.2 3.5-2.6 6.7-4 10.2-2.2 5.1-4.5 10.5-5.9 16.5-3.9 16.2-3.4 33-2.9 49.2l1.2 43.2c.1 2.7.2 5.6.4 8.5.5 8.8 1.1 17.8-.9 25.5-.8 3.2-4.2 6.3-6.8 6.3-1.4 0-2.5-1.1-3.5-3.2-.7-1.6-.9-3.9-1.1-6.2-.8-10.9-.2-19.4.5-29.1.3-4.1.6-8.5.8-13.3.1-3.2.3-6.4.5-9.6.7-13.7 1.5-27.9.5-41.5-.8-11.6-3.9-23-6.9-33.9-.9-3.4-1.8-6.8-2.7-10.1-.7-3-1.6-5.9-2.4-8.8-2.4-8.4-4.6-16.4-4.5-25.1l.6-44.2z"/></g></svg>