<svg xmlns="http://www.w3.org/2000/svg" width="512" height="512"><g fill="#585858"><path d="M382.3 245.3c2.7-.4 4.7-.9 6.7-1.3 3.5-.7 6.8-1.4 13.3-2.1l11.1-1.2-9.4-6c-3.5-2.3-7.1-4.8-10.5-7.2-6.7-4.7-13.7-9.6-21.3-13.4-13.8-6.8-27.9-8.3-39.1-3.9-4.6 1.8-8.6 4.5-12.2 7.6-.1-32.7 1.5-62.9 5-96.7.6-6.1-1.8-11.8-6.6-15.4-4.5-3.4-10.4-4.2-15.7-2.1-30.6 12.4-54.2 34.2-66.6 61.5-9.5 21-12.8 44.2-10.1 70.6-8-4.7-15.3-10.3-21.6-15.4-22.4-18.2-43-38.9-61.2-61.6-2.3-2.8-5.6-4.5-9.2-4.5-4.5 0-8.7 2.6-10.7 6.7-2.1 4.1-2.6 5.3-2.8 6-3 9.5-3.6 20.2-3.8 30.3-.4 20.1 3.4 40.4 10.9 58.6 9.2 22.3 23.9 42 42.6 57 9 7.2 17.9 12 26.9 14.7 2 .6 5.4 1.3 8.8 1.9 2.5.4 3.4 2.3 3.6 3.1.6 1.7.2 3.5-1.1 4.9-23.2 24.8-39.5 47-59.9 77l-3.8 5.7 6.8.5c2.7.2 5.3.4 7.9.6 6 .5 11.7 1 17.5 1 6.1 0 11.6-.6 16.9-1.7 4.4-1 8.4-1.9 12.2-4.1 3.7-2.1 6.7-5 9.6-8.1 3.9-4.1 7.8-8.8 11.9-13.8 7.7-9.3 16.2-19.6 25.4-26.1l3.6 7.7c2.5 5.3 5 10.8 7.8 16.1l2.3 4.6c2.6 5.2 5.3 10.6 8.3 16.2l6.9-3.8c-1.9-3.4-3.6-6.7-5.2-10h6.9c3.8 0 7.3 2.1 9.1 5.4l.3.5c1.1 1.9 2.2 3.9 3.2 6.4l7.3-2.9c-1.2-2.9-2.5-5.2-3.6-7.3l-.3-.5c-3.2-5.9-9.4-9.5-16-9.5h-10.8c-3.4-6-6.4-12.4-9.2-18.6l-3.9-8.4c.9-.4 1.7-.8 2.6-1.1 8.1-2.9 16.7-3.6 25.9-4.3.6-.1 1.3-.1 1.9-.2l4.8 10.3c2.1 4.6 4.3 9.2 6.6 13.8 3.2 8.6 7.9 17.7 11.2 23.3l6.8-4c-1.8-3-3.6-6.4-5.3-9.9h7.2c4.1 0 7.8 2.4 9.5 6.2.8 1.7 1.8 4 2.9 7l7.4-2.7c-1.1-3-2.1-5.3-3.1-7.6-2.9-6.6-9.5-10.9-16.7-10.9H312c-3.4-6-6.4-12.4-9.2-18.6l-3.6-7.9c16.5-1.9 29.4-5.7 40.5-11.8 15.7-8.7 30.1-26.3 37.6-45.7 2.6-6.8 5.3-17.2 3.1-28.5-.9-4.9-2.7-9.2-5.3-13-.4-.6-.8-1.1-1.2-1.7-1.6-2.2-3.2-4.4-3.2-6.3.2-2.9 4.6-4.3 11.6-5.4zm-138.1-77c11.5-25.5 33.6-45.9 62.3-57.4 2.7-1.1 5.6-.7 8 1.1 2.5 1.9 3.9 5 3.5 8.3-3.9 36.8-5.4 69.4-5 105.6-2.4 2.8-4.7 5.7-6.9 8.7-4 5.2-8.2 10.6-12.9 14.9-1.5 1.4-3.2 2.8-4.9 3.1-1.3.2-2.7 0-4.1-.2-16.5-2.5-33.6-5.2-48.9-12.2-3.4-27.3-.6-50.8 8.9-71.9zm123.6 93.5c.4.5.8 1 1.1 1.5 2 2.9 3.3 6.2 4.1 10 1.4 7.4.5 16-2.7 24.2-6.9 17.8-20 33.8-34.1 41.7-11 6.1-24.2 9.7-41.5 11.3-2 .2-4 .3-6 .5-9.2.7-18.8 1.5-27.9 4.7-14.9 5.3-27.4 20.3-38.3 33.6-4 4.9-7.8 9.5-11.6 13.4-2.5 2.6-5 5.1-7.7 6.7-2.8 1.6-6.2 2.4-10 3.2-4.8 1-9.7 1.5-15.3 1.5-5.5 0-11-.5-16.8-1-.4 0-.8-.1-1.2-.1 18.8-27.5 33.8-47.5 55.3-70.5 3.2-3.4 4.3-8.3 2.8-12.7-1.5-4.5-5.1-7.6-9.8-8.4-3.5-.6-6.5-1.3-7.9-1.7-8.1-2.4-16-6.7-24.2-13.3-17.7-14.1-31.6-32.7-40.2-53.8-7.1-17.3-10.6-36.5-10.3-55.5.2-9.5.7-19.5 3.4-28 .1-.3.5-1.2 2.3-4.9 1.3-2.6 4.9-3.1 6.8-.9 18.6 23.2 39.6 44.3 62.4 62.8 8.6 7 19.1 14.9 30.9 20.5 16.6 7.8 34.5 10.6 51.8 13.2 2 .3 4.4.6 6.8.2 3.7-.7 6.5-2.9 8.8-5.1 5.1-4.7 9.5-10.4 13.7-15.9 7.1-9.2 13.9-18 23.6-21.8 9.1-3.6 20.9-2.2 32.7 3.6 7.1 3.5 13.5 8 20.3 12.8.8.5 1.5 1.1 2.3 1.6-1.4.3-2.6.5-3.8.8-1.9.4-3.8.8-6.3 1.2-6.2 1-17.8 3-17.9 13.2-.5 4.8 2.2 8.5 4.4 11.4z"/><path d="M350 221c-2.2 1.1-3 3.2-3.3 3.9-.4 1-.9 2.5-.6 4.2.5 3 3.2 5.2 6.4 5.2 1.5 0 3-.5 4.1-1.4 2.9-2.4 3.4-6.9 1.1-9.9-1.8-2.4-5.2-3.3-7.7-2zm3.5 7c-.6.3-1.4.5-2-.3-.2-.3-.4-.6.1-1 .3-.2.6-.3.9-.3.5 0 1.1.5 1.3 1.4-.1.1-.2.2-.3.2zm-246.4 26.5c3.8 13.8 9.7 31.5 21.7 45.7l6-5.1c-11-13-16.6-29.6-20.1-42.7l-7.6 2.1zm15.6 72.9l5.6-5.5c-10-10.2-17.8-29.2-21.6-38.9h.1l-.9-2-7.3 3c3.7 9.2 12.3 31.3 24.1 43.4zm95.6-161.9l7.5 2.2c3.9-13.1 10.7-25.4 19.7-35.7l-5.9-5.2c-9.7 11.2-17.1 24.6-21.3 38.7zm1.5-26.2c4.9-10.3 11.9-19.8 20.2-27.6l-5.4-5.8c-9.1 8.4-16.7 18.8-21.9 30l7.1 3.4z"/></g></svg>