<svg xmlns="http://www.w3.org/2000/svg" width="512" height="512"><g fill="#585858"><path d="M387.4 358.8c-2.7-.1-4.9-.1-6.8-.1h-3.5c-4.5 0-6.7-.1-15.8-2.6-11-3-19.9-8.1-25.5-14.5 6.8-.5 13.8-2.5 20.4-6 8.3-4.3 15-10.3 21-16 6.4-6.1 13.6-13.5 18.7-22.1 11-18.3 12.5-41.5 4.7-70.9-2.7-10.1-6.5-20.4-15.9-27.4l-5.6-4.1-.7 6.9c-1.8 18.5-8.1 35.8-18.3 50.2-3.2-12.2-6.5-24.8-12.4-36.7-7-14.2-16.7-25.2-28.6-32.7l-7.5-4.6 1.5 8.7c6 34.7-8.9 71.2-39 96-3-3.4-6.5-7-12.2-7.9-9.3-1.5-16.6 5.7-20 12.4-2.6 5.2-9.1 11.3-14.3 13.8l3.2 7.2c1-.4 2.5-.7 4.3-.7 5.5 0 11.4 2.2 12.9 4.2 2.5 3.2 3.5 7.2 4.5 11.5.2.9.4 1.9.7 2.8 2.3 9.2 6 15.6 11.6 20.2 6.6 5.4 15.3 7.7 23.6 9.9 4 1 8.1 2.1 11.8 3.5 11.3 4.2 20.4 12.1 24.9 21.6 4.9 10.4 5.9 15.6 1.6 24l-3.8 7.4 11.5-2.5c14.1-3 22.6-4.8 37.3-16.1 11.4-8.7 15.2-18.5 19.1-30.3l1.6-5-5-.1zm-65.2-164.1c7.5 6.3 13.7 14.4 18.6 24.3 5.7 11.6 9 24.3 12.3 36.9.4 1.4.7 2.8.9 4.1-1 1.1-1.9 2.2-2.9 3.2l-.9.9c-3.4 3.4-7 6.6-10.8 9.5-.3.2-.5.4-.8.6-1.6 1.2-3.3 2.4-5 3.5-.4.3-.9.6-1.3.8-1.5 1-3.1 1.9-4.7 2.8-.6.3-1.1.6-1.7.9-1.5.8-3.1 1.6-4.7 2.4-.6.3-1.2.6-1.8.8-1.9.9-3.9 1.7-5.9 2.4-.2.1-.4.2-.6.2-1.1.4-2.1.7-3.1 1-5.7 1.9-10.7 2.8-15.6 2.9h-.3c-1.4 0-2.7-.1-4-.3l-1.5-.3c-.9-.2-1.7-.3-2.5-.6-.5-.1-1-.3-1.5-.5-.7-.3-1.4-.5-2.1-.8-.5-.2-.9-.5-1.4-.7-.3-.2-.5-.4-.8-.5 29.2-24.3 44.7-59.2 42.1-93.5zM367.1 388c-12 9.2-18.9 11.3-30.4 13.9 2.2-8.7-.5-15.8-4.2-23.7-5.3-11.3-16-20.7-29.2-25.7-4.1-1.5-8.4-2.6-12.6-3.7-7.9-2.1-15.4-4-20.6-8.3-4.2-3.5-7.1-8.5-9-16-.2-.9-.4-1.8-.7-2.7-1.1-4.7-2.4-10-5.9-14.6-2.6-3.3-7.6-5.5-12.6-6.6 3-3 5.6-6.3 7.3-9.5 2.1-4.1 6.5-9.1 11.8-8.2 2.9.4 5 2.5 7.2 5l-.1.1 2.8 2.8c.8.9 1.7 1.8 2.7 2.6 5.1 4.2 12.6 6.7 20.8 6.7h.4c5.5-.1 11.2-1.2 17.7-3.3 1.1-.4 2.2-.7 3.3-1.1.2-.1.3-.1.5-.2 2.2-.8 4.5-1.8 6.6-2.7.6-.3 1.1-.6 1.7-.8 1.8-.8 3.6-1.7 5.3-2.7.5-.3 1.1-.6 1.6-.9 1.8-1 3.5-2 5.2-3.1.5-.3 1-.6 1.4-.9 1.7-1.1 3.4-2.3 5.1-3.6.4-.3.8-.6 1.3-.9 1.7-1.3 3.3-2.6 5-4 .4-.3.7-.6 1.1-.9 1.7-1.5 3.4-3.1 5.1-4.8.2-.2.4-.3.5-.5 1.7-1.8 3.4-3.6 5.1-5.5l1.1-1.3v-.1c1.4-1.7 2.8-3.4 4.1-5.2 9.7-13.5 16.3-29.5 19.1-46.6 3.9 5.1 6.1 11.5 7.7 17.9 7.2 27.2 5.9 48.4-3.9 64.8-4.7 7.8-11.4 14.7-17.4 20.5-5.6 5.4-11.8 10.9-19.2 14.7-4.5 2.4-11.7 5.2-19.9 5.2-1.3 0-2.6-.1-3.9-.2l-7.2-.9 3.3 6.5c5.5 11 18 19.9 34.4 24.4 9.6 2.6 12.5 2.9 17.9 2.9h4.7c-3.4 8.4-6.9 15-15 21.2z"/><path d="M192.1 317c-4.3-8.3-3.3-13.5 1.6-24 4.5-9.5 13.5-17.4 24.9-21.6 3.7-1.4 7.8-2.5 11.8-3.5 8.4-2.2 17-4.4 23.6-9.9 5.6-4.6 9.3-11 11.6-20.1.2-.9.5-1.9.7-2.8 1-4.3 2-8.3 4.5-11.6 1.6-2 7.4-4.2 12.9-4.2 1.8 0 3.3.2 4.3.7l3.2-7.2c-5.3-2.4-11.7-8.6-14.3-13.8-3.4-6.7-10.7-13.9-20-12.4-5.7.9-9.1 4.5-12.2 7.8-30.1-24.8-45-61.3-39-96l1.5-8.7-7.5 4.6c-11.9 7.4-21.6 18.4-28.6 32.7-5.8 11.8-9.2 24.3-12.4 36.7-10.2-14.3-16.5-31.7-18.3-50.2l-.7-6.9-5.6 4.1c-9.4 7-13.2 17.3-15.9 27.4-7.8 29.4-6.2 52.5 4.7 70.9 5.2 8.6 12.4 16 18.7 22.1 6 5.8 12.7 11.7 21 16 6.6 3.5 13.6 5.5 20.4 6-5.6 6.3-14.5 11.4-25.5 14.5-9.1 2.5-11.3 2.6-15.8 2.6h-3.5c-1.8 0-4 0-6.8.1l-5.3.2 1.6 5c3.9 11.8 7.7 21.6 19.1 30.3 14.7 11.3 23.2 13.1 37.3 16.1l11.5 2.5-3.5-7.4zm-13.9-186.4c4.9-9.9 11.2-18.1 18.6-24.3-2.6 34.3 12.9 69.2 42.1 93.6l-.9.6c-.4.2-.8.4-1.2.7-.8.4-1.6.7-2.5 1-.4.1-.7.3-1.1.4-1.2.4-2.5.6-3.9.8h-.1c-1.5.2-3.1.3-4.8.3-4.1-.1-8.4-.8-13.3-2.2-1.5-.5-3.1-1-4.8-1.6-.1 0-.2-.1-.3-.1h-.1c-2.2-.8-4.3-1.7-6.5-2.7-.5-.2-1-.5-1.5-.7-1.7-.8-3.4-1.6-5-2.5-.5-.3-1-.5-1.4-.8-1.7-.9-3.3-1.9-4.9-2.9-.4-.2-.8-.5-1.2-.7-1.8-1.1-3.5-2.4-5.1-3.6-.2-.2-.5-.3-.7-.5-3.8-2.9-7.4-6.1-10.8-9.5-.4-.4-.7-.7-1-1.1-1-1-1.9-2-2.8-3.1.2-1.4.6-2.8 1-4.4 3.2-12.4 6.5-25.1 12.2-36.7zm4.1 182.8c-11.5-2.5-18.4-4.6-30.4-13.9-8.1-6.2-11.6-12.8-14.7-21.4h4.7c5.3 0 8.3-.2 17.9-2.9 16.4-4.5 28.9-13.4 34.4-24.4l3.3-6.5-7.2.9c-1.3.2-2.6.2-3.9.2-8.2 0-15.4-2.8-19.9-5.2-7.4-3.9-13.6-9.4-19.2-14.7-6-5.7-12.7-12.6-17.4-20.5-9.8-16.4-11.1-37.6-3.9-64.8 1.7-6.4 3.8-12.8 7.7-17.9 2.8 17.1 9.3 33.1 19.1 46.6 1.3 1.8 2.7 3.5 4.1 5.2v.1l1.1 1.3c1.6 1.9 3.3 3.7 5 5.5.2.2.5.4.7.7 1.6 1.6 3.2 3.2 4.9 4.7.4.3.8.7 1.2 1 1.6 1.4 3.2 2.7 4.9 4 .4.3.9.7 1.3 1 1.7 1.2 3.3 2.4 5.1 3.5.5.3 1 .6 1.4.9 1.7 1.1 3.5 2.1 5.2 3.1.5.3 1 .6 1.6.9 1.8 1 3.6 1.9 5.5 2.8.5.2 1 .5 1.5.7 2.4 1.1 4.7 2.1 7.2 3 3.9 1.5 7.6 2.5 11 3.3 3.5.7 6.7 1.1 10 1.1h.4c2.8 0 5.5-.3 8.1-.8 3.2-.7 6.1-1.7 8.7-3.1 1.5-.8 2.8-1.7 4-2.7.9-.8 1.8-1.6 2.6-2.5l2.8-2.9-.1-.1c2.3-2.5 4.4-4.6 7.2-5 5.2-.8 9.7 4.1 11.8 8.2 1.6 3.2 4.2 6.5 7.3 9.5-5 1-10 3.3-12.6 6.6-3.6 4.6-4.8 9.9-5.9 14.6l-.6 2.7c-1.9 7.5-4.8 12.5-9 16-5.3 4.3-12.7 6.3-20.6 8.3-4.2 1.1-8.5 2.2-12.6 3.7-13.3 5-23.9 14.3-29.2 25.7-4 7.7-6.7 14.8-4.5 23.5z"/><path d="M260.7 209.6c.3 0 .6.1.9.1.9 0 1.8-.2 2.5-.7 2.2-1.3 3-4.1 1.8-6.5-.2-.5-.6-1-.9-1.3l-.8-1.3-.8-.5c-1.5-.9-3.4-.9-5 0s-2.7 2.7-2.7 4.5c0 2.8 2.1 5.2 5 5.7zm2.9 79.3l-.8-1.3-.8-.5c-1.5-.9-3.4-.9-5 .1-1.6.9-2.7 2.7-2.7 4.5 0 2.7 2.1 5.1 4.9 5.6.3 0 .6.1.9.1 1.1 0 2-.4 2.5-.7 2.2-1.3 3-4.1 1.8-6.5-.1-.5-.4-.9-.8-1.3zM107.9 163.2l-7.6-1.9c-3.4 13.9-1.5 29.1 5.2 41.8l7-3.7c-5.9-11-7.5-24.1-4.6-36.2zm-13.5 14.7l-7.7-1.6c-.9 4.2.1 8.3.8 11.6 1.5 6.4 3 13 6.1 19.1l7-3.6c-2.7-5.3-4.1-11.4-5.5-17.3-.6-2.8-1.2-5.7-.7-8.2zm307.4 126l2.3 7.5c2.7-.8 4.2-3.1 5-4.2 6.8-10.1 9.9-22.4 8.9-34.5l-7.8.6c.9 10.4-1.9 20.8-7.6 29.5-.7 1-.8 1.2-.8 1.1zm16.1-7c-1.2 10-6.9 19.4-15.4 25l4.4 6.5c10.3-6.9 17.3-18.3 18.8-30.6l-7.8-.9zM266.8 162.5c1.8 2 3.5 3.9 5 5.7 3.1 3.7 7 8.4 12.5 10.9l3 1.4 1.9-2.7c5.4-7.9 11.7-15.2 18.7-21.7l1.9-1.7c2.8-2.5 5.7-5.2 8.1-8.4 5.6-7.3 7.9-17.2 6.2-26.3-1-5.5-3.4-9.8-6.9-12.4-6.1-4.6-16.2-3.6-23.1 2-3.2 2.6-7 7.8-9.7 11.8l-7-11.3-.4-.5c-1.6-1.9-4.4-4.3-8.2-5.1-1.5-.3-3.2-.5-5-.5-2.6 0-7.3.4-10.5 3.3-20 17.8 1 41.4 13.5 55.5zm-8.1-49.9c.7-.6 2.6-1.2 5.2-1.2 1.1 0 2.3.1 3.3.3 1.7.4 3 1.5 3.8 2.4l13.5 21.9 3.3-5.6c1.9-3.2 7.7-12.2 11.3-15.1 4.1-3.4 10.1-4.3 13.4-1.8 2.4 1.8 3.4 5.1 3.9 7.6 1.3 7-.5 14.5-4.7 20.1-2 2.6-4.5 4.9-7.1 7.3l-1.9 1.8c-6.6 6.1-12.5 12.8-17.8 20-2.6-1.9-4.9-4.7-7-7.1-1.5-1.8-3.2-3.7-5.1-5.8-15.6-17.6-27.3-32.9-14.1-44.8z"/></g></svg>