<svg xmlns="http://www.w3.org/2000/svg" width="512" height="512"><path d="M263.3 197.7l1 3 1.2 3.3c.7 2 1.4 3.9 2.1 5.9.6 1.6 1.2 3.2 1.8 4.7.7 1.8 1.3 3.5 2 5.2.6 1.6 1.2 3.2 1.9 4.8.7 1.7 1.4 3.4 2.1 5l1.8 4.2c1.3 3 2.6 5.9 3.8 8.6v.1c3.9 8.4 8.6 17.6 16 23.9 0 0 .1 0 .1.1 1.1 1 2.3 1.9 3.6 2.7 1.3.9 2.7 1.7 4.2 2.4 4.4 2 9.4 3.1 14.8 3.1 6 0 12-1.2 17.9-2.9l16.3 50.5c1.2 3.8 1.4 7.5.3 11-1.5 5-6.6 9-11.5 13-.8.6-1.6 1.3-2.4 1.9-2.5 2-3.2 5.5-1.8 8.3 1.2 2.3 3.5 3.7 6.1 3.7.6 0 1.2-.1 1.8-.2 18.2-4.8 38.7-12.6 52.7-18.3 2.2-.9 5.6-2.4 9-4.1 2.8-1.5 4.3-4.7 3.5-7.8-.8-3.1-3.6-5.2-6.8-5.1-8.5.3-15.2-.8-19.4-3-7.3-3.8-11.2-15.5-14.4-25-.6-1.8-1.2-3.6-1.8-5.2l-9.9-27.5c8.8-3.9 17-8.9 22.4-15.9.3-.4.5-.7.8-1.1.3-.5.7-1 1-1.5.5-.9 1.1-1.8 1.5-2.7.9-1.8 1.6-3.8 2.1-5.8 0-.1.1-.2.1-.3.1-.3.1-.7.2-1 1.4-7 .3-13.8-1.2-21.3-.6-3.1-1.4-6.3-2.1-9.4l-.7-3.2h-.1c-4.5-18.1-10.3-35-16.3-52.6-2-5.8-4-11.7-6-17.7l-1.4-4.1-4 1.8c-17.1 7.6-97.6 34.7-98.4 35l-3.5 1.2 1 3.6c2.4 9.7 5.4 19.3 8.6 28.7zm114.9 18.2c.5 2.4.9 4.7 1.3 7 .6 4.2.7 8.2-.2 11.9 0 .1-.1.2-.1.3-.2.7-.4 1.5-.7 2.2 0 .1-.1.2-.1.2l-.9 2.1c-.1.2-.3.5-.4.7l-.9 1.5c-6.1 9.3-19 14.9-31.3 19.2-1.4.5-2.9 1-4.3 1.5-7 2.3-14.3 4.3-21.1 4.3-4.3 0-8.1-.8-11.5-2.4-9.8-4.5-15.5-15.4-20-25.3-1.2-2.6-2.4-5.2-3.5-8-.6-1.3-1.1-2.7-1.7-4.1-.6-1.4-1.2-2.8-1.8-4.3-.6-1.5-1.2-3.1-1.9-4.7-.6-1.4-1.1-2.9-1.7-4.4-.6-1.5-1.2-3.1-1.7-4.6-.6-1.7-1.2-3.3-1.8-5-.3-.9-.6-1.8-.9-2.6 2.2-.7 4.7-1 7.1-.8 4.9.5 9.6 2.6 14.5 4.7 1.3.6 2.7 1.2 4 1.7 4 1.7 10 4 16.3 4 2.3 0 4.5-.3 6.6-.9 4.8-1.4 8.8-4.3 12.7-7 4.8-3.4 9.2-6.6 13.8-5.8 2.9.4 5.6 2.5 8.5 4.6 1.5 1.1 3 2.2 4.7 3.3 4.6 2.8 9.9 4.3 15.6 4.6.4 2 .9 4 1.4 6.1zm-16.7 78.2c.6 1.6 1.1 3.3 1.7 5 3.6 10.8 8.1 24.2 18.3 29.4 4.6 2.4 10.8 3.7 18.5 3.9-1.6.7-3 1.3-4.1 1.8-12.5 5.1-30.3 11.9-46.7 16.7 5.1-4.1 10.5-8.9 12.4-15.5 1.5-5 1.4-10.4-.4-15.7l-16.3-50.4c.9-.3 1.7-.6 2.6-.9l4.2-1.5 9.8 27.2zm-7-156.1c1.6 4.6 3.1 9.2 4.7 13.7 5.8 16.8 11.3 32.9 15.6 49.9-3.5-.4-6.8-1.5-9.7-3.2-1.4-.9-2.8-1.9-4.1-2.9-3.4-2.5-7.2-5.3-12-6.1-7.7-1.2-13.8 3.1-19.6 7.2-3.5 2.5-6.8 4.9-10.3 5.9-5.6 1.6-13.1-.9-17.6-2.8-1.3-.5-2.6-1.1-3.9-1.7-5.3-2.3-10.8-4.7-16.9-5.4-3.5-.4-7.2.1-10.4 1.2-2.6-7.7-5.1-15.6-7.4-23.6 15-4.9 71.3-24 91.6-32.2zM104.4 382c17.1 8 37.8 15.1 52.2 19.7 2.3.7 5.8 1.8 9.5 2.6.5.1 1 .2 1.5.2 2.6 0 5-1.5 6.1-3.9 1.4-2.9.6-6.3-1.9-8.2-6.7-5.2-11.1-10.3-13-14.7-3.2-7.6 1.3-19.1 4.9-28.4.7-1.8 1.4-3.5 2-5.1l10-27.4c6.1 1.8 12.5 3 18.7 3 7.9 0 14.7-2.1 20.2-6.2 1.5-1.1 2.9-2.4 4.1-3.7 4.1-4.4 6.9-9.6 9.3-14.1 2.7-5.1 5.2-10.2 7.6-15.2.1-.3.3-.6.4-.9 1-2.1 2-4.2 2.9-6.4.3-.6.5-1.3.8-1.9.8-1.9 1.6-3.7 2.4-5.6.3-.7.6-1.4.9-2 .8-1.9 1.6-3.9 2.4-5.8l.6-1.5c2-5.1 4-10.1 5.9-15.1l1.9-4.9 1.2-3c2.2-5.8 4.4-11.6 6.7-17.5l1.6-4-4.2-1.2c-18-5.1-97.2-35.9-98-36.2l-3.5-1.4-1.5 3.4c-8.8 19.8-16.6 40.1-22.4 58.6l-1.2 4.2c-.1.3-.1.5-.2.8-.7 2.4-1.4 4.7-2 7-.3 1-.6 1.9-.8 2.9-2.1 7.9-3.9 16.1-3.5 24 .2 4.7 1.2 9.3 3.2 13.7.7 1.5 1.6 3 2.5 4.3 5.3 7.7 13.5 12.7 22.5 16.7L134.4 358c-1.4 3.7-3.8 6.7-6.8 8.6-4.4 2.9-10.8 2.7-17.1 2.6-1 0-2.1 0-3.1-.1-3.1 0-6 2.1-6.7 5.3-.8 3 .8 6.2 3.7 7.6zm32.7-130c.5-2 1.1-4 1.7-6 .8.4 1.6.8 2.4 1.3 5.2 2.8 10.7 5.6 17.1 5.6h.7c5.9-.2 11-3 16-5.6 5-2.7 9.6-5.3 14.3-4.3 2.9.6 5.6 2.5 8.5 4.5 3 2.1 6.1 4.3 9.9 5.5 1.9.5 3.8.8 5.8.8 6.6 0 12.8-2.9 18.7-5.7 1.2-.6 2.4-1.1 3.5-1.6 2.2-1 4.4-1.7 6.6-2.1-.2.4-.3.9-.5 1.3-1.2 3-2.4 6-3.6 9.1-.4 1.1-.9 2.1-1.3 3.2-1.1 2.7-2.2 5.3-3.4 8-.4.9-.8 1.9-1.2 2.8-1.4 3.2-2.9 6.4-4.4 9.7-.6 1.2-1.1 2.3-1.7 3.5-1.4 2.8-2.8 5.6-4.2 8.3l-.9 1.8c-3.3 6.2-6.5 11.7-11.2 15.2-4.2 3.1-9.2 4.6-15.5 4.6-9.1 0-19.1-3.3-27.7-6.5-12-4.5-24.1-9.8-29.6-19.5l-.9-1.5c-1.3-2.7-2-5.6-2.3-8.5-.8-8 1.1-16.4 3.2-23.9zm24.8-68.8c14.7 5.7 70.2 27 91.1 33.8-1.8 4.6-3.5 9.1-5.2 13.6l-2.1 5.4c-4.2.2-8.7 1.2-13 3.1-1.2.5-2.5 1.1-3.7 1.7-5.2 2.4-10.5 5-15.4 5-1.3 0-2.4-.2-3.6-.5-2.6-.8-5-2.5-7.6-4.3-3.4-2.5-7-5-11.6-5.9-1.1-.2-2.3-.3-3.4-.3-5.9 0-11.1 2.8-16.1 5.5-4.3 2.3-8.4 4.5-12.5 4.7h-.4c-4.4 0-8.8-2.3-13.4-4.7-1.2-.6-2.5-1.3-3.8-1.9 5.3-17.5 12.5-36.5 20.7-55.2zm-30 189.9c4.3-2.9 7.7-7.1 9.7-12.3l19.8-49.1c.8.3 1.7.7 2.5 1l4.2 1.5-9.9 27.1c-.6 1.6-1.2 3.2-1.9 5-4.1 10.6-9.3 23.8-4.8 34.3 2 4.8 5.9 9.7 11.7 14.8-1.6-.5-3.1-.9-4.3-1.3-12.9-4.1-30.9-10.2-46.6-17.2 6.7.2 13.9 0 19.6-3.8zm122.248-104.037l7.83 1.045-2.804 21.013-7.831-1.045zM270.5 267.7c10 16.1 19.3 32.8 27.6 49.9l7.1-3.5c-8.4-17.2-17.9-34.3-28-50.5l-6.7 4.1zm-67.825-108.366l15.472 15.216-5.539 5.633-15.472-15.216zM235.2 181.9l7.7-1.7c-.7-3.2-1.5-6.3-2.2-9.4-2.3-9.7-4.4-18.8-6.3-29.9l-7.8 1.3c1.9 11.3 4.2 21 6.4 30.4.8 3 1.5 6.1 2.2 9.3z" fill="#585858"/></svg>