<svg xmlns="http://www.w3.org/2000/svg" width="512" height="512"><path fill="#585858" d="M112.3 149.9c-3.4 7.7-4.2 16.6-3.4 25.8h-.3l1 64.2c.1 16.8 5.6 33 15.9 47l1.1 1.5c.8 1.1 1.6 2.2 2.5 3.3 12.3 16.3 68.9 66.5 84.8 78.8 9.6 7.4 21.4 16.5 35.9 18.7 2.2.3 4.4.5 6.7.5 14.1 0 29.3-6.4 42.8-18.2 7.4-6.5 27.4-23.2 43.4-36.6 10.9-9.1 20.2-16.9 23.4-19.7 12.6-10.9 22.3-24.8 29.7-42.8 5.3-12.8 7.9-26.8 7.7-41.8l-.6-52.7c.5-5.4.4-10.8-.3-16.3-1.8-13.1-9.5-24.1-21.1-30-8.4-4.3-19.2-6.5-32-6.5-7.5 0-15.7.7-25 2.2-26.5 4.2-48.5 14.2-68.7 31.5-24-17.6-53.3-34.9-89.3-34.9-4.3 0-8.7.2-13.1.7-20.9 2.4-34.7 10.9-41.1 25.3zm96.5 21c0-10.6-.1-22.2 0-30.4 13.5 5.5 25.9 13.1 37.1 21v30.8c-4.7 2.8-8.9 6.5-12.6 10.8-3.6-.1-7.3.1-10.9.5-.5.1-1 .2-1.5.4-3.5-4.4-7.6-8.1-12.2-11.1.1-3.9.1-10.5.1-22zm73 62.6c1.4-10.8 1.4-20 .1-27.4 37.6-2.7 61.9-3.6 94.9-4.8 4-.1 8.2-.3 12.4-.5-5.2 12.9-13.4 25.3-23.3 37.1-31.4 3.1-54 4.8-85.4 4.8.5-3 1-6.1 1.3-9.2zm-3 17.2c29.7.1 51.5-1.4 79.4-4.1-30.4 32.5-72.1 59-96.2 72.9-2.4 1.4-4.6 2.1-6.8 2.3h-.7l.7-56.1c2.5.8 4.9 1.2 7.3 1.2 2.3 0 4.5-.4 6.5-1.3 4.9-2.1 7.8-7.8 9.8-14.9zm-129.3.1c15.8 16.1 33.8 30.6 49.2 42.9.8.6 1.6 1.3 2.4 1.9-.2 7.8-.8 37.3-.3 53.8-15.9-13.8-36.7-32.7-51-46.8.1-7.6.4-32.9-.3-51.8zm59.5 24.9c-.1-4.8-.1-9.8 0-15.3 3-2.1 5.9-4.6 8.2-7.4.8-1 1.7-2 2.4-2.5l-.1-.1c1.9.7 3.9 1.1 6.1 1.1 3 0 5.9-.6 8.5-1.3l-.2.3c.7.5 1.6 1.5 2.6 2.7 3 3.4 6.7 6.6 10.8 9l-.7 57.4c-2.7-1.5-5.4-3.5-8.1-5.5-1.4-1-2.7-2.1-4.1-3-9.1-6.4-17.7-13-25.4-19.1.2-5.9.1-11.2 0-16.3zm22.9-64.8h1.5c.4 5.1.8 10.1 1 15.2.3 5.5.5 10.9-.6 15.6 0 .1 0 .2-.1.3-4.1 1.1-8.7 2.1-12 .8-.3-.1-.5-.2-.5-.3-.4-.8-.5-3.1-.5-4-.1-7-.1-14.1.1-20.9.1-4.1 1.9-6.1 2.6-6.2 2.9-.3 5.7-.5 8.5-.5zm42.1 21.6c-.7 5.9-3 23.7-8.2 26-6.2 2.7-17.2-3.3-23.5-10.6-.5-.6-1.1-1.2-1.7-1.9.4-.9.7-1.7.9-2.5 1.3-5.7 1.1-11.7.7-17.8-.3-5.5-.7-11-1.1-16.5-.1-.8-.2-1.6-.5-2.5 4.4-4.8 9.6-8.5 15.3-10.8 8.5-3.4 12.7-2.7 15.4 2.5 3.7 7.2 4.6 18.9 2.7 34.1zm-58.9-23.1c-1.2 2.3-2 5.1-2.1 8.1-.1 6.9-.1 14.1-.1 21.2 0 2.2.2 4.4.9 6.4-1 .9-1.9 1.9-2.9 3-6.1 7.1-17.1 13-23.3 10.3-5.3-2.3-7.4-19.5-8.2-26-1.9-15.1-1-26.9 2.7-33.9 2.7-5.2 6.9-5.9 15.4-2.5 6.8 2.7 12.8 7.3 17.6 13.4zm-30.5 56.3c2 .9 4.2 1.3 6.5 1.3 3.2 0 6.6-.8 10-2.2 0 3.9 0 7.5.1 11.1.1 3.2.1 6.5.1 9.9-14.3-11.4-30.5-24.6-44.9-39.2l17.7 1.3c1.8 8.3 4.9 15.3 10.5 17.8zm-12.9-32.2l.9 6.3-24.2-1.7c-4.2-4.6-8.1-9.3-11.7-14.2-4.4-6-9.1-14.1-12.9-23.1 15.7.7 23.7 1.3 29.9 1.7 6.4.5 10.5.7 18.5.8-1.9 8-2.1 18-.5 30.2zm-38.8 50.2l-1.1-1.5c-9.3-12.7-14.3-27.3-14.4-42.5l-.5-34.6c3.7 8.5 8.3 16.6 13.3 23.4 3.3 4.5 7 9 10.9 13.3v.2c1 14.5 1 38.9.9 52.6-2.9-3.1-5.2-5.7-6.7-7.7-.8-1-1.6-2.1-2.4-3.2zm75.9 72.5c-.4-6.8-.1-39.1.1-54.4 6.5 5.1 13.6 10.4 21 15.6 1.3.9 2.6 1.9 4 2.9 4 3 8.1 6.1 12.8 7.8l-.6 52.1c-10.3-3-19.3-9.9-27.3-16-2.7-1.9-6.1-4.7-10-8zm128.8-27.4c-16.1 13.4-36.1 30.2-43.6 36.8-12.8 11.3-27.3 17-40.2 16.1l.6-52c.5 0 .9 0 1.4-.1 3.3-.2 6.7-1.4 10.1-3.3 24.2-14 65.7-40.4 96.7-73.2-1 19.2-1.2 38.5-1.2 55.6l-.6.6c-3.1 2.7-12.4 10.5-23.2 19.5zm50.8-59.4c-5.1 12.4-11.4 22.8-19 31.4.1-23.6.7-41.1 1.7-57.1 10-11.8 18.4-24.3 24.1-37.3l.3 24.3c.2 13.9-2.2 26.9-7.1 38.7zM256.1 168.9l2.4-2.1c19.8-17.5 41.1-27.6 67.1-31.7 8.9-1.4 16.7-2.1 23.8-2.1 11.6 0 21.1 1.9 28.4 5.6 9.3 4.8 15.4 13.5 16.9 24.1.6 4.3.7 8.7.4 13h-.2v2.1c-.5 5-1.5 10.1-2.9 15-5.4.2-10.6.4-15.5.6-33.5 1.2-58 2.1-96.6 4.9-.5-1.2-.9-2.3-1.5-3.4-6.6-12.9-19.5-8.5-24.6-6.5v-21.3l2.3 1.8zm-89.7-37.1c12.3 0 23.8 2.2 34.6 5.8-.2 8.5-.1 21.5-.1 33.3v18c-.2-.1-.3-.2-.5-.2-4.5-1.8-18.3-7.2-25.3 6.2l-.3.6c-9.6 0-13.7-.3-20.7-.8-6.6-.5-15.4-1.1-33.5-1.9-4.5-13.6-6.3-28.2-1.2-39.7 5.1-11.7 16.8-18.6 34.7-20.6 4.2-.5 8.3-.7 12.3-.7z"/></svg>