<svg xmlns="http://www.w3.org/2000/svg" width="512" height="512"><path d="M304 106.7c-12.7-5.6-27.5-8.4-44.1-8.4-2.7 0-5.3.1-8 .2-17.4.9-31.2 5.1-42.2 12.9-5.4 3.8-10.5 5.9-15.5 7.9-8.8 3.5-17.8 7.2-25.4 19.6-11.1 18.2-13.5 41.5-6.4 60.6 2.5 6.7 5.3 11.5 8.4 14.4-1.1-.2-2.2-.3-3.3-.3-4.3.2-8.1 2.5-9.9 5.9-1.1 2.1-1.3 4.3-1.4 6.1-.1 2.3-.1 5.3.9 8.2 1 2.8 2.7 5 4.2 6.9l11.5 14.8c3.6 4.7 7.7 9.4 13.9 10.4.7.1 1.4.2 2.1.2 1.8 0 3.5-.4 5-1.2 4 9.7 9.2 19.9 16.1 30.4 10.6 16.1 26.6 25.1 45.1 25.2h.4c20.3 0 40.3-10.8 52-28.1 5.7-8.4 9.7-17.1 12.5-25.7 1.1.4 2.2.8 3.5.9.4 0 .9.1 1.3.1 4.7 0 9.5-2.5 12.9-6.8 3.1-3.8 4.7-8.3 6.1-12.3l5.4-14.8c.9-2.6 2-5.5 2.2-8.7.3-4-.9-7.8-3.4-10.3-2.1-2.2-5.1-3.4-8.5-3.6l.9-.3c6-2.2 10.4-6.3 12.9-12.2 7.4-17.2-3.1-42.9-5.3-47.9-8.5-19.4-24.5-35.5-43.9-44.1zM182.7 217c0 .9.1 1.8.2 2.8-1-.8-2.1-1.5-3.2-2.2 1-.1 2-.3 3-.6zm8 40.7c-.5.5-1.6.7-2.7.5-3.4-.6-6.2-3.9-9-7.5L167.6 236c-1.2-1.5-2.4-3.1-3-4.7-.6-1.6-.6-3.6-.5-5.2.1-1 .2-2.2.5-2.9.5-.9 1.8-1.6 3.3-1.7 1.6-.1 3.4.4 5.7 1.6 4.3 2.2 8 5.5 10.7 9.5l.1-.1c1.3 7.7 3.3 16.1 6.4 25 0 .1 0 .2-.1.2zM300.9 288c-10.4 15.3-28.1 24.9-45.8 24.7-15.8-.1-29.5-7.8-38.6-21.6-8-12.1-13.6-23.7-17.6-34.5-.1-1.4-.5-2.8-1.3-3.9l-.1.1c-5.3-16-7-30-7.1-41.1 10.4-11.2 18.1-35.7 21.2-50.9 16.4 20.1 38.3 31.6 54.7 37.8 16 6.1 35.9 12.9 53.3 14.3l-.1 2.7c-1 21.4-2.1 48.1-18.6 72.4zm42.6-63.4c-.1 2.1-.9 4.3-1.8 6.5l-5.4 14.8c-1.3 3.6-2.6 7.3-4.9 10.1-1.6 2-4.4 4.1-7.3 3.8-.8-.1-1.5-.4-2-.7 3.2-12.4 4.3-24.5 4.8-35.1 2.1-1.7 4.4-3.1 7-4 2.7-1 6.6-1.5 8.4.3.9.9 1.3 2.5 1.2 4.3zm-16.1-10.3l.1-1.2c1 0 1.9-.1 2.8-.1-1 .4-2 .8-2.9 1.3zm18.6-18.6c-1.7 3.9-4.4 6.5-8.3 7.9-3.2 1.2-7.3 1.8-12 1.8-19.6 0-46.5-10.3-56.6-14.1-17.3-6.6-41.1-19.3-56.7-42.6l-6.6-9.9-.6 11.9c-1 21.6-13.8 49.2-22 57h-.6v.6c-1.2 1.1-2.4 1.7-3.3 1.7h-.4c-1.4-.2-5-1.8-9.2-13-6.3-17-4.1-37.6 5.7-53.8 6.2-10.2 13-12.9 21.6-16.4 5.2-2.1 11-4.4 17.2-8.7 9.8-6.9 22.2-10.6 38.1-11.4 2.5-.1 5-.2 7.5-.2 15.5 0 29.2 2.6 40.9 7.8 17.7 7.8 32.2 22.4 39.9 40.1 4.5 9.6 10.5 29.5 5.4 41.3zm-99.6 189.6c1.7 1.2 3.7 1.8 6.2 1.8 1.1 0 2.3-.1 3.3-.3 1.6-.2 3.9-.6 6-1.9 5.3 3.6 11.1 7.5 17.5 10.4 7.4 3.4 14.5 5.2 21.1 5.2h1.6c1.5-.1 3.3-.2 5.1-1 3.9-1.7 6.4-5.9 6.3-10.7 0-3.8-1.5-7.2-3-10-1.6-3.2-3.3-5.1-5-7-.8-.9-1.6-1.8-2.5-3-.1-.1-.1-.2-.2-.3.3-.3.7-.7 1.1-1 .8-.7 1.6-1.5 2.2-2.3 4-5 4.7-6.1 6.9-11.4 2.1-5 .1-11.4-4.4-14.5-5.1-3.5-11.2-1.9-15.3-.4-11.5 4.1-22.4 10.4-31.6 18.3l-12.6-.4c-.3 0-.8 0-1.5.1-5.4-3.7-11.3-7.6-17.8-10.7-8-3.7-15.6-5.4-22.8-5.2-1.5.1-3.3.2-5.1 1-3.9 1.7-6.4 5.9-6.3 10.7 0 3.8 1.5 7.2 3 10 1.6 3.2 3.3 5.1 5 7 .8.9 1.6 1.8 2.5 3 .1.1.1.2.2.3-.3.3-.7.7-1.1 1-.8.7-1.6 1.5-2.2 2.3-4 4.9-4.7 6.1-6.9 11.4-2.1 5-.1 11.4 4.4 14.5 2.3 1.6 4.7 2.1 7.1 2.1 3 0 5.9-.8 8.2-1.7 11.1-3.8 21.6-9.8 30.6-17.3zm49.6-39.1c4-1.4 6.7-1.6 8.2-.5 1.5 1 2.2 3.4 1.5 5-1.9 4.6-2.2 5.1-5.7 9.5-.4.5-.9.9-1.4 1.4-1.8 1.6-5 4.6-3.6 8.9.4 1.3 1.2 2.3 1.8 3.1 1 1.3 1.9 2.3 2.8 3.3 1.6 1.8 2.7 3.1 3.9 5.4 1 2 2.1 4.4 2.1 6.6 0 1.6-.7 3-1.6 3.4-.6.3-1.5.3-2.2.4-5.8.3-12.3-1.2-19.1-4.4-6-2.8-11.7-6.6-16.9-10.1.2-1.3.1-2.6.1-3.5l-.3-10.4c8.8-8 19.2-14.2 30.4-18.1zm-45.8 28.5l.5-10.1 7.1.2.3 9.9c.1 2-.1 3.2-.4 3.6-.4.4-2 .6-2.7.7-.8.1-1.5.2-2.3.2-.6 0-1.5-.1-1.8-.4-.9-.7-.7-3.1-.7-4.1zm-45.3 21.1c-1.5-1-2.2-3.4-1.5-5 1.9-4.6 2.2-5.1 5.7-9.5.4-.5.9-.9 1.4-1.4 1.8-1.6 5-4.6 3.6-8.9-.4-1.3-1.2-2.3-1.8-3.1-1-1.3-1.9-2.3-2.8-3.3-1.6-1.8-2.7-3.1-3.9-5.4-1-2-2.1-4.4-2.1-6.6 0-1.6.7-3 1.6-3.4.6-.3 1.5-.3 2.2-.4 5.9-.3 12.3 1.2 19.1 4.4 5.8 2.7 11.4 6.4 16.5 9.9l-.5 11.2c0 1-.1 2.3.1 3.8-8.5 7.4-18.6 13.3-29.3 17.1-4 1.5-6.7 1.6-8.3.6z" fill="#585858"/></svg>