<svg xmlns="http://www.w3.org/2000/svg" width="512" height="512"><g fill="#585858"><path d="M260.9 246c-1.4 5.4-2.5 10.9-3.4 16.5-.3 1.8-.6 3.6-.8 5.5-.5 3.1-.9 6.2-1.5 9.2l-23.9 10.4c-3.7 1.6-8 3.5-11.4 6.8-3.3 3.2-5.1 7.3-5.2 11.3 0 3.4 1.3 6.6 3.9 9.1 2.7 2.7 6.5 4.2 10.6 4.2h.6c8-.3 14.1-5.7 18-9.7 3.8-4 6.7-7.8 8.9-11.7 2.6-4.7 4.2-9.6 5.4-14.6l15.7-6.8c-1.2 3.7-2.2 7.5-3.1 11.3-.1.6-.3 1.3-.6 2.1-1.2 4.2-3.1 10.6 1 14.8 1.9 2 4.4 3 7.1 2.9 7.1-.3 14-8 16-10.4-.1.5-.3.9-.4 1.4l-.9 3.5 6.5 2.8 1.8-2.9c4.6-7.3 11.5-15 18.9-21.4-.3.6-.5 1.1-.7 1.7-.5 1.5-.3 3.1.6 4.4.9 1.3 2.3 2.1 3.9 2.1 2.2 0 4 .2 5.5.7l-.5.5c-3.1 2.8-6.6 6-8.4 10.5l-2.4 6.1 6.5-.8c3.2-.4 7-1.1 10.2-3.4 4-2.8 6.1-7.3 5.3-11.6v-.1c1.4-1.1 2.7-2.1 4.1-3.2 3.3-2.5 6.6-5.1 10-8.2l-5 17.3c-.4 1.3-1.6 5.5 1.4 8.3 1.9 1.8 4.5 2.3 7.8 1.3 5.6-1.6 11-4.4 15.5-8.2l-5.1-6c-3.5 2.9-7.6 5.2-11.9 6.5l9.4-32.3c1.8-.1 3.6-.2 5.4-.4 3.3-.2 6.5-.4 9.5-.6l-.4-7.9c-2.7.2-5.7.3-8.6.5 3.6-5.6 6.4-11.6 7.8-18.1l.1-.8c0-3.6-2.3-5.3-4.3-5.6-3.6-.6-7.6 2.5-9.3 7.3-.3.8-.7 1.6-1.1 2.4-.6 1.2-1.3 2.7-1.7 4.2l-3.3 11.4c-4.1.2-8.2.4-12 .4v7.9c2.3 0 4.6-.1 7-.2l-2.1 2.4c-4.4 4.8-9 8.3-13.8 12.1-1.2.9-2.4 1.8-3.6 2.8-1.1-.8-2.3-1.5-3.6-2-1.2-.4-2.4-.7-3.6-.9 1.6-2.8 4-6.3 6.6-9.5 1.5-1.8 1.4-4.4-.1-6.2-1.5-1.8-4-2.2-6.1-1.1-7.1 4.1-14.8 10.3-21.6 17.1 1.6-4.9 3-9.5 4-13.2.6-2-.4-4.1-2.3-5-1.8-.9-4.1-.3-5.3 1.4-2.3 3.2-5.2 8.7-8 14-2.8 5.2-5.7 10.7-7.5 12.9-2.9 3.7-8 7.9-10.7 8-.5 0-.8-.1-1-.4-.9-1 .3-5.4.9-7.2.3-.9.5-1.7.7-2.5 1.2-5.1 2.7-10.2 4.4-15.3.7-2.1.1-4.5-1.5-6s-4-1.9-6.1-1l-15.3 6.7c.2-1.4.4-2.9.7-4.3.3-1.8.5-3.6.8-5.4 2-12.1 5.1-24 9.3-35.5 1.4-3 3.1-6.1 6-9.8.2-.2.4-.5.6-.7l-6.1-5c-.2.2-.4.5-.6.7-4.6 5.6-5.4 6.9-7.1 11.5 0 .1 0 .1-.1.2-.3.7-.6 1.4-.9 2-1.8 3.8-3 6.6-5.9 9.1-6.7 5.8-14.7 10.3-22.4 14.7l3.9 6.9c6.3-3.7 12.9-7.4 18.9-11.9zm-11.1 47.6c-1.8 3.3-4.3 6.6-7.6 10.1-4.7 4.9-8.6 7.2-12.6 7.3-2 0-4.1-.6-5.4-1.9-1-1-1.5-2.1-1.5-3.4 0-1.8 1.1-4 2.8-5.7 2.4-2.3 5.8-3.8 9.1-5.2l18.3-8c-1 2.3-1.9 4.6-3.1 6.8z"/><path d="M403.6 297.8c-.5-5.2-4.2-11-10.3-11.6l-3-.3-1.1 2.8c-6.3 15.6-10.9 31.9-13.8 48.5h-1.9c-6.6 0-13.2 3-18 8.1-2.5 2.7-4.4 5.8-5.6 9-3.4 2.7-6.7 5.5-9.4 7.8-3.8 3.3-6.3 4.5-7.9 3.7-1.7-.9-2.6-2-2.3-5.3 0-.4.1-.9.1-1.3 5.8-5 10.3-10.3 13.4-15.9 2-3.5 1-7.9-2.3-10.4s-7.6-2.3-10.2.4l-.3.3c-3.2 3.3-4.8 7.5-5.8 11.2-1 3.4-1.7 6.9-2.2 10.4-3.4 2.7-7.2 5.3-11.4 7.8 1.1-5.4 3.4-14 7.5-22.3l-6.8-3.9-12.1 18.8c-2.1 2.4-4.4 4.1-6.8 5.2-.8.4-1.5.6-2.2.8 2.7-6.2 5.5-12.3 8.5-18.3l3.6-7.5-13.6 3.2v-.2c-.2-2.4-1.6-5-3.4-6.6-1.4-1.2-3.1-1.7-4.8-1.5-3.6.4-6.6 4.2-7.4 5.6-1.4 2.4-1.7 5.6-.7 8.1.7 1.8 1.9 3.2 3.5 4-2.5 3.7-5.3 7.3-8.4 10.6-.7.8-1.5 1.5-2.4 2.1-1.7 1.3-3.6 2.5-5.4 3.2 2.6-6 5.4-12 8.2-17.8l3.6-7.5-13.6 3.2v-.2c-.2-2.4-1.5-5-3.4-6.6-1.4-1.2-3.1-1.7-4.8-1.5-3.6.4-6.6 4.2-7.4 5.6-1.4 2.4-1.7 5.6-.7 8.1.7 1.8 1.9 3.2 3.5 4-3.3 4.8-7 9.3-11.1 13.4-2.2 2.2-3.9 3.2-5.1 3-1-.2-2.1-1.7-2.3-3.2-.4-2.2.2-4.7.8-7.1l5.2-21.4-3.6-.9v-3.9c-14.6-.8-29.5 6.5-40 17.8 3.3-13 7.4-25.6 11.5-37.7 2.2-6.5 8-23.9-9.9-30.3-2.7-1-5.7-1.3-9-1l-1.4.1c-2 .2-2.7.2-4.2 1.2l-.5.3c-4 2.3-7.3 5.4-9.7 9.1-.3-1.2-.6-2.3-.9-3.6-2.2-7.3-6.5-10.8-12.7-10.3-3.3.2-6.5 1.7-9 4.2-1.3 1.3-2.6 2.7-3.8 4.1.3-2.7.5-5.4.5-8.1l.1-5.1-4.9 1.2c-15.5 3.7-21.9 13.4-30 25.6l-.6.9 6.6 4.3.6-.9c6.5-9.9 11.1-16.9 20.1-20.6-1 10.9-4.3 21.7-7.6 32.1L107 374.7l7.5 2.3 17.8-57.3c1.6-5.2 3.1-10.1 5.3-14.8 3.1-6.7 7.2-12.7 12.4-17.9 1.2-1.1 2.6-1.8 4-1.9 1.7-.1 3.2.1 4.6 4.7 2 6.5 2.1 12 1.1 18.2-8.2 22-13.6 45-18.8 67.4 0 .1 0 .2-.1.3l7.7 1.8c4.7-20 6.7-26.3 9.3-34.2.9-2.6 1.8-5.5 2.9-9l1.3-4.2c2.4-7.7 4.4-14.1 5.4-20 1.5-4.1 3.2-8.1 4.9-12.1 1.7-3.8 4.6-6.9 8.4-9.1l.6-.4c.2 0 .5 0 .9-.1l1.5-.1c2.1-.2 4 0 5.6.6 7.8 2.8 9.2 8.1 5.1 20.4-7 21-14.1 43.4-17.4 66.8l7.8 1.1c1.8-11.7 9.8-22.8 20-29.8-3.2 4.7-5.4 10.2-6.3 16.2-.2 1.3-.8 4.9 1.4 7.8 2.9 4 8.5 4 12.5 2.4 3-1.2 5.6-3.4 8.1-6.6.9 3.8 3.7 7.9 8.3 8.8 5.3 1.1 9.5-2.4 12.2-5.1 5.9-5.9 11.1-12.5 15.3-19.7l2.3-.6c-2.5 5.3-4.9 10.8-7.2 16.2l-1.5 3.6 3.5 1.6c7.2 3.2 14.2-2 17.6-4.4 1.3-.9 2.5-2 3.5-3.2 4.7-5.1 8.8-10.6 12.3-16.6l2.3-.6c-2.5 5.4-4.9 10.8-7.2 16.2l-1.5 3.6 3.5 1.6c3.8 1.7 8.1 1.5 12.8-.6 2.4-1.1 4.7-2.5 6.8-4.5 0 .1 0 .3-.1.4-.5 2.6.6 5.2 2.8 6.8 2.2 1.5 5 1.7 7.3.4 3.3-1.9 6.4-3.8 9.3-5.8.6 2.7 2.3 5.7 6.3 7.7 7.1 3.6 14.1-2.5 16.7-4.8.9-.8 1.9-1.7 3-2.5.2 1.5.8 3.1 2 4.5 1.6 1.8 4 2.9 6.7 2.9h.2c7.2 0 11.8-6.6 13.8-9.4l4.5-6.6c.5 1.1 1 2.1 1.8 3.1 5.8 8 16.2 8.5 25.7 7.9l-.5-7.9c-7.3.5-15.2.3-18.8-4.6-1.6-2.3-2-5.2-1.9-8.5 7-11.7 13.2-23.8 18.6-36.3 1.5-4.1 3.1-8.3 2.7-13zm-67.1 41.3c.1 0 .4.2.4.4-1 1.8-2.1 3.5-3.5 5.2.8-2.1 1.8-4.1 3.1-5.6zm-120.6 20.2c-2.2 3.8-4.5 6.2-6.8 7.2-1.3.6-2.8.5-3.1.2 0-.1-.2-.5.1-1.9 1.6-9.8 7.5-18.4 15.5-22.3.4-.2 1.3-.6 2.5-1-2.1 6.2-4.9 12.2-8.2 17.8zm35-15l-.7.2c0-.3.1-.6.2-.8.2-.4.6-.8.9-1.1v.2c0 .3-.2.9-.4 1.5zm30.6-3.4l-.7.2c0-.3.1-.6.2-.8.2-.4.6-.8.9-1.1v.2c0 .3-.2.9-.4 1.5zm83.4 18.1c-2 2.8-4.6 6.1-7.3 6.1h-.1c-.5 0-.8-.2-.9-.2 0 0-.2-.3-.3-1.6-.1-1.5 0-2.9.4-4.4 6.6-5.2 13.3-10.3 16.8-12.9-2.8 4.4-5.6 8.7-8.6 13zm28.5-51.5c-2.2 5.1-4.5 10.1-7 15.1 2.2-9.1 5-18 8.3-26.8.5.8.8 1.7.9 2.7.4 2.8-.8 5.9-2.2 9z"/><path d="M318.5 319.1l-1.1.8c-3.6 2.8-4.8 8-2.7 12.1l1 2.1 2.6.1c2.4 0 4.5-1.5 5.7-4.1 1.2-2.7 1.3-5.9.1-8.7l-1.7-2.4h-3.9zM160.2 261c1.4 1.6 2.8 3 3.8 4.3l3 3.6 3-3.7c6.2-7.6 8.9-11.3 13-17.5 2.4-3.6 5-9.7 5.1-14.6 0-3.1-1.3-6.3-3.5-8.5s-5.1-3.3-8-2.9c-2.2.3-4 1.5-5.2 2.3-2.2 1.6-4.2 3.6-5.9 5.8-.8-1.3-1.8-2.6-3-3.7-3.2-2.9-7.8-3.8-11.3-2.2-2.9 1.3-5 4.2-5.6 7.7-.5 2.7-.1 5.3.3 7.5 1.4 7.6 8.5 15.5 14.3 21.9zm-6.8-27.9c.2-.9.7-1.7 1.2-2 .1-.1.3-.1.5-.1.7 0 1.6.4 2.2 1 1.3 1.2 2.3 3.2 3.2 5.1l5.7 11.8 3-9.2c1.2-3.7 3.6-6.9 6.7-9.2.3-.2 1.2-.8 1.9-.9.3 0 .7.2 1.1.6.7.7 1.2 1.9 1.2 2.9 0 3-2 7.7-3.7 10.3-3.3 5-5.6 8.2-9.6 13.3-.3-.3-.6-.7-.9-1-4.8-5.3-11.4-12.5-12.3-17.9-.2-1.6-.4-3.3-.2-4.7zm52 27.2c1.3 1.7 2.5 3.3 3.4 4.6l2.7 3.9 3.3-3.4c6.9-7 9.7-10.4 14.5-16.3 2.7-3.4 5.8-9.2 6.3-14.1.3-3.3-.8-6.7-3-9.2-1.9-2.1-4.3-3.2-6.9-3.2h-.6c-2.2.1-4.1 1.1-5.3 1.8-2.4 1.4-4.5 3.2-6.3 5.3-.7-1.4-1.6-2.7-2.7-4-2.9-3.1-7.5-4.5-11.1-3.2-3 1.1-5.3 3.7-6.3 7.2-.7 2.6-.6 5.2-.4 7.5.8 7.8 7.2 16.3 12.4 23.1zm-4.3-28.3c.3-.9.8-1.7 1.7-1.9.7 0 1.6.5 2.3 1.2 1.2 1.3 2 3.4 2.8 5.4l4.7 12.2 3.8-9c1.5-3.6 4.2-6.6 7.5-8.6.3-.2 1.2-.7 1.9-.8.4 0 .8.4 1 .6.7.8 1.1 2.1 1 3.1-.3 3-2.6 7.5-4.6 10-3.8 4.7-6.3 7.7-10.8 12.4-.3-.4-.5-.7-.8-1.1-4.3-5.7-10.3-13.5-10.7-18.9-.1-1.6-.2-3.3.2-4.6z"/><path d="M394.2 161.2c-10.6-4-21.5-6-32.4-6-7.2 0-14.2.9-21.1 2.4-6.4-9.6-13.3-20.3-19.4-29.6-10.4-16-20.3-31-25.5-38.4-1.5-2.1-2.8-4.3-4.2-6.5-5.1-8-10.3-16.3-19.4-20.3-7.3-3.2-16.4-2.9-24.8.9C236.1 68.8 228.6 79 222 88l-.3.5c-6.7 9.1-13.7 18.3-20.5 27.2l-2.8 3.6c-3.8 4.9-7.6 10-11.5 15.2-7.2 9.5-14.5 19.2-21.9 28.7-23.1-2.4-44 1-64.6 10.7-51.3 24.2-58.3 84.8-48.7 129.5 12.4 57.8 48.7 101.1 102.1 121.9 34 13.3 71.6 20.3 108.6 20.3 6 0 12.1-.2 18.1-.6 44.3-2.7 89.3-20.4 123.4-48.5 27.5-22.7 60.3-62.4 59.9-122.5-.3-52.6-27.6-96.9-69.6-112.8zm-200.9-21.9c3.9-5.1 7.7-10.2 11.4-15.1l2.8-3.6c6.8-8.9 13.8-18.1 20.5-27.3l.3-.5c6.3-8.6 12.9-17.5 22.3-21.8 6.4-2.9 13.1-3.2 18.4-.9 6.9 3 11.2 9.9 15.9 17.3 1.5 2.3 2.9 4.6 4.4 6.8 5.1 7.3 14.9 22.3 25.3 38.2 6.8 10.4 12.8 19.5 18 27.4-23.6 7.1-45.8 21.4-67.4 35.4-2.1 1.4-4.3 2.8-6.4 4.1-34.8-23.5-56.6-30.6-84.6-34.9 6.4-8.4 12.8-16.8 19.1-25.1zM399 390.5c-32.9 27.1-76.2 44.1-118.9 46.7-41.6 2.5-84.8-4.2-123.3-19.2-51.6-20.1-85.2-60.3-97.3-116.2-9-41.8-2.8-98.5 44.4-120.7 15.4-7.3 31-10.8 47.6-10.8 2.6 0 5.2.1 7.9.3-1.8 2.2-3.5 4.4-5.3 6.6-1-.2-2.1-.3-3.1-.3-5.5 0-10.5 2.7-12.9 7.1-1.9 3.4-2 7.9-.2 11.7 1.7 3.6 4.7 6 8.3 6.7.7.1 1.3.2 2 .2 4.9 0 9.6-3.2 11.7-7.9 1.6-3.7 1.6-8.1.1-12.2 2.9-3.6 5.8-7.2 8.7-10.9.3 0 .5 0 .7.1 29.9 4.2 50.5 10.7 87.1 35.6l2.1 1.5 2.2-1.4c2.9-1.8 5.7-3.7 8.6-5.5 21.8-14.1 44.3-28.6 67.7-35.1 4.4 6.6 8.1 12.1 11 16.2-1.5 2.2-2.3 4.8-2.1 7.4.1 1.8.7 3.6 1.7 5.2 2 3.4 6 5.5 10.3 5.5 4.1 0 7.8-1.9 9.9-5 2.2-3.2 2.5-7.5.8-11.4-1.7-3.9-5-6.6-8.8-7.2-1.9-.3-3.8-.1-5.6.6-2.5-3.6-5.6-8.1-9-13.2 5.4-1 10.9-1.6 16.4-1.6 10.1 0 19.8 1.8 29.6 5.5 38.9 14.7 64.3 56.1 64.6 105.4.5 56.9-30.7 94.7-56.9 116.3zM151.7 192.2c.3-.4.6-.8.9-1.1 0 .1-.1.2-.1.3-.9 2-3.1 3.5-5.1 3.2-1.5-.3-2.3-1.7-2.6-2.3-.7-1.5-.7-3.3 0-4.5.4-.8 1.2-1.4 2-1.9-.4.4-.7.9-1.1 1.3l6 5zm208.8-6.1c.5.5.8 1 1.1 1.6.5 1.1.7 2.7-.1 3.8-.6.9-1.9 1.5-3.4 1.5-1.6 0-3-.7-3.6-1.7-.1-.1 0-.2-.1-.3.4.4.7.8 1 1l5.1-5.9z"/></g></svg>