<svg xmlns="http://www.w3.org/2000/svg" width="512" height="512"><g fill="#585858"><path d="M424.9 358.8c1.7-1.7 3.1-3.2 2.9-102.6-.1-53.8-.7-112-1-135.2-.1-6-5.1-11-11.1-11-1.4 0-2.9.3-4.2.8-30.7 12.5-70.4 28.7-85.4 34.7-2.6 1-5 1.9-7.4 2h-.6c-3.8 0-7.5-1.7-11.4-3.7-9.2-4.6-21.9-9.7-34.2-14.6-12.2-4.9-24.7-9.9-33.6-14.3-9.6-4.8-19.4-9.8-30.3-13.4-3.2-1.1-6.9-2-10.6-1.5-1.8.3-3.3.9-4.7 1.4l-14.2 5.4c-26.3 10-53.5 20.4-77.8 31.5-3.6 1.6-8.4 3.8-10.9 7.8-1.8 2.8-1.9 5.9-2 8.2-.8 20.5-1.6 69.8-2.4 117.4-.7 40.2-1.3 81.8-2 105.9-.1 3 1 5.9 3.1 8 3.2 3.3 8.3 4.3 12.5 2.5 17.3-7.5 31.2-12.4 47.3-18.1 12.8-4.5 27.2-9.6 45.8-16.9 1.1-.4 2.6-.6 4.1-.5 1.5.1 2.9.8 4.8 1.8 5.6 2.9 12.5 5.5 19.8 8.4 4.7 1.8 9.6 3.7 14.4 5.7 21.9 9.3 56.6 23 84.3 33.8l1.3.5 2.4-.8c29-9.9 65.1-22.3 91.2-36.4 3.8-2.1 7.3-4.1 9.9-6.8zm-235-13.1c-18.4 7.2-32.9 12.3-45.6 16.8-16.3 5.7-30.3 10.7-47.8 18.3-1.3.6-2.7.2-3.7-.7-.4-.4-.9-1.2-.9-2.3.7-24.1 1.3-65.7 2-105.9.8-47.6 1.6-96.8 2.4-117.2.1-2 .2-3.3.8-4.3 1.2-1.9 4.8-3.6 7.5-4.8 24-11 51.1-21.3 77.3-31.3l14.2-5.4c.5-.2.9-.3 1.4-.5-.9 29.5-1.4 53.7-1.8 76-4.5 1.1-8.5 2.8-12.1 4.4l3.4 7.1c3.2-1.5 6-2.5 8.6-3.3-.2 14.1-.3 27.5-.4 41.2-.3 31.9-.6 65-1.7 111.2-1.2 0-2.4.3-3.6.7zm34.4 9.6c-7.1-2.7-13.9-5.3-19-8-1.1-.5-2.4-1.2-3.8-1.7 1.1-46.6 1.4-79.8 1.7-111.9.1-14.2.2-28.1.4-42.7.8-.1 1.6-.2 2.4-.2V183c-.8 0-1.6 0-2.3.1.3-21.8.8-45.5 1.7-74.3.2.1.5.1.7.2 10.4 3.5 20 8.3 29.3 13 9.2 4.6 21.9 9.7 34.2 14.6 12.2 4.9 24.7 9.9 33.6 14.3 4.8 2.4 10 4.7 16 4.5.3 0 .6-.1.9-.1 1 77 0 126.3-2.1 222.5l-.3 14.9c-26.7-10.5-58.2-23-78.7-31.6-5-2.1-9.9-4-14.7-5.8zm101.2 37.8l.3-15c2.1-97.2 3.1-146.5 2-224.8.4-.2.8-.3 1.2-.5 15-6 54.8-22.2 85.5-34.7 1.9-.8 4.4.4 4.5 2.9 1 75.7 1.9 219.3-.3 232.9-1.8 1.7-4.4 3.1-7.2 4.7-24.4 13.2-58 24.9-86 34.5z"/><path d="M387.5 210.1c-2.2-1.2-5.2-1.3-8-.3-2 .7-3.8 1.9-5.3 3.3-2.1-2.2-5.2-3.7-8.5-3.8h-.5c-1.9 0-3.6.5-4.9 1.4-2.6 1.9-2.8 4.9-2.8 5.9-.5 9.1 4.7 17.2 8.9 23.8l5.6 8.9 3.1-1.4c1.8-.8 2.8-2.1 3.5-2.9 5.7-6.8 13.4-16 13.3-26.7-.1-5.1-2.8-7.3-4.4-8.2zm-13.4 28l-1.2-1.8c-4.5-7.1-7.9-13-7.6-19 2.1.1 3.9 1.6 4 2.8.3 3.1 2.3 5.3 5 5.3l4.2-1v-3c0-1.6 1.5-3.4 3.5-4.1.5-.2.9-.3 1.3-.3h.4s.2.4.2 1.4c.2 6.6-4.2 12.9-9.8 19.7zm-235-6.2l6.8 4 9.3-16-6.8-4zm18.2-23.9l6.7 4.1c2.9-4.8 6.9-8.9 11.6-12l-4.4-6.5c-5.5 3.7-10.3 8.7-13.9 14.4zm58.9-16.3c5 0 9.5 1.7 13.9 5.2l4.9-6.2c-5.9-4.6-12-6.8-18.8-6.8v7.8zm31.3 6.8l-5.2 5.9c3.9 3.5 7.2 7.5 9.8 12.1l6.9-3.9c-3.1-5.3-6.9-10.1-11.5-14.1zm8.66 30.675l7.852-.864 2.156 19.582-7.853.864zM268.4 261.4l-7.9-.3c-.2 6.4.6 16.7 2.5 22.8l7.5-2.4c-1.5-5-2.3-14.4-2.1-20.1zm6.9 34.2l-7.8 1.4c.6 3.6 2.9 7.5 6.8 11.8 3.6 4 8 6.8 13 8.5l2.5-7.5c-3.8-1.3-6.9-3.3-9.7-6.3-3.7-4.2-4.6-6.8-4.8-7.9zm38.6 16.3c-6.6 2.2-9.5 2.7-16.1 1.1l-1.8 7.7c3.3.8 6 1.1 8.5 1.1 3.9 0 7.4-.9 12-2.4l-2.6-7.5zm18.1-6l3.9 6.9c9.2-5.2 14.4-13.9 16.3-20.4l-7.6-2.2c-1.4 5-5.5 11.7-12.6 15.7z"/><path d="M373.3 182.9c-6.3 0-12.4 2-17.5 5.8-10 7.4-15.1 17.1-15.6 29.6v.6c0 .4-.1.8 0 1.1.1 14.3 8 27.2 14.9 38.6l.7 1.2c4.3 7 4.8 7.9 10.4 20.6 1.2 2.8 4 4.6 7 4.6 2.9 0 5.6-1.6 6.8-4.3 1-2 2.6-5.3 5.3-11 2.7-5.5 5.8-11.1 10.1-18.2l1-1.7c7.3-11.9 16.5-26.8 11.1-42-5-14.3-19.7-24.9-34.2-24.9zm16.5 62.7l-1 1.7c-4.4 7.2-7.7 13.1-10.5 18.8-2.6 5.3-4.1 8.5-5.1 10.6-5.6-12.7-6.3-13.8-10.7-21l-.7-1.2c-6.4-10.5-13.6-22.4-13.7-34.5v-2c.5-9.9 4.5-17.2 12.4-23 3.9-2.8 8.2-4.3 12.9-4.3 11.1 0 22.9 8.6 26.8 19.6 4.1 11.7-4 24.8-10.4 35.3zM130.9 250c-1.1 2.1-5.4 9.8-6.7 11.7l6.6 4.2c1.4-2.2 5.9-10.3 7-12.3l3.7-7-6.9-3.7-3.7 7.1z"/></g></svg>