<svg xmlns="http://www.w3.org/2000/svg" width="512" height="512"><g fill="#585858"><path d="M412.2 395.2l-.2-3.9c-1.6-33.5-2.4-69.5-3.1-104.3-.7-34.9-1.5-71-3.1-104.6l-.2-3.8h-3.8c-18.1.1-36.5 0-54.9-.1 0-2 0-4-.1-5.9 0-3.6-.1-7.1 0-11 1.3-.1 2.7-.1 4-.2l3.8-.2v-9.4c14-.1 29.2-.3 47.5-.7l3.7-.1.2-3.7c.5-9.6 0-23.8 0-24.4l-.1-3.7-3.7-.1c-11.6-.2-25.8-.4-38.9-.6l-8.7-.1v-11l-3-.7c-4.9-1.2-11-.8-16.6-.1l-2.2.3c-9.4 1.1-19.1 1.1-28.5.1l-4.1-.5-.2 4.2c-.1 2.4-.2 4.9-.3 7.4-8.8 0-17.6-.1-26.4-.1-17.8 0-36.3.1-54.9.3-.1-2.1-.1-4-.3-5.7l-.2-3.5-3.5-.1c-6.7-.3-17-.4-27.5-.4-5.6 0-10.9 0-15 .1l-3.9.1.2 9.2v1.1c-21.5.4-43 1-63.9 1.7l-4.2.1.4 4.2c.7 6.7 1.3 13.5 2 20.3l.5 5.7 3.2.3c5.4.6 12.2.8 20.8.8 11 0 23.2-.4 35-.9l8.1-.3c.1.4.1.8.2 1.1.2 1.4.7 3.9 2.7 5.7 1.9 1.7 4.4 1.9 5.7 2h.5c.1 1.5 0 3.1-.1 4.7l-.8 12.9c-23.9.4-45.4 1.1-65.6 2.2l-3.4.2-.3 3.4c-5.4 56.1-8 131.9-7.1 208v3.7l3.6.2c50.3 3.1 101.3 4.7 151.8 4.7 50.3 0 101.2-1.6 151.3-4.7l3.6.1zm-49.1-268.6c11.7.1 24.3.3 35.1.5.1 4 .2 10.5 0 16.3-16.6.3-30.6.5-43.6.6 0-5.8 0-11.7-.1-17.5l8.6.1zm-24 46.1c0 1.8 0 3.8.1 5.7-6.2-.1-12.4-.1-18.6-.2.3-4.4.6-11.3.7-16.1h1.4c5.4 0 10.9-.1 16.3-.3 0 3.9 0 7.3.1 10.9zm-126.9-3.8c0-2.9-.1-5.9 0-9 .9-.3 1.8-.6 2.6-1.2 2.8-2 3.8-5 4-7.6 27.2.4 54 .7 81.3.9.2 2.2.7 6.2 4 8.5 2.2 1.5 4.8 1.6 6.3 1.6h2.9c-.1 4.3-.4 10.7-.7 16.1-3 0-6-.1-9-.1-27.1-.3-55-.7-82.5-.7h-8.9c.1-2.9.1-5.8 0-8.5zM333.5 115l2.3-.3c3.8-.5 7.6-.9 10.8-.6l.1 29.4v10.3c-1.7.1-3.3.1-5 .2l-22.9.3c-2.7 0-5.5 0-8.2-.1-.5 0-1.7 0-2-.2 0 0-.5-.4-.7-3.1-.1-1.7-.2-3.5-.3-5.2-.2-2.9-.3-5.7-.4-8.6 0-.9-.1-1.7-.1-2.6-.1-4-.1-8 0-12.1 0-2.3.1-4.6.2-6.9 8.8.6 17.6.4 26.2-.5zm-34.2 11.1v7c0 2 .1 4 .2 6 0 1 .1 2.1.1 3.1 0 .6 0 1.2.1 1.8-27.2-.1-53.9-.5-81-.9v-1.4c0-.9-.1-1.7-.1-2.7v-.6c-.1-2.5-.1-5.2-.1-7.9v-4.4c27.5 0 54.4-.1 80.8 0zm-112.6-9.5c8.6 0 17.1.1 23.6.3.1 2.9.2 6.2.2 9.6v4.8c0 2.7.1 5.4.1 7.9v1.5c0 .9 0 1.8.1 2.6.1 1.4.1 2.8.2 4v3.1c-.1 1.2-.4 1.7-.7 1.8-.5.3-1.9.4-2.7.4-1.9.1-4.5.1-7.5.1-6.8 0-16.3-.2-21.2-.6-.2 0-.7-.1-1-.1-.1-.3-.2-.9-.2-1.1-.3-1.9-.6-4.2-.8-6.6 0-.5-.1-1-.1-1.5-.7-8-.9-17.5-1-25v-1.3c3.3.1 7.1.1 11 .1zm-17.8 26.8c-2.4.1-4.9.2-7.5.3-11.7.4-23.8.9-34.7.9-6.7 0-12.2-.2-16.7-.5-.5-5.1-1-10.2-1.5-15.4 19.5-.6 39.5-1.2 59.6-1.6 0 1.2.1 2.5.1 3.7v.6l.3 6c.1 1.3.2 2.6.2 3.9.1.7.1 1.4.2 2.1zm17.7 21.9c.1-1.4.2-2.9.2-4.4l17.5-.3c0 3 0 5.7.1 8.4 0 2.7.1 5.5 0 8.4-6.4 0-12.5.1-18.5.2l.7-12.3zM257 392.2c-49 0-98.7-1.5-147.6-4.5-.7-73.1 1.7-145.6 6.8-200.1 30.7-1.6 64.1-2.3 105-2.3 27.4 0 55.4.3 82.4.7 31.2.4 63.4.7 94.6.6 1.5 32.4 2.2 67 2.9 100.6.7 33.6 1.4 68.2 2.9 100.7-48.8 2.8-98.2 4.3-147 4.3z"/><path d="M334 336.2c-2.7.4-4.7.3-6.1-.5-2.6-1.3-3.7-4.8-3.5-7.6.1-1.8.6-3.6 1.5-5.6h.9c10.1.2 17.9-2.3 22.5-7 3.1-3.2 4.6-7.2 4.4-11.7-.1-3.7-2.3-7-5.7-8.6-3.3-1.5-7.1-1.1-10 1.1-5.7 4.4-10.7 9.6-14.8 15.4-.1-1 .1-2 .5-2.9.6-1.1 1-2.2 1.4-3.2.8-2.1 1.2-2.9 2.6-3.9l-4.1-6.7c-8.4 4.8-13.4 11.1-18.6 17.8-1 1.3-2 2.6-3.1 3.9l-1.2 1.5c-5.1 6.3-10.3 13-16.7 12.3-.7-.1-1.1-.2-1.1-.1 0-.3.1-1 .4-2l4-14.5c.8-3.1-.2-6.2-2.7-8.1-2.5-2-5.9-2.2-8.7-.7-.4.2-.8.4-1.1.6 0-1.5-.3-3.2-1.3-4.8-1.8-2.7-4.8-3.4-5.9-3.7-4.6-1.1-8.9-.5-12.2 1.7-4.4 3-6.1 9-3.7 13.4 1.9 3.5 5.7 5.5 10.5 5.3-4.5 7.1-11.4 12.8-19.4 15.6-3.9 1.3-9.4 1.9-11.9-1-1.5-1.7-2-4.6-1.3-7.9 1.3-7 10.4-14.5 17.9-16.6.2 0 .3-.1.5-.1l-2-7.6c-.2.1-.4.1-.6.2-4.8 1.3-9.7 3-14.9 4.7-14.9 4.9-30.2 10-44.2 8.3l-1.6-.2c-1.4-.2-2.9-.4-4.4-.5 4.4-14 7-28.5 9.6-42.7.2-1.2.4-2.5.7-3.7 9.4-6.6 17.6-15.2 23.2-27.3 1.9-4 2.5-8.7 2-14.6-.1-1.2-.4-2.3-1-3.2-1-1.5-2.6-2.6-4.7-3.1-5.6-1.4-11.9 1.2-16.1 6.5-3.3 4.3-4.7 9.3-5.9 14.2-1.8 7.5-3.3 15.3-4.7 22.9-9 5.8-19.4 9.8-30.1 13.6l2.6 7.4c8.7-3.1 17.4-6.5 25.6-10.9-2.4 13.6-5.1 27.5-9.4 40.7-2.9.2-5.9.7-8.7 1.8-4.9 2-9.1 6.3-10.8 11.3-1.3 4-1 8 1 11.3 1.1 1.9 2.7 3.3 4.5 4 5 2.1 10.5-1 14-7.8 2.1-4.1 4-8.4 5.6-12.7 2 .1 4 .4 6.1.7l1.7.2c13.2 1.6 26.7-1.9 40-6.1-1.7 2.5-2.9 5.3-3.4 8.1-1.1 5.8.1 11.1 3.2 14.6 4.3 4.9 12 6.1 20.4 3.2 12.1-4.2 21.9-13.5 26.9-25.2 2.6-.9 5.1-2.1 7.4-3.5l-4 14.5c-.5 1.7-1.3 4.9.3 7.9 1.4 2.4 4 3.9 7.3 4.1 10.6.8 17.7-8.1 23.5-15.3l1.2-1.5c1.1-1.4 2.2-2.7 3.2-4 1.4-1.8 2.8-3.6 4.1-5.2.1 1 .3 2 .6 3 .6 1.6 1.4 3 2.5 4.1-1.1 2.4-1.9 5.1-2.1 8-.4 6.5 2.7 12.6 7.9 15.2 2 1 4.3 1.5 7 1.5 1.2 0 2.5-.1 3.8-.3 10.1-1.6 18.8-7.4 26-12.9l-4.8-6.3c-6.5 4.8-14.1 9.9-22.5 11.2zm8.9-33.6c.3-.3.7-.4 1-.4.3 0 .6.1.8.2.3.1 1.1.6 1.2 1.8.1 2.3-.7 4.3-2.2 5.9-2.5 2.5-6.9 4.1-12.7 4.5 3.4-4.5 7.4-8.6 11.9-12zm-147.2-62.3c1-4 2.1-8.1 4.5-11.2 1.5-1.9 4.1-3.7 6.8-3.7.3 0 .6 0 1 .1.3 4.1-.2 7.3-1.4 9.9-3.6 7.7-8.3 13.8-13.9 18.9.9-4.7 1.8-9.4 3-14zM165 329.2c-1.5 3-3.4 4.4-3.9 4.2-.1 0-.4-.3-.7-.8-1-1.7-.7-3.5-.3-4.7.9-2.8 3.4-5.4 6.2-6.5.9-.4 1.8-.6 2.7-.8-1.2 2.8-2.6 5.7-4 8.6zm101.7-21.8c-.1.6-.3 1.2-.5 1.7-.2.1-.4.1-.7.2-2.8.7-6.1.7-6.9-.7-.4-.8.2-2.4 1.2-3.1.9-.6 2-.9 3.4-.9.8 0 1.7.1 2.5.3.9.2 1.2.4 1.2.4.1.3.2.8-.2 2.1z"/></g></svg>