<svg xmlns="http://www.w3.org/2000/svg" width="512" height="512"><path d="M423.8 184.1l-4.8.5c-51 4.9-101.2 14.5-149 28.6-.4.1-1 .2-1.7.3-3.6.7-6.3 1.3-7.9 3.2l-.8 1-.1 1.3s-.4 5.9-.6 8.4c-1.5 16.2-2 29.9-2.6 44.3-.2 4.5-.3 9.2-.6 14.1l-.2 5.3h.1c-.7 18.8-1 37.7-1.1 56.5-1.9-.4-4-.4-6.2.1-17.5 3.9-33.3 12.3-45.7 24.3-2.9 2.8-6 6.2-7.9 10.7-2.1 5.1-2.1 10.8.1 15.6 4 8.8 13.6 12.7 20.9 12.7h.2c7.8-.1 14.3-3.8 19.7-7.4 9.2-6.2 15.6-12.2 19.9-19 3.6-5.6 5.8-11.8 6.5-18.1h.3c-.1-25.8.3-51.7 1.3-77.5l117.3-29.9c10.2-2.6 22.5-5.8 33-7.7l-4.3 67.3c-2.1-.7-4.5-.7-7.2-.1-17.5 3.9-33.3 12.3-45.7 24.3-2.9 2.8-6 6.2-7.9 10.7-2.1 5.1-2.1 10.8.1 15.6 4 8.8 13.6 12.7 20.9 12.7h.2c7.8-.1 14.3-3.8 19.7-7.4 9.2-6.2 15.6-12.2 19.9-19 3.7-5.8 5.9-12.2 6.5-18.6h.2l5.9-93c.6-8.8 1.1-18 1.3-27.2.2-8.3 0-16.8-.5-25.2.1-.9.1-1.7.2-2.6l.6-4.8zM248.9 380.4c-3.8 5.9-9.4 11.2-17.7 16.7-4.6 3.1-9.7 6-15.4 6l-.1 3.9v-3.9c-4.9 0-11.3-2.8-13.7-8.1-1.3-2.8-1.3-6.2 0-9.3 1.3-3.2 3.7-5.7 6.1-8 11.4-11 25.9-18.7 42-22.3.7-.2 1.4-.2 2-.2.3 0 1.3 0 1.6.4.2.2.3 1 .3 1.2 1.3 8-.4 16.4-5.1 23.6zm130-128.9l-115 29.3c.8-19.8 1.9-39.5 3.3-59 .8-.2 1.9-.4 2.5-.5 1-.2 1.9-.4 2.5-.5 45.9-13.5 93.9-22.9 142.8-27.9-.7 8.4-.8 16.7-1 24.8-.2 8.5-.3 17.2-1.1 25.9-10.8 2-23.6 5.2-34 7.9zm24.1 99.8c-3.8 5.9-9.4 11.2-17.7 16.7-4.6 3.1-9.7 6-15.4 6l-.1 3.9V374c-4.9 0-11.3-2.8-13.7-8.1-1.3-2.8-1.3-6.2 0-9.3 1.3-3.2 3.7-5.7 6.1-8 11.4-11 25.9-18.7 41.9-22.3.7-.2 1.4-.2 2-.2.3 0 1.3 0 1.6.4.2.2.3 1 .3 1.2 1.4 8-.4 16.4-5 23.6zm-222.9-61.2c2.7-4.2 4.3-8.8 4.8-13.5h.2c-.1-23.2.5-46.5 1.5-69.5 4.4-3.9 7.3-5.7 12.3-6.2 3.7-.4 7.6 0 11.6.3l3.3.3c10.6.8 19.1.1 26.7-2.3 6.6-2.1 12.4-5.4 18.3-8.9 8.1-4.8 17.3-10.6 25-18.2 1.8-1.8 2.1-4.5.6-6.6-1.4-2.1-4.1-2.8-6.4-1.8-9.5 4.2-18.1 5.4-25.5 3.4-4.1-1.1-7.9-3.2-11.9-5.4-3-1.6-6.1-3.3-9.5-4.6-16.2-6.4-32.5-4.2-44.6 6-2.2 1.8-4 4-6.1 8.8l.4.2c-2.2 29.5-3.3 59.6-3.5 89.7-1.1-.1-2.3 0-3.5.2-12.6 2.8-24.1 8.9-33.1 17.6-2.1 2-4.5 4.6-5.9 8-1.6 3.9-1.6 8.3.1 12 2.6 5.7 9.1 9.7 15.9 9.7h.2c5.8-.1 10.7-2.8 14.6-5.4 6.7-4.4 11.3-8.9 14.5-13.8zm11.4-120.9c9.9-8.3 23.2-10.1 36.6-4.7 2.9 1.1 5.7 2.7 8.6 4.2 4.3 2.3 8.7 4.7 13.6 6 5.3 1.4 11.1 1.6 17.1.5-4.3 3.1-8.8 5.8-12.9 8.2-5.5 3.3-10.9 6.3-16.6 8.2-6.6 2.1-14.1 2.7-23.7 1.9-1.1-.1-2.1-.2-3.2-.3-4.3-.4-8.6-.8-13.2-.3-4.5.5-7.9 1.8-11 3.7.4-7.9.9-15.9 1.5-23.7 1.4-2.1 2.3-3 3.2-3.7zm-40.6 132.3l-.1 3.9.1-3.9c-3.2 0-7.4-1.9-8.8-5.1-.8-1.7-.8-3.8 0-5.7.9-2.1 2.5-3.8 4.1-5.3 7.9-7.7 18.1-13.1 29.3-15.6.4-.1.8-.1 1.2-.1h.2v.2c1 5.4-.2 11.1-3.4 16-2.6 4-6.5 7.7-12.3 11.6-3.2 2-6.6 3.9-10.3 4zm-29.4 42.6c.1 2.4.1 7.4.2 12.3.1 5.1.1 10.2.2 12.7l7.9-.2c-.1-2.5-.1-7.5-.2-12.6-.1-5-.1-10-.2-12.4l-7.9.2zm8.3 66c.8-8.2.6-16.4-.6-24.5l-7.8 1.1c1.1 7.5 1.3 15.1.6 22.6l7.8.8zm-41.63-33.822l18.064-1.142.499 7.884-18.064 1.143zm55.43-3.578l-1.6 7.7c3.4.7 6.8 1 10.2 1 3.7 0 7.4-.4 11-1.2l-1.7-7.7c-5.7 1.3-12 1.4-17.9.2zm233.5-244.5c0-1.4-.1-4.4-.1-7.3 0-3-.1-6-.1-7.4l-7.9.2c0 1.4.1 4.4.1 7.3 0 3 .1 6 .1 7.4l7.9-.2zm-7.8 23.8l7.8.7c.5-5 .3-10-.4-14.9L369 139c.6 4.3.7 8.7.3 13zm-7.267-13.793l-10.678.675-.499-7.884 10.679-.675zM394 128.8c-3.3.7-6.7.7-10 .1l-1.6 7.7c2.1.4 4.2.6 6.4.6 2.3 0 4.6-.2 6.9-.7l-1.7-7.7z" fill="#585858"/></svg>