<svg xmlns="http://www.w3.org/2000/svg" width="512" height="512"><g fill="#585858"><path d="M318.5 163.1c-44-2.2-88.8-2.3-132.8-.4-6.8.3-12.2 5.8-12.5 12.6-.7 20.2-.2 38 .4 55.3.5 17.3 1.1 35.2.4 55.7-.2 7.2 5.2 13.2 12.2 13.5 21.8.8 40.5 1.1 58.7 1.1 21 0 43.2-.5 72.1-1.6h1.3c2.8 0 6.5 0 9.2-3.1 2.3-2.7 2.4-6.2 2.4-8.3.2-19.5.4-38.7.5-57.8l.5-53.8c.1-7.1-5.4-12.9-12.4-13.2zm4 66.9c-.2 19.2-.3 38.3-.5 57.8 0 .9 0 2.7-.5 3.3-.3.4-2.2.4-3.3.4h-1.6c-28.8 1.1-50.9 1.6-71.8 1.6-18.2 0-36.7-.4-58.4-1.1-2.6-.1-4.7-2.5-4.6-5.4.7-20.7.2-38.7-.4-56.2-.5-17.1-1.1-34.8-.4-54.8.1-2.7 2.3-4.9 4.9-5 20.7-.9 41.6-1.4 62.3-1.4 23.2 0 46.7.6 69.8 1.7 2.8.1 4.9 2.4 4.9 5.2l-.4 53.9z"/><path d="M137.1 357.9l1.3 3.4 3.5-1c10.4-3.1 21.3-6.4 33.1-10.1 13.9.4 28.3.6 43.9.7 30.3 13.8 58.9 26 89.2 38.8 15.6 6.6 31.4 13.4 47.9 20.5.9.4 1.9.5 2.8.5.7 0 1.3-.1 2.1-.3 2.9-1 4-3.6 4.6-4.7 5.6-12.5 25.6-59.4 43.2-100.7 15.8-37.2 30.8-72.3 33.2-77.5l1.6-3.4-3.4-1.7c-32.6-16.6-62.7-30.6-90.6-43.3-.1-16-.1-27.6-.1-30.5l.1-3.8-3.8-.2c-27.8-1.7-53.8-2.6-79.7-3.2-5-14.6-9.5-28-10.5-31.1l-1.1-3.6-3.7 1c-44.3 11.8-83.1 24.1-124.2 37.2-17.5 5.6-35.7 11.3-54.3 17.1l-3.7 1.1 1.1 3.7c18.2 60.7 34 102.5 53.9 155.4 4.4 11.2 8.9 23.1 13.6 35.7zm19.6-63.2c-3.4 1-6.8 2-10.4 3.1-2.5.7-5.3-1-6-3.6-5.9-19.9-12.1-36.8-18.1-53.2-5.9-16.1-12-32.7-17.7-51.8-.8-2.6.6-5.4 3.1-6.3 15.7-6 31.5-11.8 47-17.1-.1 5.8-.2 11.4-.2 16.9v37.1c0 2.9.1 5.8.1 8.7v3.7l.3 14.7v.3c.1 4.8.3 9.7.4 14.6v1.3c.1 4.6.3 9.3.5 14 0 .9.1 1.7.1 2.6.2 4.3.3 8.7.5 13.1.3.5.3 1.2.4 1.9zm193-84.7c18.4 8.2 36.7 16.8 54.5 25.6 2.5 1.2 3.5 4.2 2.4 6.8-9.6 21.5-18.9 42.4-28.4 63.5L361 344.4c-.3.7-1.1 2.4-1.7 2.8h-.2c-.7 0-1.9-.5-3-1l-1.5-.6c-1.5-.6-2.9-1.1-4.4-1.7v-.5c0-.3 0-.7.1-.9v-10.9c0-20.3-.3-58.8-.6-96.2V210zm83.5 17.6c-4.7 10.7-17.4 40.5-31.8 74.3-17.6 41.3-37.5 88.1-43.1 100.6 0 0 0 .1-.1.1-16.1-7-31.7-13.6-47.1-20.1-24.8-10.5-48.5-20.6-72.9-31.5 18 0 35.8-.2 53.8-.3 16.8-.1 33.8-.3 51.5-.3.1 0 .3 0 .4-.1.3 0 .6-.1.9-.1 2.3.9 4.6 1.8 7 2.7.4.2.8.3 1.2.5 1.8.8 3.8 1.6 6.1 1.6 1.3 0 2.5-.3 3.6-.8 3.3-1.6 4.7-4.9 5.5-6.7l17.2-38.5c9.4-21.1 18.8-42.1 28.4-63.5 2.8-6.5.1-13.9-6.1-17-18.9-9.4-38.4-18.5-58-27.1l-.1-13.7c25.8 11.7 53.7 24.7 83.6 39.9zm-91.6-52.2l.1 20.4c.1 10.6.2 22.2.3 34.4.4 46 .7 98.2.6 112.1v.1c-17.8 0-35.1.2-52.1.3l-47 .3h-19.3c-21-.1-39.7-.4-57.8-1-.4-12.4-.9-24.1-1.3-35.4-.6-16.3-1.2-31.6-1.7-46.7 0-1.5-.1-3-.1-4.4v-1c-.9-30.2-1.3-59.7-.5-94.1.1-4.2.2-8.5.3-12.9 8.7.2 17.2.3 25.6.5 1.3 0 2.7 0 4 .1 5.4.1 10.9.2 16.2.2l34.5.5c6.6.1 13.2.2 19.8.4l5.6.1c23.6.5 47.5 1.4 72.7 2.9 0 4.6 0 12.8.1 23.2zm-83.9-34.3c-3.8-.1-7.7-.2-11.5-.2-2.6-5.6-9-8.8-15.3-7.1-8 2.2-15.3 4.4-22.5 6.5-1.9 0-3.8-.1-5.7-.1-10.1-.1-20.3-.3-30.7-.5-1.1 0-2.2 0-3.3-.1 26.1-8.1 52.2-16 80.5-23.5 1.6 4.9 4.6 13.6 8.5 25zm-128.8 11.1c8.8-2.8 17.5-5.6 26.2-8.3-.1 4.6-.3 9.1-.4 13.5-16.5 5.6-33.3 11.6-50 18.1-6.3 2.4-9.7 9.4-7.8 15.9 5.7 19.4 11.9 36.1 17.8 52.3 6 16.3 12.2 33.1 18 52.7 1.6 5.6 6.7 9.4 12.4 9.4 1.2 0 2.3-.2 3.4-.5 2.9-.8 5.7-1.7 8.5-2.5.2 5.8.5 11.7.7 17.8v.9c.3 7.9.6 16 .9 24.5v1c-5.3 1.6-10.5 3.2-15.5 4.7-4.2-11.3-8.3-22.1-12.2-32.4-19.5-51.7-35-92.7-52.6-151.1 17.4-5.4 34.3-10.8 50.6-16z"/></g></svg>