<svg xmlns="http://www.w3.org/2000/svg" width="512" height="512"><path d="M153.5 329.6c5 1.9 10.3 2.9 15.7 2.9 6.5 0 13.3-1.4 20.1-4.1l25-7.8c-.1 17 0 25.4 0 33.5.1 8.8.2 17.9 0 38v3.8l3.8.2c29.3 1.3 53.6 1.8 78.7 1.8 22 0 43-.4 67.2-.9 19-.4 40.5-.8 66.6-1.2l4.3-.1-.4-4.2c-1.8-19.5-1.4-28.8-1-38.6.4-9.6.8-19.5-1-39.6l-.3-3.3h-.7c-4.3-17.9-17.5-31.6-34-34.6-5.3-1-10.6-1-15.7-1h-3.5c1.7-5.2 2.4-11.5 2.7-15.3 1.6-19.3-3.6-36.8-14.1-47.9-5.6-5.9-12.7-10.3-20.7-12.7-2.1-.6-4.1-1-6.2-1.2 1.4-1.1 2.8-2.2 4-3.2 8.3-6.9 12.2-11.2 18.3-17.7l3.9-4.2-2.8-2.7c-2.7-2.5-4-4.4-5.6-6.8-.9-1.3-1.9-2.8-3.2-4.4l-1.1-1.5-48.7-1c-2 0-5.1-.1-7.5-.1h-5.6l-1.1 2c-.5.9-4.7 8.6-6 12.8l-.6 2.1 1.4 1.6c4.4 5 9.4 9.8 14.2 14.5 3.2 3.1 6.6 6.3 9.7 9.6-11.9 2.7-22.8 9.4-30.1 18.7-7.2 9.2-11.2 22.1-10.7 35.4.2 7.2 1.5 16 5.5 22.4h-1c-10.3 0-23.1 0-33.7 6.1-8.2 4.7-13.9 12.4-18.2 20.1-7.8-17.5-14.2-34.3-20.9-52-6.8-17.8-13.8-36.2-23-57.4-2.1-4.9-4-10.6-5.8-16.1-1.7-5.1-3.4-10.4-5.3-15.1-5.9-14.3-11.4-27.3-19.6-40.8l-2.2-3.6-3.4 2.4c-2.8 1.9-6 3.2-9.5 4.6-2.1.9-4.4 1.8-6.5 2.8-5.5 2.7-12.9 6.5-12.9 6.5l-1.8.9c-1.8.9-3.3 1.6-4.4 2.2-9.4 4.7-14.8 9.6-20.2 18-4.6 7.3-5.8 16.3-6.6 22.9-1.1 8.7-2.1 17.3-1.1 25.8 1.1 10.2 4.7 19.6 8.2 28.7 10.3 26.9 21.9 57.3 43 80.3 7.8 9.3 16 15.2 24.4 18.5zm210.3 59.5c-24.2.5-45 .9-67 .9-23.9 0-47-.5-74.5-1.6.2-17.6.1-26.1 0-34.4-.1-8.2-.2-16.7 0-34.1 13.2.1 25-.5 37.6-1 17.5-.8 35.8-1.6 60.7-1 20.6.5 37.3 0 53-.5 9.9-.3 19.2-.6 28.6-.6 8.2 0 15.5.2 22.8.7 1.4 17.3 1.1 26 .7 35.2-.4 8.9-.7 18.1.7 35.4-24.4.2-44.6.6-62.6 1zm-48-218.3c-1.5-2.3-3.1-4.6-4.7-6.9l26.1.6c-1.8 2.7-3.8 5.4-5.6 7.5-5 .1-10.1.1-15.1 0l-.7-1.2zm16.1 22.9c-1.4 1.1-2.6 2-3.4 2.6-2.2.1-6.9.2-10.5 0-.8-.9-1.6-1.7-2.5-2.6 2.4-4.1 5-8.1 8-11.7 2.6 4.2 5.4 8 8.4 11.7zm7.1-5.6c-.3.2-.6.5-.9.7-2.4-2.9-4.5-5.9-6.5-9.1 5.7-.1 11.5-.2 17.2-.4-2.8 2.7-5.7 5.4-9.8 8.8zm12.3-20.9c.9 1.3 1.9 2.7 3 4-4.2.2-8.4.4-12.6.5 1.7-2.4 3.3-4.8 4.6-7.1l3.2.1c.7.9 1.3 1.7 1.8 2.5zm-55-3.6h5.3c1.8 2.7 3.6 5.3 5.4 8-4.6-.1-9.3-.3-13.9-.6l-.2-.2c.9-2.2 2.3-5.1 3.4-7.2zm8.7 19.5c-1.3-1.3-2.6-2.5-3.9-3.8 4.8.2 9.6.3 14.4.4-2 2.6-3.9 5.4-5.6 8.2-1.7-1.6-3.3-3.2-4.9-4.8zm-21 91.4c-6.4-3.8-7.7-15.6-7.9-22.3-.4-11.3 3-22.7 9.1-30.3 8.2-10.4 22.3-17 36-17H332c3.7 0 7.9.2 11.8 1.3 6.6 2 12.6 5.7 17.2 10.6 8.8 9.3 13.3 25 11.9 41.8-.3 3.4-1.8 12.5-3.2 15.9h-13.2c2.9-6 4-13.2 3.4-18.8-1-10.1-3.4-22.9-12.1-31.8-5.6-5.7-13.9-9-22.7-9-9 0-17.6 3.4-23.7 9.3-9 8.8-13.7 20-12.6 30.1.8 7.6 3.4 14.5 7.7 20.4h-1.3c-3.1 0-6.3-.1-9.4 0h-.8c-.1.1-.7-.1-1-.2zm43.2.2c-6.7 0-13.4.1-20.1.1-5.9-5.8-9.3-12.9-10.2-21.2-.8-7.7 3-16.5 10.3-23.7 4.6-4.5 11.2-7.1 18.1-7.1 6.7 0 12.9 2.4 17.1 6.6 7 7.1 8.9 18.2 9.9 27.1.6 5.4-1.2 13.4-4.9 18-6.7.1-13.4.1-20.2.2zM243 287.8c8.8-5 20-5.1 29.8-5h12.8c1.6-.1 3.3 0 4.9 0h5.2c3.1 0 6.3.1 9.4 0 7.4 0 14.8-.1 22.2-.1 7.4 0 14.8-.1 22.1-.1 3.3.2 7.1.2 10.9.1 3.7-.1 7.1-.2 11 .1.5 0 .9-.1 1.4-.2h7c5.7 0 11.1-.1 16.4.8 12.7 2.3 23 12.6 27.1 26.3-6.7-.4-13.5-.6-21.1-.6-9.5 0-18.9.3-28.8.6-15.6.5-32.1 1-52.5.5-25.2-.6-43.7.2-61.3 1-11.3.5-22 1-33.6 1-.3-.6-.6-1.2-.9-1.9 4.8-9.8 10-17.9 18-22.5zM141.5 127.1c6.8 11.8 11.8 23.5 17 36.3 1.8 4.5 3.5 9.6 5.1 14.6 1.9 5.7 3.8 11.6 6 16.8 9.1 21 16.1 39.4 22.8 57.1 7.5 19.7 14.7 38.4 23.7 58.2-.3.7-.6 1.3-.9 1.9h-1v.4l-24 7.5c-24-55-47.4-111.2-69.4-167-1.3-3.3-3.1-10.4-3.5-14.4 1.3-.6 2.6-1.3 3.9-1.9 4.9-2.4 9.8-4.8 12.3-6 .1 0 .2-.1.4-.1 2.7-1.1 5.2-2.1 7.6-3.4zm-56.1 74.4c-.8-7.7 0-15.4 1.1-24 1-7.6 2.1-14.3 5.5-19.7 4.5-7.2 9-11.1 17.1-15.2.3-.2.7-.3 1-.5.9 5.3 2.7 11.3 3.6 13.6 22 55.7 45.3 111.7 69.3 166.6-9.5 3.1-18.4 3.1-26.6-.1-7.3-2.8-14.5-8.1-21.9-16.2-20.1-21.9-31.4-51.6-41.4-77.8-3.3-8.6-6.7-17.6-7.7-26.7zm242.8-85.8l-7.9.5c.5 7.6.2 15.4-.7 23l7.8 1c1-8.2 1.3-16.4.8-24.5zm31.3 26c3.9-5 7.2-8.4 10.3-11.7 2.5-2.6 5.1-5.4 8.1-8.9l-6-5c-2.8 3.3-5.2 5.8-7.7 8.5-3.3 3.4-6.7 7-10.8 12.3l6.1 4.8zm-82.7-26.1l-7 3.6c2.2 4.3 4.4 7.4 7 10.9 2.3 3.2 5 6.8 8.2 12.2l6.8-4c-3.4-5.7-6.2-9.5-8.6-12.9-2.5-3.3-4.5-6.1-6.4-9.8z" fill="#585858"/></svg>