<svg xmlns="http://www.w3.org/2000/svg" width="512" height="512"><path d="M104.9 405.3c21.5 13.9 46 20.8 71 20.8 25.4 0 51.2-7.2 74.8-21.5 9.5 7.6 20.5 13.1 32.8 16.1 14.3 3.6 31.6 5.8 48.8 5.8 22 0 43.9-3.7 59.6-12.9 51.8-30.4 72.8-111.8 44-170.8-15.1-30.8-45.4-52.4-81.2-58.7.2-.2.5-.4.7-.6l.2.1.2-.4c1.5-1.2 3.1-2.4 4.3-3.5 8.5-7.1 12.7-11.6 18.9-18.3l4-4.3-2.8-2.7c-2.8-2.6-4.1-4.6-5.8-7-.9-1.4-1.9-2.9-3.3-4.6l-1.2-1.5-50.4-1.1c-2 0-5-.1-7.5-.1h-6.1l-1.1 2c-.5.9-4.9 8.9-6.2 13.2l-.6 2.1 1.4 1.6c4.5 5.2 9.7 10.2 14.7 15 2.9 2.8 5.8 5.6 8.5 8.4-7.1.5-14.1 1.6-20.8 3.3-17.7 4.6-33.5 12.9-47.1 24.7-7.1-5.6-14.9-10.5-23.1-14.5-41.8-20-90.6-14.2-124.4 14.8-33.7 28.9-50.1 78.9-41.8 127.3 2.9 17.7 11.9 49.6 39.5 67.3zm233.7-222.9c-1.9-.1-3.7-.1-5.5-.1-.8-.9-1.8-1.8-2.6-2.8 2.5-4.4 5.3-8.6 8.5-12.4 2.6 4.3 5.6 8.4 8.8 12.3-1.5 1.2-2.8 2.2-3.7 2.8-1.2 0-3 .1-5.1.1-.1.1-.3.1-.4.1zm-7.9-26.6c-1.6-2.5-3.3-4.9-5-7.4l27.5.6c-1.9 2.9-4 5.8-6 8-5.3.1-10.5.1-15.8 0l-.7-1.2zm24.3 17.9c-.3.3-.7.6-1.1.9-2.6-3.1-4.9-6.4-7.1-9.8 6.2-.1 12.4-.2 18.6-.5-3 3-6 5.8-10.4 9.4zm12.7-21.8c1 1.4 2 2.9 3.2 4.4-4.5.2-9.1.4-13.6.5 1.8-2.5 3.6-5.2 5-7.7l3.5.1c.8.9 1.4 1.8 1.9 2.7zm-57.2-3.7h5.6c2 2.9 3.9 5.7 5.8 8.6-4.9-.1-9.8-.3-14.7-.6l-.3-.3c.9-2.4 2.5-5.5 3.6-7.7zm9 20.4c-1.4-1.4-2.9-2.8-4.3-4.2 5.2.2 10.4.3 15.6.4-2.2 2.8-4.2 5.8-6.1 8.9-1.7-1.8-3.5-3.4-5.2-5.1zm-15.7 25c9.1-2.4 18.8-3.5 28.7-3.5 1.4.1 2.9.1 4.9.1h1.3c39.6 2.1 74.1 23.5 90 56.1 27.1 55.5 7.6 132.1-40.9 160.6-25 14.7-70.5 14.2-102.6 6.2-25.4-6.4-44.8-24-56.1-50.9-7.5-17.9-11.1-37.6-10.3-57 .9-22.6 7.4-44.2 18.9-62.6 1.9 1.9 3.7 3.8 5.4 5.8 2.7 3.2 5 6.6 7.2 10.2-3.8 7.8-6.7 16.1-8.5 25-.2.8-.3 1.6-.5 2.5-4.8 26.9-.2 53.6 12.7 73.4 18.1 27.8 49.4 37.5 76.2 37.5 4 0 7.9-.2 11.6-.6 33.9-3.7 61.4-26.9 71.7-60.6 10.8-35.4 6.4-82.4-27.8-107.3-25.6-18.7-55.8-15.9-82-11.7-11.1 1.7-21.2 6.1-30.1 12.9-3.9-4.9-8.2-9.5-12.9-13.7 12.6-10.7 27-18.2 43.1-22.4zm-81.9 171.6c1.7 4 3.5 7.7 5.5 11.3-33.5 19.4-85.3 19-112.1-13-14-16.7-20-39.6-16.6-64.4 3.8-28.1 19.1-55.2 39.2-69.1 27.4-19 66.8-15.2 94.1 7.2-12.7 19.8-19.9 43.1-20.8 67.6-1 20.6 2.8 41.5 10.7 60.4zm27.2-77.8c.1-.8.3-1.5.4-2.3 1.2-6.2 3.1-12.1 5.4-17.8 11.5 25 12.2 55.6.9 79.1-8-16.9-10.5-37.8-6.7-59zm33.6-44.5c-1.4-2.4-2.8-4.7-4.4-7 7.9-6 16.9-9.9 26.7-11.4 24.7-3.9 53-6.6 76.2 10.3 31.1 22.6 34.9 65.8 24.9 98.6-9.4 30.7-34.3 51.8-65 55.1-18.2 2-40.5-.9-58.7-12.2 10.4-15.1 16.2-35.8 16.9-60.2.5-19.3-1.9-47.7-16.6-73.2zM112.3 217c31.5-27 76.9-32.4 115.9-13.7 20.3 9.7 37.2 25.2 47.8 43.5 13.8 23.9 16 50.8 15.5 69.1-.7 22.8-6 42-15.5 55.9-5.7-4.5-10.9-10-15.3-16.6-.1-.2-.2-.3-.3-.5 19-33.2 14.4-80.6-11.2-111.4-29.2-35.1-81.2-44-115.9-19.8-22.1 15.4-38.4 43.9-42.5 74.6-3.6 27 2.9 52 18.4 70.5 16.8 20 42.3 28.8 67.9 28.8 19.3 0 38.7-5.1 54.3-14.1 3.9 5.9 8.2 11.2 13 15.9-43.8 25.4-95.1 25.5-135.3-.4-25-16.1-33.3-45.5-36.1-61.6-7.7-45.9 7.7-93 39.3-120.2zm230.6-90.7c1.2-7.2 1.6-14.5 1.2-21.7l-7.9.4c.4 6.7 0 13.4-1.1 19.9l7.8 1.4zm37.6-24.8l-14.1 25.7 6.7 4.1 1.9-2.9-.2-.1 12.6-23zm-82.825.66l13.173 25.274-7.006 3.651-13.172-25.274z" fill="#fff"/></svg>